<svg xmlns="http://www.w3.org/2000/svg" width="167.738" height="167.738" viewBox="0 0 44.381 44.381"><path d="M563.004 355.843c0 144.288-116.97 261.258-261.259 261.258S40.487 500.13 40.487 355.843c0-144.29 116.969-261.259 261.258-261.259s261.259 116.969 261.259 261.259" style="fill:#ffeb00;fill-rule:evenodd" transform="matrix(.08484 0 0 .08484 -3.408 -7.998)"/><path d="M303.954 595.295c-130.513 0-236.692-106.18-236.692-236.692S173.442 121.91 303.954 121.91c130.513 0 236.692 106.181 236.692 236.693S434.467 595.295 303.954 595.295m0-456.823c-121.381 0-220.131 98.751-220.131 220.131s98.75 220.13 220.13 220.13c121.382 0 220.132-98.75 220.132-220.13s-98.75-220.131-220.131-220.131" style="fill:#003055;fill-rule:evenodd" transform="matrix(.08484 0 0 .08484 -3.408 -7.998)"/><path d="m189.366 257.381-54.101-56.31 11.943-11.475 54.101 56.31zM414.4 257.381l54.101-56.31-11.942-11.475-54.1 56.31zM414.4 456.237l54.1 56.31-11.942 11.473-54.1-56.31ZM189.366 456.237l-54.102 56.31 11.943 11.473 54.102-56.31z" style="fill:#003055;fill-rule:evenodd" transform="matrix(.08484 0 0 .08484 -3.408 -7.998)"/><path d="M437.345 372.868h-16.85c-1.16 44.02-12.066 71.783-16.719 81.678-113.841 35.837-183.145 9.455-200.09 1.487-35.836-113.839-9.454-183.145-1.487-200.09 113.836-35.836 183.14-9.456 200.09-1.488 12.845 40.805 17.673 75.853 18.243 104.854 2.537-7.232 6.46-15.936 12.119-22.37 0 0 1.643 2.073 3.908 5.595-2.027-27.998-7.859-60.543-19.887-97.502l-4.19 1.363 2.439-4.048c-3.205-1.938-80.23-46.972-222.146-.786l1.366 4.197-4.05-2.447c-1.94 3.209-46.973 80.23-.787 222.145l4.188-1.362-2.438 4.047c2.13 1.288 36.738 21.543 101.255 21.543 32.717 0 73.139-5.214 120.89-20.755l-1.367-4.2 4.053 2.448c1.239-2.051 20.085-34.267 21.46-94.309" style="fill:#003055;fill-rule:evenodd" transform="matrix(.08484 0 0 .08484 -3.408 -7.998)"/><path d="m224.045 243.913 25.394 5.522 7.73 8.281 3.312 7.728-.551 8.281-1.275 7.216-1.608 7.454-.878 5.554.44 5.117.145 3.945 4.533 7.748 1.314 5.992.877 3.07-2.047 1.315-3.214.146-1.463 1.316 2.485 1.9s8.187 5.701 8.77 13.74l-1.169 2.63-.586 2.485 1.318 2.486 4.092-.293 2.338-1.023-.146-2.924-1.462-1.9-.73-2.484.292-3.654s.294-12.572-4.823-17.687c.877-3.8 2.777-3.508 2.777-3.508s2.922-1.17 4.092 3.946c1.169 5.117 4.54 24.956 4.54 24.956s1.569 1.046 1.892 11.148c-.293 5.408 3.946 12.57 3.946 12.57s3.944 7.748 23.971 10.963c0 0 5.847.437 6.14 4.092s-1.755 4.385-1.755 4.385-1.462 1.607-2.778 4.97c-1.315 3.363-2.923 3.507-2.923 3.507l-3.069.146-.438 1.609.438 2.34.586 2.483-1.9 3.508s-15.203 5.555-13.594 11.255l2.338 2.632-.438 2.484-2.924 1.462s-6.138-1.021-4.53 8.186 13.007 20.023 12.423 33.325c-.585 13.3-7.6 17.833-7.6 17.833s-7.308 8.476-7.893 19.586l-.878 3.217-2.777 3.798s-10.377 33.768-.584 41.076c0 0 5.116 1.606 7.454-11.255.73-6.434 4.97-8.625 4.97-8.625l2.192-1.9s-1.315-5.848 8.478-10.378 9.5-2.632 9.5-2.632 7.895-1.9 19.295-20.025c11.4-18.124 28.357-21.193 28.357-21.193s11.984-10.962 11.839-24.848c.145-7.894-13.74-16.811-22.218-22.511-2.777-1.462.146-4.823.146-4.823s2.631-1.17 2.194-4.239c-.439-3.07-5.847-6.432-5.847-6.432s-10.377-8.33-11.108-13.739c-.732-5.409-6.14-8.478-6.14-8.478s-10.377-3.364-9.793-12.864c0-4.822 8.624-6.576 8.624-6.576l3.799-.44-.73-1.46-2.047-.878-1.46-.877-4.24-.146-.877 1.462s-3.217 4.969-9.209 4.969-7.892-13.446-7.892-13.446-1.608-10.23 2.339-14.031 7.162-10.672 15.64-10.38c8.478.293 6.723 6.432 6.723 6.432h2.338s3.07-5.701 5.846-4.97c2.778.73 3.216 3.362 3.216 3.362s.002-5.992 4.825-8.478c2.922-1.462 2.045-3.945.876-4.676s1.023-3.655 1.023-3.655 3.362-3.07 1.023-6.14c-2.338-3.068 2.632-5.116 2.632-5.116s6.576-3.507 7.6-6.284c1.023-2.777 9.647-1.023 9.647-1.023l3.801-4.386 2.922-5.408 5.556-5.992-1.316-2.485-1.463-1.608 1.61-1.753-1.756-2.048s-9.5-3.653-9.792-7.307c-.293-3.654 3.07-1.9 3.07-1.9l3.507-2.193-.147-2.63-2.338-1.608-2.485-1.463s2.046-4.969-2.776-5.992c-4.823-1.024-9.793 3.36-9.793 3.36l-1.463 3.51-2.776 2.339-3.801 2.191-2.193-1.46-2.337-1.755-1.025-1.024h-3.362l-.583-2.923-1.17-1.9-1.755-2.046-1.753-1.754 2.046-2.486 1.316-2.483.73-3.217 1.462-1.46s.879-1.464 1.316-1.901c.439-.439 2.047-3.216 2.047-3.216l2.776-1.9 2.485-.73s3.655-.294 4.093-.147c.438.146 5.116-.147 5.116-.147l2.339-2.484s-.146-1.9.437-1.9c.585 0 2.778-3.655 2.778-3.655l1.314-2.923-1.46-3.07-3.946-.73-2.777-1.462-.44 1.755-.439 2.484-2.484 1.17-.438-1.902-.876-2.484c-1.462-1.314-3.364-3.07-3.364-3.07l-.875-1.9-1.024-2.484s.147-1.9-.147-1.317c0 0-3.801 2.047-3.654 2.486.148.438-.29 3.07-.29 3.07l-1.902 1.316-7.746.292-4.385-.292-3.8-1.609s-1.756-1.9-1.901-1.315-4.24.73-4.24.73-5.407 1.462-5.26 1.9c.145.438-3.948.147-3.948.147l-2.485-3.507-1.17-4.387-3.362-2.922-2.777-3.216-1.607-4.093-3.8-2.339-4.531-.146s-4.823 1.317-4.385 1.463c.438.144-3.8.73-3.8.73l-4.678-.145-3.508-2.194-4.823-3.07-5.408-4.677-3.655-4.092-2.34-3.8-4.091-2.34-7.894.438-4.385 2.048-3.946 1.9s-4.386 1.754-3.8 2.045c.585.292-1.025 3.07-.44 3.363.587.293.002 2.777.587 3.216.583.438 1.46 3.507 1.46 3.507l-.291 3.654-3.656 1.024-3.215.292-2.615-.585s-2.939 2.63-2.5 2.924c.438.292 2.5 2.191 2.5 2.191l2.761 2.34 1.609 2.338-1.462 2.778-2.908 1.315-3.524 1.17s-4.092 1.169-4.092 1.607c0 .439-3.947 2.631-3.947 2.631s-.876 2.047-.438 2.486c.438.438 2.485 1.461 2.485 1.461l2.631 1.17s.147 1.46 0 1.9c-.148.438-2.193 2.338-2.193 2.338s-1.9 3.362-1.462 3.508c.438.147 0 2.778.878 3.216.876.438 4.24 3.069 4.677 3.362.438.292 4.985 1.755 4.985 2.047s2.21 2.583 2.21 2.583" style="fill:#003055;fill-rule:evenodd" transform="matrix(.08484 0 0 .08484 -3.408 -7.998)"/><path d="M367.696 207.857c.438.146 4.53 1.022 4.823 1.462.292.438 3.508 3.361 3.945 3.654.438.293 1.903 2.484 2.193 2.923.292.438.585 4.093.585 4.093l-.877 4.677 3.07 2.34 2.045 2.337.294 2.924 4.53.877 5.117.585 2.484 1.314 4.239 1.9 3.216 1.756s2.633 2.337 2.924 2.776c.29.44 2.192 3.654 2.192 3.654s-1.609 3.07-1.609 3.655-5.846 3.654-5.846 3.654l-4.532 1.462-5.261-2.193-2.194-2.777-2.922-1.608h-3.946l-3.07 1.754-1.462 2.193-.876 2.192-3.07-.146-1.462-1.608s-.878-2.923-.293-2.923c.586 0-.29-3.216-.29-3.216l-1.17-2.924-2.632-.584s-3.215-1.17-2.776-1.17c.438 0 3.508-4.384 3.508-4.384l4.53-1.755 1.461-3.216-1.022-3.215s-2.337-2.922-1.9-2.777c.44.146-1.754-2.193-1.754-2.193s-3.216-2.192-2.777-2.192c.438 0-3.07-2.923-3.07-2.923s-4.532-2.193-3.801-2.34-.876-3.946-.146-3.946c.732 0 .148-3.8.732-3.654.584.147 1.46-1.607 2.046-1.607.584 0 4.824 1.169 4.824 1.169" style="fill:#003055;fill-rule:evenodd" transform="matrix(.08484 0 0 .08484 -3.408 -7.998)"/><path d="M244.354 403.208c-14.068 15.546-34.769 25.368-57.849 25.368-42.38 0-76.735-33.119-76.735-73.974s34.355-73.976 76.735-73.976c23.664 0 44.824 10.325 58.899 26.557l-20.653 20.119c-8.443-11.066-22.045-18.246-37.387-18.246-25.617 0-46.385 20.02-46.385 44.716s20.768 44.716 46.385 44.716c14.885 0 28.134-6.758 36.622-17.267zM493.997 431.06c-.553-129.18-63.485-155.678-63.485-155.678-65.142 59.62-59.07 156.23-59.07 156.23h33.123v-20.425h57.966v19.872zm-76.437-58.192s4.319-22.741 15.918-35.928c0 0 13.191 16.599 16.374 35.928z" style="fill:#e62b2f;fill-rule:evenodd;stroke:#003055;stroke-width:6.00010014;stroke-linecap:butt;stroke-linejoin:miter;stroke-dasharray:none" transform="matrix(.08484 0 0 .08484 -3.408 -7.998)"/></svg>