<?xml version="1.0" encoding="utf-8"?>
<!-- Generator: Adobe Illustrator 26.3.1, SVG Export Plug-In . SVG Version: 6.00 Build 0)  -->
<svg version="1.1" id="Layer_1" xmlns="http://www.w3.org/2000/svg" xmlns:xlink="http://www.w3.org/1999/xlink" x="0px" y="0px"
	 viewBox="0 0 366.2 366.2" style="enable-background:new 0 0 366.2 366.2;" xml:space="preserve">
<style type="text/css">
	.st0{fill:#FFFFFF;}
	.st1{fill-rule:evenodd;clip-rule:evenodd;fill:#CED0D1;}
	.st2{fill-rule:evenodd;clip-rule:evenodd;fill:#FFAE00;}
	.st3{fill:none;stroke:#251F20;stroke-miterlimit:10;}
	.st4{fill:#5A0000;}
	.st5{fill:#111231;}
	.st6{fill:#007F28;}
	.st7{fill:#950000;}
	.st8{fill-rule:evenodd;clip-rule:evenodd;fill:#FFFFFF;}
</style>
<g>
	<path class="st0" d="M176.2,316.3c-1.5-0.7-36.7-17.7-68.4-56c-18.6-22.6-32.2-47.9-40.4-75.4c-10.2-34.2-11.9-71.5-5.2-111
		l0.3-1.9c0.9-5.4,5.6-9.4,11.1-9.4h216.8c5.5,0,10.1,3.9,11.1,9.3l0.3,1.9c6.7,39.5,5,76.8-5.2,111c-8.2,27.5-21.8,52.8-40.4,75.4
		c-31.7,38.4-66.9,55.3-68.4,56l-5.8,2.8L176.2,316.3z"/>
	<g>
		<path class="st1" d="M156.4,320.4l-5.9-11.3l-5.4,11.5l-12.5,2.1l9.3,8.7L140,344l11.1-6.2l11.4,5.7l-2.5-12.5l8.9-9.1
			L156.4,320.4L156.4,320.4L156.4,320.4z M218.8,320.4l-5.9-11.3l-5.4,11.5l-12.5,2.1l9.3,8.7l-1.9,12.6l11.1-6.2l11.4,5.7
			l-2.5-12.5l8.9-9.1L218.8,320.4L218.8,320.4z"/>
		<g>
			<polygon class="st2" points="187.6,32.3 181.7,21 176.3,32.5 163.8,34.7 173.1,43.4 171.2,55.9 182.4,49.7 193.7,55.4 
				191.3,42.9 200.2,33.8 187.6,32.3 			"/>
			<polygon class="st2" points="244.7,32.3 238.8,21 233.4,32.5 220.9,34.7 230.2,43.4 228.4,55.9 239.5,49.7 250.9,55.4 
				248.4,42.9 257.4,33.8 244.7,32.3 			"/>
			<polygon class="st2" points="130.4,32.3 124.5,21 119.1,32.5 106.6,34.7 115.9,43.4 114.1,55.9 125.2,49.7 136.6,55.4 
				134.1,42.9 143.1,33.8 130.4,32.3 			"/>
		</g>
		<path class="st3" d="M292.3,119.8L75.8,162.7c-5-25-5.9-53.8-0.3-86.5h212.9C291.1,91.6,292.3,106.2,292.3,119.8z"/>
		<path class="st0" d="M292.3,119.8L75.8,162.7c-5-25-5.9-53.8-0.3-86.5h212.9C291.1,91.6,292.3,106.2,292.3,119.8z"/>
		<path class="st4" d="M146,181.9L146,181.9l-61.2,12.1c15,39.9,40.2,67.9,61.2,85.6l0,0l0,0V181.9z"/>
		<path class="st4" d="M218,167.7L218,167.7v112l0,0l0,0c27.5-23.2,62.3-64,71.8-126.2L218,167.7z"/>
		<path class="st5" d="M296.6,74.8l-0.3-1.9c-0.5-2.9-3-5-5.9-5H73.6c-2.9,0-5.4,2.1-5.9,5l-0.3,1.9c-6.6,38.7-4.9,75.3,5,108.6
			c8,26.8,21.3,51.5,39.5,73.6c30.9,37.5,65.1,53.9,66.6,54.6l3.6,1.7l3.6-1.7c1.4-0.7,35.6-17.2,66.6-54.6
			c18.2-22,31.5-46.8,39.5-73.6C301.5,150,303.2,113.5,296.6,74.8z M84.7,194.1l61.2-12.1v97.7C125,261.9,99.7,234,84.7,194.1z
			 M218,279.7v-112l71.8-14.2C280.3,215.7,245.5,256.4,218,279.7z M290.6,147.5L290.6,147.5L218,161.9l-72,14.3l-63.2,12.5
			c-2.2-6.5-4.2-13.3-5.8-20.4l69-13.7l72-14.3l74.2-14.7C292,133.2,291.5,140.5,290.6,147.5z M75.8,162.7c-5-25-5.9-53.8-0.3-86.5
			h212.9c2.6,15.4,3.8,30,3.8,43.7L75.8,162.7z"/>
		<polygon class="st0" points="146,154.6 146,154.6 146,176.2 218,161.9 218,140.3 		"/>
		<path class="st6" d="M146,154.6L146,154.6l-69,13.7c1.6,7.1,3.6,13.9,5.8,20.4l63.2-12.5l0,0V154.6L146,154.6z"/>
		<path class="st7" d="M218,140.3L218,140.3v21.6l0,0l72.6-14.4v0c0.9-7,1.4-14.3,1.6-21.9L218,140.3z"/>
		<path class="st5" d="M105.2,82.9H90.9l-9.7,71.8l9.2-1.8l1.6-12.1l14.3-2.5l2,11l8.5-1.7L105.2,82.9z M93.4,130.8l5-36.7l6.3,35
			L93.4,130.8z"/>
		<polygon class="st5" points="140.6,82.9 140.6,91.9 130.4,92 130.4,145 121.5,146.7 121.5,92.2 110.9,92.3 110.9,82.9 		"/>
		<polygon class="st5" points="167.1,128.7 167.1,137.7 144.4,142.2 144.4,82.9 153.1,82.9 153.1,131.2 		"/>
		<path class="st5" d="M191.7,82.9h-14.1l-8.7,54.4l8.9-1.7l1.6-9.9l12.3-2.1l1.7,8.9l8.3-1.6L191.7,82.9z M180.7,117.5l4.4-27.4
			l5.1,25.9L180.7,117.5z"/>
		<polygon class="st5" points="232.1,82.9 232.1,124.8 223.9,126.5 211.9,100.8 211.9,128.8 203.5,130.5 203.5,82.9 211.9,82.9 
			211.9,83 224,109.4 224,82.9 		"/>
		<polygon class="st5" points="260.1,82.9 260.1,90.2 251.9,90.3 251.9,120.9 244.5,122.4 244.5,90.4 236.1,90.5 236.1,82.9 		"/>
		<path class="st5" d="M284.5,114.5l-20.5,4.1V82.9h17.6c0.4,2.3,0.7,4.6,1,7L271.3,90v6.7l9.5-0.6l0.1,6.2l-9.7,1.4v6.2l12.9-2.3
			C284.4,109.9,284.4,112.1,284.5,114.5z"/>
		<g>
			<path class="st8" d="M198.5,213.9v8.5l-10.9,2.2v19.6l10.9-2.2v8.5l-19.3,3.8v-36.7L198.5,213.9z M173.8,213.3l13.8-2.7V202
				l-13.8,2.7v-5.5l13.8-2.7v-8.5l-22.2,4.4v42.2l8.4-1.7V213.3z"/>
			<g>
				<path class="st0" d="M170.4,268v9.2c0,0.7,0,1.1,0.1,1.3s0.2,0.3,0.4,0.5c0.2,0.1,0.5,0.2,0.9,0.2h0.3v0.3h-5.9v-0.3h0.3
					c0.5,0,0.8-0.1,1-0.2c0.2-0.1,0.3-0.3,0.4-0.5c0.1-0.2,0.1-0.6,0.1-1.4v-5.9c0-0.5,0-0.8-0.1-1c0-0.1-0.1-0.2-0.3-0.3
					c-0.1-0.1-0.3-0.1-0.5-0.1c-0.3,0-0.6,0.1-1,0.3l-0.1-0.3l4.2-1.9H170.4z"/>
				<path class="st0" d="M174,279.8v-0.2c0.9-0.2,1.7-0.5,2.3-0.9c0.6-0.4,1.1-0.9,1.5-1.5c0.4-0.6,0.6-1.3,0.8-2.1
					c-0.3,0.2-0.6,0.3-0.9,0.4c-0.2,0.1-0.5,0.1-0.8,0.1c-0.9,0-1.6-0.3-2.1-0.9c-0.6-0.6-0.9-1.5-0.9-2.5c0-0.7,0.2-1.4,0.5-2
					s0.7-1.1,1.3-1.4c0.6-0.3,1.2-0.5,1.8-0.5c0.7,0,1.3,0.2,1.9,0.6c0.6,0.4,1.1,0.9,1.4,1.6s0.5,1.5,0.5,2.4
					c0,1.2-0.3,2.3-0.9,3.4c-0.6,1.1-1.4,2-2.5,2.6C176.9,279.4,175.5,279.7,174,279.8z M178.8,274.3c0.1-0.6,0.1-1.2,0.1-1.6
					c0-1-0.1-2-0.3-2.8c-0.1-0.5-0.3-0.8-0.6-1.1c-0.1-0.1-0.3-0.2-0.5-0.2c-0.3,0-0.5,0.1-0.6,0.4c-0.2,0.3-0.3,1-0.3,1.9
					c0,1.5,0.2,2.6,0.5,3.2c0.2,0.4,0.6,0.6,1,0.6C178.1,274.6,178.4,274.5,178.8,274.3z"/>
				<path class="st0" d="M187.4,268v9.2c0,0.7,0,1.1,0.1,1.3s0.2,0.3,0.4,0.5c0.2,0.1,0.5,0.2,0.9,0.2h0.3v0.3h-5.9v-0.3h0.3
					c0.5,0,0.8-0.1,1-0.2c0.2-0.1,0.3-0.3,0.4-0.5c0.1-0.2,0.1-0.6,0.1-1.4v-5.9c0-0.5,0-0.8-0.1-1c0-0.1-0.1-0.2-0.3-0.3
					c-0.1-0.1-0.3-0.1-0.5-0.1c-0.3,0-0.6,0.1-1,0.3l-0.2-0.3l4.2-1.9H187.4z"/>
				<path class="st0" d="M198.1,268v0.2c-1,0.3-1.8,0.6-2.4,1c-0.6,0.4-1.1,0.9-1.4,1.5c-0.4,0.6-0.6,1.3-0.8,2.1
					c0.2-0.2,0.4-0.3,0.6-0.3c0.4-0.1,0.7-0.2,1.1-0.2c0.8,0,1.5,0.3,2.1,0.9c0.6,0.6,0.8,1.5,0.8,2.5c0,0.7-0.2,1.4-0.5,2
					c-0.3,0.6-0.7,1.1-1.3,1.4c-0.6,0.3-1.2,0.5-1.8,0.5c-0.7,0-1.3-0.2-1.9-0.6c-0.6-0.4-1-0.9-1.4-1.7c-0.3-0.7-0.5-1.5-0.5-2.4
					c0-1.3,0.3-2.4,0.9-3.5c0.6-1.1,1.5-2,2.6-2.6C195.3,268.4,196.6,268,198.1,268z M193.3,273.5c0,0.8-0.1,1.3-0.1,1.7
					c0,0.8,0.1,1.5,0.2,2.2s0.3,1.2,0.6,1.5c0.2,0.2,0.4,0.3,0.6,0.3c0.3,0,0.5-0.1,0.7-0.4s0.3-0.9,0.3-1.8c0-1.5-0.2-2.6-0.6-3.2
					c-0.2-0.4-0.6-0.6-1-0.6C193.9,273.3,193.6,273.4,193.3,273.5z"/>
			</g>
		</g>
	</g>
</g>
</svg>
