<svg xmlns="http://www.w3.org/2000/svg" width="228.939" height="257.559" viewBox="0 0 60.573 68.146"><path d="M0 0v-78.146c15.206 8.173 33.919 30.243 34.625 58.435-6.569-.11-13.491.815-19.871 4.55C8.57-11.541 2.99-5.753 0 0" style="fill:#231f20;fill-opacity:1;fill-rule:evenodd;stroke:none" transform="matrix(.84642 0 0 -.84642 30.266 1.002)"/><path d="M0 0v-78.146c-15.206 8.172-33.872 30.23-34.579 58.422 6.052.027 13.413.948 19.573 4.373C-8.449-11.703-3.133-6.027 0 0" style="fill:#ec1c24;fill-opacity:1;fill-rule:evenodd;stroke:none" transform="matrix(.84642 0 0 -.84642 30.268 1)"/><path d="M57.76 177.14c-1.591-1.4-3.182-2.961-5.23-4.195l.004-15.872h10.611v15.872c-2.047 1.234-3.821 2.796-5.384 4.196m-.044 6.907c2.273-2.803 5.56-5.758 9.51-7.971.428-12.623 4.076-26.923 9.49-35.186.112-.13.065-.204-.01-.296-3.665-5.824-9-11.117-13.562-14.756v27.128h-5.602l-5.012.004v-27.132c-4.548 3.626-10.34 9.12-14.044 14.93-.224.33-.158.515.005.765 5.166 7.96 9.2 21.95 9.458 34.543 3.953 2.213 7.492 5.168 9.767 7.97" style="fill:#fff;fill-opacity:1;fill-rule:evenodd;stroke:none" transform="matrix(.84642 0 0 -.84642 -18.58 165.008)"/></svg>