<svg xmlns="http://www.w3.org/2000/svg" viewBox="497.59 35.22 681.14 849.71"><metadata xmlns:fl="https://football-logos.cc/mexico/mineros-de-zacatecas">dl1_2eb296849f8971c146fde83120481ea0d78b38fab7dfe0eedfe3a468c536d630</metadata><!-- Source: https://football-logos.cc --><path fill="#fff" fill-rule="evenodd" d="M838.54 48.31a.408.404-46.236 0 0 .75-.02c4.04-10.51 12.86-12.55 23.21-13 19.27-.83 40.41 5.44 57.63 14.09q17.68 8.88 32.84 21.24a.755.752 48.902 0 0 .86.06c12.9-7.57 22.3 2.12 31.36 11.47q11.3 11.67 14.12 15.52 5.92 8.1 3.32 17.45c-.4 1.47-1.59 2.82-1.87 4.19a1.26 1.244 32.641 0 0 .23 1.02c21.56 27.71 35.47 63.37 34.66 98.67q-.21 8.85-5.74 15.67a.572.569-48.19 0 0 .04.76q24.94 24.96 35.54 58.5a.793.781 80.476 0 0 .76.55q21.67-.2 32.46-.03c7.3.11 14.32 6.52 15.84 13.67q.32 1.54.32 10.81-.08 100.17-.08 120.17a.53.522 88.465 0 0 .55.53q3.6-.17 10.17-.82c14.46-1.43 27.92 3.24 38.31 13.67q15.3 15.36 14.9 39.24-.13 7.8-.12 24.78c0 3.89-.56 7.6-2.64 10.47q-1.15 1.58-1.53 2.2a1.003.973 46.998 0 0-.02 1.01q4.2 7.59 4.21 19.32.07 43.71-.03 61.25-.07 13.04-6.07 24.56c-8.29 15.91-25.48 24.75-43.23 23.56q-9.26-.63-18.36-3.1a.716.714-76.432 0 0-.88.54q-5.16 24.28-14.28 47.96-28.3 73.46-89.89 122.36-22.25 17.66-49.93 31.08-45.35 21.97-94.94 26.5-11.36 1.04-30.5.56-47.65-1.19-91.65-19.12c-34.56-14.08-67.73-35.45-94.07-62.22q-48.67-49.45-70.3-116.68-4.55-14.14-7.42-28.99a1.028 1.02 78.583 0 0-1.21-.81q-14.13 2.92-26.09 4.74c-8.15 1.24-16.66-2.7-19.69-10.55q-.94-2.44-.94-8.4-.09-91.87 0-130.65.01-3.02-.29-5.08-.28-1.94-1.57-4.86-12.46-28.32-17.86-40.04-3-6.48-1.07-13.51c2.61-9.54 12.13-13.81 21.41-12.8q12.74 1.39 41.35 3.83a.556.553 2.822 0 0 .61-.55q.01-53.24 0-127.33c0-8.25 5.2-14.29 12.64-16.69q2.31-.74 9.32-.7 5.95.04 26.96.1a.737.731-81.383 0 0 .7-.52q10.1-33.64 35.29-58.78a.504.498-42.828 0 0 .03-.68c-4.03-4.58-5.6-9.98-5.79-16.42q-.4-13.48 2.03-25.61 8-39.98 32.9-72.62a1.062 1.04 51.416 0 0 .11-1.08q-4.71-9.89.41-19.35 1.33-2.44 7.74-9.34 1.34-1.44 11.88-12.19 7.19-7.34 11.55-8.87 7.97-2.81 15.51 1.6a.498.496 40.848 0 0 .57-.04q15.06-11.87 31.53-20.25c19.45-9.9 40.32-16 61.9-14.98 9.59.46 17.58 3.81 21.54 12.98m-16.75 5.46c-28.01-2.2-55.92 7.91-78.41 24.13q-2.04 1.48-9.73 7.26-1.42 1.07-1.46 2.42a1.348 1.33 24.513 0 0 .37.97q5.45 5.67 8.55 9.45c1.32 1.63 3.19 2.09 4.72.8 22.58-19.02 47.73-35.65 76.1-43.61a.725.724 39.393 0 0-.14-1.42m33.555.048a.723.722-39.306 0 0-.142 1.416c28.279 7.981 53.334 24.603 75.823 43.604 1.524 1.289 3.389.833 4.708-.791q3.097-3.764 8.54-9.41a1.344 1.326-24.426 0 0 .371-.967q-.038-1.347-1.452-2.416-7.66-5.775-9.692-7.254c-22.403-16.209-50.22-26.333-78.156-24.182m-16.823 77.105q26.115-.01 50.717 13.059a.895.895 35.436 0 0 1.081-.182q12.25-13.31 25.75-25.29a1.974 1.96 66.954 0 0 .65-1.63q-.26-2.99.57-5.81a.918.901 29.122 0 0-.28-.95c-18.24-15.81-38.89-28.56-62.09-36q-7.5-2.4-9.67-4.06-4.36-3.33-6.47-8.451-.098-.236-.283-.236-.186 0-.284.237-2.106 5.122-6.464 8.455-2.168 1.661-9.667 4.067c-23.194 7.457-43.835 20.222-62.064 36.045a.918.901-29.164 0 0-.279.95q.832 2.82.574 5.81a1.974 1.96-66.995 0 0 .652 1.629q13.508 11.97 25.768 25.272a.895.895-35.477 0 0 1.081.181q24.592-13.087 50.708-13.096m-98.192-18.297q-10.581-11.081-23.858-25.618a2.132 2.072 78.807 0 0-.815-.563q-2.674-1.033-4.543.857-13.511 13.659-19.207 20.306-1.506 1.75-.309 4.102a.575.487-85.303 0 0 .101.14l24.743 26.512a1.069 1.051 77.453 0 0 .372.241q1.579.602 4.332.249 1.086-.141 3.276-2.414 4.691-4.848 14.757-15.318 1.969-2.042 2.089-3.027c.21-1.658.329-4.141-.938-5.467m196.28.064c-1.26 1.32-1.14 3.79-.93 5.44q.12.98 2.08 3.01 10.02 10.41 14.69 15.23 2.18 2.26 3.26 2.4 2.74.35 4.31-.25a1.063 1.045-77.487 0 0 .37-.24l24.6-26.39a.572.485 85.269 0 0 .1-.14q1.19-2.34-.31-4.08-5.67-6.61-19.12-20.19-1.86-1.88-4.52-.85a2.121 2.061-78.841 0 0-.81.56q-13.2 14.47-23.72 25.5M660.2 221.2q.06-.06.28-.74 2.76-8.45 6.49-17.75 12.7-31.7 34.9-57.97c1.69-1.99 2.3-3.26.34-5.2q-3.94-3.91-9.73-10.02a1.526 1.518 49.967 0 0-2.01-.18q-.49.36-1.45 1.67c-14.96 20.36-25.4 42.47-29.3 66.23q-1.93 11.8-1.2 23.36a.975.97-25.205 0 0 1.68.6m357.19.43q.81-.79.85-2.4c.66-24.64-6.91-48.91-19.09-70.56q-5.35-9.5-11.89-18.25c-1.41-1.88-2.82-1.53-4.23.13q-3.6 4.25-8.84 9.25-.8.77-.4 3a1.698 1.669-72.059 0 0 .41.82q2.62 2.84 4.78 5.63 20.83 26.88 33.25 58.98 2.54 6.58 4.24 13.15a.554.55-29.571 0 0 .92.25m-101.73-40.89a.594.593-45.606 0 0 .89-.01q5.75-6.51 23.13-27.87 2.04-2.51 2.09-3.87.11-2.68-.79-4.42-1.33-2.57-8.68-9.75-2.01-1.96-5.59-1.8a1.807 1.77 22.974 0 0-1.07.42c-8.32 7.09-17.15 16.45-23.51 22.44q-2.16 2.03-5.27 5.96a.468.457-52.639 0 0 .08.66c7 5.21 12.86 11.74 18.72 18.24m-154.35-.27q6.64-8.22 14.84-15.32 1.43-1.23 2.85-2.06a.706.706 55.089 0 0 .19-1.07q-12.58-14.82-27.64-28.12a2.6 2.6 70.283 0 0-1.27-.6q-3.69-.59-6.11 1.5c-2.49 2.15-5.32 5.24-7.59 7.98a4.781 4.771-25.122 0 0-1.11 3.06v4.02a3.629 3.599 24.784 0 0 .88 2.36l24.26 28.26a.456.451 43.917 0 0 .7-.01m-6.544 99.461c12.038 25.773 33.92 43.77 61.499 50.874 22.845 5.885 48.305 2.055 68.505-9.825q26.45-15.54 38.989-44.234c10.857-24.838 9.907-51.682-1.655-76.437-12.037-25.773-33.918-43.77-61.497-50.875-22.845-5.885-48.305-2.055-68.505 9.825q-26.45 15.54-38.99 44.235c-10.857 24.837-9.906 51.682 1.654 76.437M992.46 206.61q-11.54-26.81-29.87-48.79a1.197 1.195 64.745 0 0-1.14-.41l-3 .56a2.209 2.187 13.812 0 0-1.32.79l-19.72 25.11a.642.642 69.635 0 0 .34 1.02q16.68 4.47 34.01 11.88 10.23 4.38 20.21 10.27a.344.341 3.489 0 0 .49-.43m-308.2-.47a.409.407-2.495 0 0 .57.52c8.19-4.49 16.84-8.91 26.11-12.32q16.4-6.03 29.37-9.29a.699.697-26.788 0 0 .37-1.12l-21.1-25.53a1.426 1.407 70.974 0 0-1.05-.52l-4.01-.13a1.061 1.044 21.506 0 0-.8.34q-1.1 1.18-2.79 3.33-16.38 20.73-26.67 44.72m-63.8 255.65-7.77-.78q-.28-2.39-.28-4.51-.06-58.52.06-131.38c0-4.6.53-8.24 1.3-12.34a.907.907-84.497 0 0-.89-1.08h-33.55a.53.53 17.638 0 0-.53.53l-.05 146.27-63.04-5.59a.642.642-9.594 0 0-.64.9q11.87 26.93 20.1 46.3.81 1.9.82 4.67.11 71.59-.09 139.69a.487.486 85.036 0 0 .57.48l43.22-7.96q1.15 3.88 1.91 8.13 1.17 6.52 1.6 8.18c2.61 10.07 3.84 16.56 6.83 25.64q2.25 6.83 4.07 11.95 17.25 48.62 50.55 87.29 2.98 3.46 5.82 6.33c4.47 4.51 8.69 9.5 13.03 13.17 4.78 4.04 9.13 8.46 14.93 12.91 6.15 4.7 13.62 10.75 20.67 14.96q4.96 2.97 8.72 5.56 6.48 4.45 8.78 5.54 8.9 4.2 11.83 5.68c11.66 5.83 23.62 9.96 36.3 13.9q7.17 2.23 16.1 3.89a.216.214-77.312 0 0 .25-.16l.01-.01a.21.204 15.567 0 0-.14-.24q-17.76-5.83-25.23-8.95-3.98-1.66-22.65-10.71-3.49-1.69-7.52-4.39-2.33-1.57-7.49-4.48c-4.89-2.75-11.02-6.77-16.1-11.13q-2.1-1.82-9.19-7.4c-4.92-3.88-8.43-7.88-13.07-12.4q-4.58-4.46-9.45-10.06c-10.31-11.86-20.62-25.92-28.68-40.59q-7.34-13.35-8.8-16.64-14.94-33.7-18.9-63.38-1.91-14.34-1.39-37.52l10.62-2.12q1.2.06 1.2 1.31.12 16.58.46 23.51 2.12 42.43 20.05 79.72c23.04 47.91 62.53 87.55 111.24 108.51 37.4 16.1 79.56 20.86 119.75 13.59q24.3-4.39 44.03-13.02c51.78-22.65 94.34-66.5 116.05-118.94q13.25-31.98 16.18-65.59.55-6.25.64-16.08.09-8.09.08-16.1 5.57-.98 10.1-3.32a.609.6-59.484 0 1 .3-.08q1.02-.02.73 1.12.08 12.8.01 25.18-.06 9.82-2.02 22.19-4.16 26.15-13.49 48.7-7.47 18.06-12.17 26.13-8.36 14.35-9.75 16.47-5.61 8.56-14.1 19.45c-3.39 4.34-8.14 9.12-11.55 13.32-4.86 5.98-10.05 10.21-17.77 17.56q-2.32 2.21-13.36 10.63-5.48 4.19-13.14 8.75-11.76 7-13.62 7.97-15.76 8.23-36.99 16.56a.198.193 58.537 0 0-.07.31l.33.37a.022.022 45 0 0 .03.01q12.8-3.76 24.48-8.18c6.59-2.49 12.52-5.85 17.69-7.97q6.57-2.69 12.88-6.67c7.92-4.99 15.08-8.91 22.4-14.09q15.46-10.95 27.38-21.7 15.6-14.07 28.84-31.15 29.13-37.6 43.91-82.06c2.46-7.4 4.99-14.18 6.6-21.43q3.23-14.55 6.17-29.44 12.75 2.57 25.62 4.9 6.69 1.21 11.93.96 7.76-.37 15.15-5.31c8.61-5.76 12.46-16.08 12.45-26.53q-.1-54.23-.05-55.46.34-8.51-1.35-13.82-3.21-10.09-11.92-16.87a.168.167-37.24 0 1 .04-.29l12.9-5.04a.57.564 79.482 0 0 .36-.53q-.02-13.12-.01-26.97.01-8.01-1.68-12.88c-4.88-14.03-17.66-23.07-32.55-21.65q-14.9 1.42-29.84 2.59l.03-146.02a.86.86-.088 0 0-.86-.86h-34.24a.52.514-5.86 0 0-.51.62c.99 4.71 1.69 7.78 1.72 12.64q.23 48.84.08 109.25c-.01 5.72.32 16.17-.13 24.29q-.1 1.94.54 8.71-.18.4-.47.55a.406.391 42.225 0 1-.33.01l-10.81-4.82q-.01-65.23.03-130.36.01-13.56-1.05-20.12c-5.23-32.16-24.48-58.93-50.25-78.38-21.81-16.46-47.39-27.12-73.61-33.08a.414.409 85.348 0 0-.47.56c2.31 5.71 4.82 11.89 6.16 18.3 9.34 44.53-11.67 87.94-51.83 108.43q-14.33 7.32-29.35 9.22-24.56 3.12-46.02-4.44c-27.98-9.85-48.84-30.3-59.26-58.32q-9.06-24.38-5.4-48.77c1.35-8.93 3.86-16.31 7.32-24.28a.373.37 5.76 0 0-.42-.51c-54.46 11.76-112.17 48.3-122.88 107.61q-1.46 8.11-1.28 25.44.1 9.98.11 116 0 6.48-.14 10.7a.901.89-88.687 0 1-.9.87z" data-source="https://football-logos.cc"></path><path fill="#980130" fill-rule="evenodd" d="M821.79 53.77a.725.724 39.393 0 1 .14 1.42c-28.37 7.96-53.52 24.59-76.1 43.61-1.53 1.29-3.4.83-4.72-.8q-3.1-3.78-8.55-9.45a1.348 1.33 24.513 0 1-.37-.97q.04-1.35 1.46-2.42 7.69-5.78 9.73-7.26c22.49-16.22 50.4-26.33 78.41-24.13M855.345 53.818c27.936-2.151 55.753 7.973 78.156 24.182q2.032 1.479 9.692 7.254 1.414 1.069 1.452 2.416a1.344 1.326-24.426 0 1-.371.967q-5.443 5.646-8.54 9.41c-1.319 1.624-3.184 2.08-4.708.791-22.489-19.001-47.544-35.623-75.823-43.604a.723.722-39.306 0 1 .142-1.416M740.33 112.626c1.267 1.326 1.148 3.809.938 5.467q-.12.985-2.089 3.027-10.066 10.47-14.757 15.318-2.19 2.273-3.276 2.414-2.753.353-4.332-.249a1.069 1.051 77.453 0 1-.372-.241l-24.743-26.512a.575.487-85.303 0 1-.101-.14q-1.197-2.352.309-4.102 5.696-6.647 19.207-20.306 1.869-1.89 4.543-.857a2.132 2.072 78.807 0 1 .815.563q13.277 14.537 23.858 25.618M935.68 118.13c-.21-1.65-.33-4.12.93-5.44q10.52-11.03 23.72-25.5a2.121 2.061-78.841 0 1 .81-.56q2.66-1.03 4.52.85 13.45 13.58 19.12 20.19 1.5 1.74.31 4.08a.572.485 85.269 0 1-.1.14l-24.6 26.39a1.063 1.045-77.487 0 1-.37.24q-1.57.6-4.31.25-1.08-.14-3.26-2.4-4.67-4.82-14.69-15.23-1.96-2.03-2.08-3.01M660.2 221.2a.975.97-25.205 0 1-1.68-.6q-.73-11.56 1.2-23.36c3.9-23.76 14.34-45.87 29.3-66.23q.96-1.31 1.45-1.67a1.526 1.518 49.967 0 1 2.01.18q5.79 6.11 9.73 10.02c1.96 1.94 1.35 3.21-.34 5.2q-22.2 26.27-34.9 57.97-3.73 9.3-6.49 17.75-.22.68-.28.74M1017.39 221.63a.554.55-29.571 0 1-.92-.25q-1.7-6.57-4.24-13.15-12.42-32.1-33.25-58.98-2.16-2.79-4.78-5.63a1.698 1.669-72.059 0 1-.41-.82q-.4-2.23.4-3 5.24-5 8.84-9.25c1.41-1.66 2.82-2.01 4.23-.13q6.54 8.75 11.89 18.25c12.18 21.65 19.75 45.92 19.09 70.56q-.04 1.61-.85 2.4M915.66 180.74c-5.86-6.5-11.72-13.03-18.72-18.24a.468.457-52.639 0 1-.08-.66q3.11-3.93 5.27-5.96c6.36-5.99 15.19-15.35 23.51-22.44a1.807 1.77 22.974 0 1 1.07-.42q3.58-.16 5.59 1.8 7.35 7.18 8.68 9.75.9 1.74.79 4.42-.05 1.36-2.09 3.87-17.38 21.36-23.13 27.87a.594.593-45.606 0 1-.89.01M761.31 180.47a.456.451 43.917 0 1-.7.01l-24.26-28.26a3.629 3.599 24.784 0 1-.88-2.36v-4.02a4.781 4.771-25.122 0 1 1.11-3.06c2.27-2.74 5.1-5.83 7.59-7.98q2.42-2.09 6.11-1.5a2.6 2.6 70.283 0 1 1.27.6q15.06 13.3 27.64 28.12a.706.706 55.089 0 1-.19 1.07q-1.42.83-2.85 2.06-8.2 7.1-14.84 15.32"></path><path fill="#1b1b1b" fill-rule="evenodd" d="M922.104 200.309c11.562 24.755 12.512 51.599 1.655 76.437Q911.22 305.44 884.77 320.98c-20.2 11.88-45.66 15.71-68.505 9.825-27.579-7.104-49.461-25.101-61.499-50.874-11.56-24.755-12.511-51.6-1.654-76.437q12.54-28.695 38.99-44.235c20.2-11.88 45.66-15.71 68.505-9.825 27.579 7.105 49.46 25.102 61.497 50.875M886.19 164.64q-17.6-12.22-38.67-13.85-14.69-1.14-27.38 1.36a.497.496-31.652 0 0-.21.88l.43.32a.168.09 61.845 0 0 .06.04q7.6 2.85 13.33 6.93a4.446 4.405-27.039 0 0 2.57.82q14.65-.04 28.5 4.52 2.92.96 5.91 1.98a2.227 2.153-39.843 0 0 1.09.08l14.28-2.67a.228.226-32.822 0 0 .09-.41M814 184.74l12.92 24.46a1.609 1.6 75.553 0 0 1.43.85q18.33-.25 36.13 4.02a1.152 1.139 28.301 0 0 1.09-.32q8.98-9.34 11.74-12.42 2.51-2.79 3.73-5.07a1.348 1.344-39.48 0 0 .1-1.02q-3.77-12.35-10.8-23.77a2.51 2.49-6.272 0 0-1.32-1.05q-13.37-4.62-27.49-6-3.7-.36-7.07.09a1.933 1.835 20.933 0 0-.89.37q-10.31 7.95-19.41 18.48a1.241 1.229-38.657 0 0-.16 1.38m-64.95 52.34a.359.357-23.144 0 0 .63.25q4.77-5.45 10.32-9.71a2.215 2.174 81.657 0 0 .73-1q.43-1.21 1.36-5.05c2.88-11.88 9.13-23.01 16.9-33.86a1.148 1.098-29.109 0 0 .21-.68l-.11-13.25a.246.244-21.139 0 0-.41-.18c-12.14 11.06-21.9 26.13-26.16 41.85q-2.82 10.43-3.47 21.63m61.06-51.87q-13.7-.49-27 3.2a1.756 1.734 10.37 0 0-.91.62q-13.09 17.2-18.01 38.22a2.421 2.399-53.11 0 0 .24 1.74q6.24 11.19 13.62 19.95a1.385 1.379 64.865 0 0 1.32.48l28.76-5.37a.709.702-86.311 0 0 .53-.47q5.3-16.72 15.37-31.72a.667.644-42.576 0 0 .04-.67l-13.62-25.77a.392.379 75.723 0 0-.34-.21m116.37 69.66q2.48-15.59-.41-31.75c-2.06-11.51-6.68-20.89-12.23-30.84q-.32-.59-.69-.87a.338.336-73.897 0 0-.54.3q.67 6.81-.96 13.33a2.127 2.11 37.11 0 0 .23 1.61q6.92 11.74 9.24 25.57c.81 4.84.56 10.24.54 15.26a1.94 1.938-60.037 0 0 .26.97l3.79 6.56a.416.414 34.522 0 0 .77-.14m-27.25 11.34a1.044 1.036 39.381 0 0 .95-.09q10.32-6.7 17.26-16.53a2.56 2.453-19.33 0 0 .35-.69q.42-1.23.47-4.12.18-10.61-1.89-19.3c-1.27-5.37-5.03-12.88-7.54-17.68a3.473 3.416.887 0 0-1.39-1.41q-10.45-5.69-22.42-8.1a.509.506-62.903 0 0-.46.15l-16.76 17.97a1.72 1.697-30.743 0 0-.41 1.57q4.2 16.94 4.7 34.35a.75.734-76.855 0 0 .37.61q13.86 8.05 26.77 13.27m-63.36 6.31a.906.89-67.292 0 0-.34-.85c-7.9-6.12-18.1-15.29-25.61-23.57a1.731 1.716-26.215 0 0-1.58-.53l-28.37 5.3a1.416 1.401 4.317 0 0-1.07.91q-4.09 11.58-6.57 23.16-.85 4 1.58 7.34 4.69 6.45 9.49 11.61 7.72 8.3 18.78 13.59a3.741 3.728-36.479 0 0 2.16.32q11.3-1.66 22.26-6.83c2.92-1.39 3.47-1.09 4.29-4.32q2.74-10.83 4.98-26.13m22.67 44.39q11.86-2.53 22.18-9c3.64-2.28 7.66-6.24 11.09-8.85q1.94-1.49 3.08-4.64 4.33-11.97 3.18-24.18a.816.805-79.691 0 0-.45-.66l-26.99-13.29a1.425 1.421 40.893 0 0-1.42.1q-13.57 9.16-29.12 15.39a1.121 1.093 84.069 0 0-.68.86q-2.5 16.23-6.06 30.22a.638.617-63.322 0 0 .2.64q10.88 9.09 23.59 13.33a2.683 2.671 48.142 0 0 1.4.08m-56 5.33a.045.043 3.96 0 0 .06-.05l-1.68-9a.622.576 9.692 0 0-.33-.43q-19.47-9.6-31.05-28.72a1.357 1.298 86.09 0 0-.57-.52l-10.39-5.12a.406.403-89.815 0 0-.54.54q14.14 29.44 44.5 43.3m49.9 6.34q29.78-4.84 51.08-27.27a.416.415 24.027 0 0-.27-.7l-6.17-.49a2.265 2.224 25.229 0 0-1.69.59q-6.53 6.07-14.44 11.06c-6.89 4.35-13.11 6.35-20.78 8.24a3.079 3.07-80.241 0 0-1.82 1.29q-2.41 3.72-6.18 6.66a.349.349-68.55 0 0 .27.62"></path><path fill="#fff" fill-rule="evenodd" d="M886.19 164.64a.228.226-32.822 0 1-.09.41l-14.28 2.67a2.227 2.153-39.843 0 1-1.09-.08q-2.99-1.02-5.91-1.98-13.85-4.56-28.5-4.52a4.446 4.405-27.039 0 1-2.57-.82q-5.73-4.08-13.33-6.93a.168.09 61.845 0 1-.06-.04l-.43-.32a.497.496-31.652 0 1 .21-.88q12.69-2.5 27.38-1.36 21.07 1.63 38.67 13.85M814 184.74a1.241 1.229-38.657 0 1 .16-1.38q9.1-10.53 19.41-18.48a1.933 1.835 20.933 0 1 .89-.37q3.37-.45 7.07-.09 14.12 1.38 27.49 6a2.51 2.49-6.272 0 1 1.32 1.05q7.03 11.42 10.8 23.77a1.348 1.344-39.48 0 1-.1 1.02q-1.22 2.28-3.73 5.07-2.76 3.08-11.74 12.42a1.152 1.139 28.301 0 1-1.09.32q-17.8-4.27-36.13-4.02a1.609 1.6 75.553 0 1-1.43-.85zM749.05 237.08q.65-11.2 3.47-21.63c4.26-15.72 14.02-30.79 26.16-41.85a.246.244-21.139 0 1 .41.18l.11 13.25a1.148 1.098-29.109 0 1-.21.68c-7.77 10.85-14.02 21.98-16.9 33.86q-.93 3.84-1.36 5.05a2.215 2.174 81.657 0 1-.73 1q-5.55 4.26-10.32 9.71a.359.357-23.144 0 1-.63-.25"></path><path fill="#fff" fill-rule="evenodd" d="M810.11 185.21a.392.379 75.723 0 1 .34.21l13.62 25.77a.667.644-42.576 0 1-.04.67q-10.07 15-15.37 31.72a.709.702-86.311 0 1-.53.47l-28.76 5.37a1.385 1.379 64.865 0 1-1.32-.48q-7.38-8.76-13.62-19.95a2.421 2.399-53.11 0 1-.24-1.74q4.92-21.02 18.01-38.22a1.756 1.734 10.37 0 1 .91-.62q13.3-3.69 27-3.2M926.48 254.87a.416.414 34.522 0 1-.77.14l-3.79-6.56a1.94 1.938-60.037 0 1-.26-.97c.02-5.02.27-10.42-.54-15.26q-2.32-13.83-9.24-25.57a2.127 2.11 37.11 0 1-.23-1.61q1.63-6.52.96-13.33a.338.336-73.897 0 1 .54-.3q.37.28.69.87c5.55 9.95 10.17 19.33 12.23 30.84q2.89 16.16.41 31.75"></path><path fill="#fff" fill-rule="evenodd" d="M899.23 266.21q-12.91-5.22-26.77-13.27a.75.734-76.855 0 1-.37-.61q-.5-17.41-4.7-34.35a1.72 1.697-30.743 0 1 .41-1.57l16.76-17.97a.509.506-62.903 0 1 .46-.15q11.97 2.41 22.42 8.1a3.473 3.416.887 0 1 1.39 1.41c2.51 4.8 6.27 12.31 7.54 17.68q2.07 8.69 1.89 19.3-.05 2.89-.47 4.12a2.56 2.453-19.33 0 1-.35.69q-6.94 9.83-17.26 16.53a1.044 1.036 39.381 0 1-.95.09"></path><path fill="#980130" fill-rule="evenodd" d="M1052.67 462.95q-8.79-.43-13.86-.04-19.68 1.51-39.57 2.84-10.68.72-18.59 5.69-3.14 1.98-5.18 4.41a.861.86-51.782 0 1-1.17.14c-5.13-3.77-8.27-6.77-14.38-7.26-10.55-.84-16.5-1.5-25.05-1.34-11.47.2-26.62.51-41.15.43q-23.14-.12-26.67-.02c-7.4.19-15.04-.51-22.41-.09-9.96.56-18.81-.1-29.29.32q-3.49.15-12.49-.05-18.53-.41-23.74-.73-4.59-.27-7.75-.17c-7.51.25-11.91.43-19.3-.11q-9.37-.69-18.06-.88c-6.06-.13-11.18-1.29-17.5-.72l-8.55.77a3.164 2.675-2.056 0 1-2.89-2.27c-.43-2.61-2.62-3.07-5.03-2.4q-21.61 6.03-25.67 7.75-9.26 3.93-11.68 4.67a.786.785 81.299 0 1-1.02-.75v-7.48a.512.511 1.792 0 0-.48-.51c-10.99-.67-27.15-1.44-40.73-3.36l2.97.03a.901.89-88.687 0 0 .9-.87q.14-4.22.14-10.7-.01-106.02-.11-116-.18-17.33 1.28-25.44c10.71-59.31 68.42-95.85 122.88-107.61a.373.37 5.76 0 1 .42.51c-3.46 7.97-5.97 15.35-7.32 24.28q-3.66 24.39 5.4 48.77c10.42 28.02 31.28 48.47 59.26 58.32q21.46 7.56 46.02 4.44 15.02-1.9 29.35-9.22c40.16-20.49 61.17-63.9 51.83-108.43-1.34-6.41-3.85-12.59-6.16-18.3a.414.409 85.348 0 1 .47-.56c26.22 5.96 51.8 16.62 73.61 33.08 25.77 19.45 45.02 46.22 50.25 78.38q1.06 6.56 1.05 20.12-.04 65.13-.03 130.36m-339.258-50.223c.025 15.731 12.267 20.909 25.745 21.465 13.243.548 33.883.658 35.613-16.872a.446.444-87.701 0 0-.45-.49l-13.28.11a1.079 1.066 7.617 0 0-1.02.77c-2.24 7.52-16.62 6.84-22.197 5.804-6.069-1.123-9.649-4.688-9.659-10.811-.01-6.122 3.559-9.699 9.624-10.841 5.574-1.054 19.952-1.779 22.216 5.734a1.079 1.066-7.799 0 0 1.022.766l13.281.068a.446.444 87.52 0 0 .448-.491c-1.785-17.524-22.425-17.349-35.666-16.76-13.476.6-25.702 5.816-25.677 21.548m65.716-.125c-.1 19.1 16.964 21.764 31.958 21.842 14.994.079 32.085-2.405 32.186-21.505s-16.964-21.763-31.958-21.842-32.086 2.406-32.186 21.505m83.072 7.708a.5.5.562 0 1 .51-.5q14.07.39 26.27-.12c10.47-.44 16.09-8.12 13.33-18.38-1.54-5.71-7.85-9.03-12.79-9.17q-16.8-.45-40.06-.25a.67.67-.434 0 0-.66.67v40.6a.69.69-45 0 0 .69.69h12.07a.64.63 0 0 0 .64-.63zm69.045 5.744q6.286 0 12.948.127a1.12 1.12-13.455 0 1 .977.599l3.49 6.61a1.085 1.072-13.517 0 0 .96.58h13.48a.349.347-13.872 0 0 .31-.51l-21.61-40.91a1.234 1.23-13.504 0 0-1.058-.646q-2.775-.054-9.501-.053-6.725 0-9.5.055a1.234 1.23 13.491 0 0-1.058.646l-21.601 40.915a.349.347 13.859 0 0 .31.51l13.48-.003a1.085 1.072 13.504 0 0 .96-.58l3.489-6.611a1.12 1.12 13.442 0 1 .977-.599q6.661-.129 12.947-.13"></path><path fill="#fff" fill-rule="evenodd" d="M835.87 272.52q-2.24 15.3-4.98 26.13c-.82 3.23-1.37 2.93-4.29 4.32q-10.96 5.17-22.26 6.83a3.741 3.728-36.479 0 1-2.16-.32q-11.06-5.29-18.78-13.59-4.8-5.16-9.49-11.61-2.43-3.34-1.58-7.34 2.48-11.58 6.57-23.16a1.416 1.401 4.317 0 1 1.07-.91l28.37-5.3a1.731 1.716-26.215 0 1 1.58.53c7.51 8.28 17.71 17.45 25.61 23.57a.906.89-67.292 0 1 .34.85M857.14 316.83q-12.71-4.24-23.59-13.33a.638.617-63.322 0 1-.2-.64q3.56-13.99 6.06-30.22a1.121 1.093 84.069 0 1 .68-.86q15.55-6.23 29.12-15.39a1.425 1.421 40.893 0 1 1.42-.1l26.99 13.29a.816.805-79.691 0 1 .45.66q1.15 12.21-3.18 24.18-1.14 3.15-3.08 4.64c-3.43 2.61-7.45 6.57-11.09 8.85q-10.32 6.47-22.18 9a2.683 2.671 48.142 0 1-1.4-.08"></path><path fill="#fff" fill-rule="evenodd" d="M802.54 322.24q-30.36-13.86-44.5-43.3a.406.403-89.815 0 1 .54-.54l10.39 5.12a1.357 1.298 86.09 0 1 .57.52q11.58 19.12 31.05 28.72a.622.576 9.692 0 1 .33.43l1.68 9a.045.043 3.96 0 1-.06.05M852.44 328.58a.349.349-68.55 0 1-.27-.62q3.77-2.94 6.18-6.66a3.079 3.07-80.241 0 1 1.82-1.29c7.67-1.89 13.89-3.89 20.78-8.24q7.91-4.99 14.44-11.06a2.265 2.224 25.229 0 1 1.69-.59l6.17.49a.416.415 24.027 0 1 .27.7q-21.3 22.43-51.08 27.27"></path><path fill="#747373" fill-rule="evenodd" d="M612.69 461.01q-2.41-.6-3.55 1.37-3.73 6.47-8.7 14.53a.676.672 45.786 0 1-1.16-.02l-9.62-16.65a1.634 1.63-12.198 0 0-1.26-.81l-9.65-.93.05-146.27a.53.53 32.831 0 1 .53-.53h33.55a.907.907-84.497 0 1 .89 1.08c-.77 4.1-1.3 7.74-1.3 12.34q-.12 72.86-.06 131.38 0 2.12.28 4.51M1097.65 458.58q-13.09 1.11-16.78 1.54-8.89 1.03-15.57 6.94-.33.29-1.02.15-.64-6.77-.54-8.71c.45-8.12.12-18.57.13-24.29q.15-60.41-.08-109.25c-.03-4.86-.73-7.93-1.72-12.64a.52.514-5.86 0 1 .51-.62h34.24a.86.86.088 0 1 .86.86z"></path><path fill="#fff" fill-rule="evenodd" d="M728.164 412.703c.01 6.123 3.59 9.688 9.659 10.811 5.577 1.036 19.957 1.716 22.197-5.804a1.079 1.066 7.617 0 1 1.02-.77l13.28-.11a.446.444-87.701 0 1 .45.49c-1.73 17.53-22.37 17.42-35.613 16.872-13.478-.556-25.72-5.734-25.745-21.465s12.201-20.948 25.677-21.548c13.241-.589 33.881-.764 35.666 16.76a.446.444 87.52 0 1-.448.491l-13.281-.068a1.079 1.066-7.799 0 1-1.022-.766c-2.264-7.513-16.642-6.788-22.216-5.734-6.065 1.142-9.634 4.719-9.624 10.841M811.314 391.097c14.994.079 32.058 2.742 31.958 21.842s-17.192 21.584-32.186 21.505c-14.994-.078-32.058-2.742-31.958-21.842s17.192-21.584 32.186-21.505m-17.817 21.777c.033 10.249 9.581 11.407 17.648 11.38s17.606-1.246 17.573-11.495c-.034-10.25-9.582-11.407-17.648-11.381s-17.607 1.246-17.573 11.496M862.2 420.31v12.91a.64.63 0 0 1-.64.63h-12.07a.69.69-45 0 1-.69-.69v-40.6a.67.67-.434 0 1 .66-.67q23.26-.2 40.06.25c4.94.14 11.25 3.46 12.79 9.17 2.76 10.26-2.86 17.94-13.33 18.38q-12.2.51-26.27.12a.5.5.562 0 0-.51.5m.003-18.427.014 8.34a.47.47 66.271 0 0 .471.47l20.64-.036a5.67 4.29-.1 0 0 5.663-4.3l-.002-.7a5.67 4.29-.1 0 0-5.677-4.28l-20.64.036a.47.47 4.582 0 0-.469.47M931.241 391.851q6.726-.001 9.501.053a1.234 1.23-13.504 0 1 1.058.646l21.61 40.91a.349.347-13.872 0 1-.31.51h-13.48a1.085 1.072-13.517 0 1-.96-.58l-3.49-6.61a1.12 1.12-13.455 0 0-.977-.599q-6.662-.127-12.948-.127-6.286.001-12.947.13a1.12 1.12 13.442 0 0-.977.599l-3.489 6.611a1.085 1.072 13.504 0 1-.96.58l-13.48.003a.349.347 13.859 0 1-.31-.51l21.601-40.915a1.234 1.23 13.491 0 1 1.058-.646q2.775-.055 9.5-.055m-.243 25.041q5.134-.014 8.321.068a.551.55 75.967 0 0 .491-.82q-1.15-2.04-6.72-13.831c-.485-1.028-1.061-1.222-2.135-1.219s-1.649.2-2.129 1.23q-5.506 11.821-6.645 13.868a.551.55-76.277 0 0 .496.817q3.186-.099 8.321-.113"></path><path fill="#980130" fill-rule="evenodd" d="M930.955 401.09c1.074-.003 1.65.191 2.135 1.219q5.57 11.791 6.72 13.831a.551.55 75.967 0 1-.491.82q-3.187-.082-8.321-.068t-8.321.113a.551.55-76.277 0 1-.496-.817q1.139-2.047 6.645-13.868c.48-1.03 1.055-1.227 2.129-1.23M862.203 401.883a.47.47 36.135 0 1 .469-.47l20.64-.036a5.67 4.29-.1 0 1 5.677 4.28l.002.7a5.67 4.29-.1 0 1-5.663 4.3l-20.64.036a.47.47-58.873 0 1-.471-.47zM811.07 401.378c8.066-.026 17.614 1.131 17.648 11.381s-9.507 11.469-17.573 11.495c-8.067.027-17.615-1.131-17.648-11.38s9.507-11.47 17.573-11.496"></path><path fill="#700122" fill-rule="evenodd" d="m578.75 458.5 9.65.93a1.634 1.63-12.198 0 1 1.26.81l9.62 16.65a.676.672 45.786 0 0 1.16.02q4.97-8.06 8.7-14.53 1.14-1.97 3.55-1.37l7.77.78c13.58 1.92 29.74 2.69 40.73 3.36a.512.511 1.792 0 1 .48.51v7.48a.786.785 81.299 0 0 1.02.75q2.42-.74 11.68-4.67 4.06-1.72 25.67-7.75c2.41-.67 4.6-.21 5.03 2.4a3.164 2.675-2.056 0 0 2.89 2.27l8.55-.77c6.32-.57 11.44.59 17.5.72q8.69.19 18.06.88c7.39.54 11.79.36 19.3.11q3.16-.1 7.75.17 5.21.32 23.74.73 9 .2 12.49.05c10.48-.42 19.33.24 29.29-.32 7.37-.42 15.01.28 22.41.09q3.53-.1 26.67.02c14.53.08 29.68-.23 41.15-.43 8.55-.16 14.5.5 25.05 1.34 6.11.49 9.25 3.49 14.38 7.26a.861.86-51.782 0 0 1.17-.14q2.04-2.43 5.18-4.41 7.91-4.97 18.59-5.69 19.89-1.33 39.57-2.84 5.07-.39 13.86.04l10.81 4.82a.406.391 42.225 0 0 .33-.01q.29-.15.47-.55.69.14 1.02-.15 6.68-5.91 15.57-6.94 3.69-.43 16.78-1.54 14.94-1.17 29.84-2.59c14.89-1.42 27.67 7.62 32.55 21.65q1.69 4.87 1.68 12.88-.01 13.85.01 26.97a.57.564 79.482 0 1-.36.53l-12.9 5.04a.168.167-37.24 0 0-.04.29q8.71 6.78 11.92 16.87 1.69 5.31 1.35 13.82-.05 1.23.05 55.46c.01 10.45-3.84 20.77-12.45 26.53q-7.39 4.94-15.15 5.31-5.24.25-11.93-.96-12.87-2.33-25.62-4.9-10.71-1.73-21.18-4.11-4.1-.93-6.25-2.79-2.3-1.99-5.26-4.01.29-1.14-.73-1.12a.609.6-59.484 0 0-.3.08q-4.53 2.34-10.1 3.32l-11.15.13a8.112 7.921 52.637 0 1-2.53-.37c-7.27-2.27-16.29-2.17-21.75-2.47-5.68-.31-10.73-2.25-16.28-2.33q-4.52-.07-10.6-.6-2.43-.21-28.83-3.16c-10.15-1.14-19.79-.54-30.12-1.93q-7.16-.96-14.23-.9-14.42.12-37.04-.53-3.79-.11-11.34-.41c-15.21-.6-29.14.84-41.45.14q-4.82-.27-11.13.17c-11.82.81-27.47.19-38.04 1.04-9.25.74-16.41.75-24.54 1.13-20.38.95-29.59 1.23-45.05 3.2q-7.54.97-14.61 1.22-13.56.48-28.61 3.85c-2.67.59-6.32.42-9.07.77q-9.42 1.21-19.62 1.45-5.03.11-13.69 2.69l-10.62 2.12-7.54 1.02a1.068 1.06 86.232 0 1-1.2-1.06v-61.94a.56.56-1.457 0 0-.59-.56l-7.89.4a.691.681 88.698 0 0-.65.69v63.11a.953.952-4.618 0 1-.8.94l-14.12 2.33-43.22 7.96a.487.486 85.036 0 1-.57-.48q.2-68.1.09-139.69-.01-2.77-.82-4.67-8.23-19.37-20.1-46.3a.642.642-9.594 0 1 .64-.9zm-21.36 39.79q-2.95 1.93-2.83 3.68.16 2.42.24 4.86.08 2.31-.24 4.83-.41 3.27-.44 7.81a.211.2-1.506 0 1-.2.2.21.21-57.124 0 1-.22-.2c-.09-1.11-.08-2.2-.08-3.33-.05 3.19-.05 6.38-.05 9.57l.07 2.31-.41 96.74a.706.703-4.746 0 0 .83.7l22.82-4.26a1.059 1.052 84.762 0 0 .86-1.04v-96.39a.435.433-80.101 0 1 .58-.41q.62.23.99.83 8.51 13.6 16.45 27.55a1.004.988 74.711 0 0 .86.5h4.82a1.264 1.253-74.046 0 0 1.07-.6l17.3-28.34a.747.745-38.982 0 1 1.34.14q.4 1.12.4 2.31-.03 59.14-.22 88.31a.535.532 85.827 0 0 .61.53l22.63-3.16a.736.731 86.465 0 0 .64-.73V478.38a.684.671 2.312 0 0-.63-.67l-23.97-1.89a1.13 1.13 17.754 0 0-1.05.54l-19.28 31.6a1.015 1.015-43.672 0 1-1.75-.04L579.65 474a1.351 1.329 77.467 0 0-1.05-.68l-35.96-2.83a.599.596 58.356 0 0-.27 1.15q2.25.92 2.95 1.49a7.646 3.432 36.737 0 1 .81.7q.9.82 4.42 8.08 5.01 10.31 6.84 16.38m513.39 72.67q.38 15.02.07 27.55-.18 7.3 3.6 11.72c2.18 2.56 5.28 6.11 8.23 6.62q37.61 6.54 42.41 7.39 7.95 1.42 11.3.56c8.29-2.14 9.95-9.21 9.8-17.58q-.47-25.24-.06-59.69a5.88 5.571-53.76 0 0-.2-1.58c-1.86-6.8-7.69-13.86-15.44-13.96q-16.78-.2-34.63-.84a1.47 1.47 1.009 0 1-1.42-1.47v-29.52a.5.49-90 0 1 .49-.5l25.13-.21a1.46 1.46-.195 0 1 1.47 1.46v15.86a.394.392 79.73 0 0 .53.37l23.43-9.16a1.035 1.029 79.951 0 0 .66-.95q.06-8.58-.05-20.06-.06-6.26-4.75-11.31c-4.36-4.69-9.05-4.85-15.04-4.3q-18.74 1.7-43.84 3.76a4.113 3.964 28.958 0 0-1.42.38q-6.19 2.94-9.21 8.81a3.674 3.631-26.226 0 0-.35 1.01q-.46 2.69-.46 5.68-.01 24.06-.09 49.99-.01 5.95 4.37 10.2 3.86 3.73 7.5 4.06 10.01.91 37.52 3.24a1.466 1.461-87.431 0 1 1.33 1.46v36.41a.908.908-86.132 0 1-1.03.9l-25.41-3.64a.786.777 4.292 0 1-.67-.77v-9.13a1.167 1.144-76.608 0 0-.62-1.03l-22.8-11.95a.241.237 12.412 0 0-.35.22m-74 34.19q20.6 2.43 46.72 6.08c6.11.86 11.13.18 14.42-5.22q1.5-2.46 1.46-9.28-.12-20.27-.04-106.57c.01-6.05-3.13-9.87-8.59-12.24q-2.78-1.21-8.13-.74-9.58.83-40.94 2.57-5.96.33-8.73 1.63c-4.85 2.28-8.24 6.63-8.24 12.37l-.08 91.07q-.01 8.35 1.37 11.2 2.94 6.11 9.98 8.93a2.936 2.71 56.749 0 0 .8.2m-308.012 1.059a.77.77 7.609 0 0 .682-.765V480.367a.77.77-33.144 0 0-1.05-.717l-22.08 8.619a.77.77-6.053 0 0-.49.717v119a.77.77-57.344 0 0 .858.765zm46.312-4.389V540.9a.261.256 5.579 0 1 .31-.25q.98.21 2.14 2.82 17.3 38.97 25.07 56.05a1.314 1.311-13.711 0 0 1.27.77l21.91-1.1a.712.711-1.711 0 0 .67-.71V482.42a.28.28 1.061 0 0-.27-.28l-22.89-.74a.65.641-89.145 0 0-.66.65v55.76a.362.361-76.091 0 1-.53.32q-.47-.24-.74-.74-1.47-2.67-3.72-7.52-12.69-27.29-22.23-48.46a.87.864-10.944 0 0-.76-.51l-33.69-1.08a.266.265 78.515 0 0-.25.38l9.24 19.51a5.047 5.004 32.744 0 1 .47 2.12v101.88a.511.504 87.439 0 0 .55.51l23.87-2.14a.262.261-2.39 0 0 .24-.26m179.93-56.45c1.14-.2 1.97.44 2.54 1.49q21.32 38.43 29.75 53.98a1.002.992-12.206 0 0 .8.51l25.13 1.98a.4.399-11.196 0 0 .39-.58l-29.44-55.72a.415.414 76.346 0 1 .37-.61q4.55.07 8.17-.16c5.87-.38 12.11-3.94 12.1-10.5q-.05-39.88-.02-41.51c.11-6.34-4.32-11.38-10.24-12.82q-1.05-.25-8.13-.15-59.37.84-66.99.96a.365.362 75.078 0 0-.31.54l11.04 19.84a.805.758 31.973 0 1 .1.38v95.7a.58.58 44.981 0 0 .58.58h22.92a.58.57-90 0 0 .57-.58v-52.54a.813.801-5.158 0 1 .67-.79m-103.38 49.9.07 1.62-.51-.24a.857.847 43.894 0 0-.77.01q-.57.3-1.16.11a.228.217 9.094 0 1-.16-.21v-34.8a2.747 2.718 31.065 0 0-.33-1.3l-5.64-10.45a.206.197-27.201 0 0-.27-.08.139.13-25.612 0 0-.07.18l4.74 9.96a3.661 3.642 32.318 0 1 .36 1.58v36.51a.54.54 45 0 0 .54.54h57.82a.97.97 45 0 0 .97-.97V578.6a.36.35 90 0 0-.35-.36h-34.73a.38.38-45 0 1-.38-.38V561.4a.42.42 45 0 1 .42-.42h23.6a.7.7 0 0 0 .7-.7v-18.21a.56.56 45 0 0-.56-.56h-23.67a.49.49 45 0 1-.49-.49v-37.69a.52.51 0 0 1 .52-.51h35.08a.53.53 45 0 0 .53-.53v-19.22a.68.67 90 0 0-.67-.68h-59.01a.36.35 90 0 0-.35.36v57.88a1.12 1.12 35.537 0 1-1.12 1.12h-6.7a.574.573-28.085 0 0-.32 1.05c3.47 2.31 5.69 4.66 7.73 8.76q1.75 3.5 3.71 6.31a2.509 2.471 28.105 0 1 .44 1.41q-.01 14.35-.09 32.93c-.01 1.22-.38 2.08-.51 3.12a.264.261 65.226 0 0 .48.18z"></path><path fill="#fff" fill-rule="evenodd" d="M553.64 528.02q.18-.02.35-.03l.34 93.83a.96.958-34.222 0 0 1.85.35q.91-2.27.91-5.42-.01-59.02.3-118.46-1.83-6.07-6.84-16.38-3.52-7.26-4.42-8.08a7.646 3.432 36.737 0 0-.81-.7q-.7-.57-2.95-1.49a.599.596 58.356 0 1 .27-1.15l35.96 2.83a1.351 1.329 77.467 0 1 1.05.68l18.88 33.92a1.015 1.015-43.672 0 0 1.75.04l19.28-31.6a1.13 1.13 17.754 0 1 1.05-.54l23.97 1.89a.684.671 2.312 0 1 .63.67V610.7a.736.731 86.465 0 1-.64.73l-22.63 3.16a.535.532 85.827 0 1-.61-.53q.19-29.17.22-88.31 0-1.19-.4-2.31a.747.745-38.982 0 0-1.34-.14l-17.3 28.34a1.264 1.253-74.046 0 1-1.07.6h-4.82a1.004.988 74.711 0 1-.86-.5q-7.94-13.95-16.45-27.55-.37-.6-.99-.83a.435.433-80.101 0 0-.58.41v96.39a1.059 1.052 84.762 0 1-.86 1.04l-22.82 4.26a.706.703-4.746 0 1-.83-.7zm67.914-47.692a.86.86 0 0 0-.28-1.184l-.884-.547a.86.86 0 0 0-1.184.28l-19.6 31.735a.86.86 0 0 0 .28 1.184l.884.547a.86.86 0 0 0 1.184-.28zM625.2 609.42v-87.99a1.608 1.603 15.741 0 0-.77-1.37l-3.33-2.03a1.338 1.338-1.564 0 0-1.8 1.9q.61.88 2.08 2.17a3.081 3.064 20.721 0 1 1.05 2.31v87.03a.857.849 85.935 0 0 .97.85l18.26-2.55a.733.732 62.631 0 0 .4-1.26l-.88-.82a1.957 1.943-27.235 0 0-1.58-.5l-12.75 1.78a.569.564 21.304 0 0-.3.13q-.35.29-1.12.52a.178.178-8.479 0 1-.23-.17m-49.75-91.1q.17.52 1.39 2.12c.95 1.26 2.76 2.08 3.54 3.42q12.9 21.9 15.4 25.97a1.837 1.826-21.089 0 0 1.91.84l.89-.16a.647.646-20.435 0 0 .44-.96l-17.8-30.83a1.328 1.327-17.898 0 0-1.29-.66q-2.17.23-4.08-.19a.347.342 87.007 0 0-.4.45m-18.734 103.561a.62.62-83.853 0 0 .567 1.033l17.652-3.301a.62.62 73.403 0 0 .364-1.004l-1.206-1.458a.62.62 51.701 0 0-.592-.214l-14.551 2.725a.62.62-74.885 0 0-.339.187zM1070.78 570.96a.241.237 12.412 0 1 .35-.22l22.8 11.95a1.167 1.144-76.608 0 1 .62 1.03v9.13a.786.777 4.292 0 0 .67.77l25.41 3.64a.908.908-86.132 0 0 1.03-.9v-36.41a1.466 1.461-87.431 0 0-1.33-1.46q-27.51-2.33-37.52-3.24-3.64-.33-7.5-4.06-4.38-4.25-4.37-10.2.08-25.93.09-49.99 0-2.99.46-5.68a3.674 3.631-26.226 0 1 .35-1.01q3.02-5.87 9.21-8.81a4.113 3.964 28.958 0 1 1.42-.38q25.1-2.06 43.84-3.76c5.99-.55 10.68-.39 15.04 4.3q4.69 5.05 4.75 11.31.11 11.48.05 20.06a1.035 1.029 79.951 0 1-.66.95l-23.43 9.16a.394.392 79.73 0 1-.53-.37v-15.86a1.46 1.46-.195 0 0-1.47-1.46l-25.13.21a.5.49-90 0 0-.49.5v29.52a1.47 1.47 1.009 0 0 1.42 1.47q17.85.64 34.63.84c7.75.1 13.58 7.16 15.44 13.96a5.88 5.571-53.76 0 1 .2 1.58q-.41 34.45.06 59.69c.15 8.37-1.51 15.44-9.8 17.58q-3.35.86-11.3-.56-4.8-.85-42.41-7.39c-2.95-.51-6.05-4.06-8.23-6.62q-3.78-4.42-3.6-11.72.31-12.53-.07-27.55m8.09-92.21c-3.25 1.67-6.81 5.21-6.82 9.25q-.09 44.58-.1 44.88-.16 9.57.5 11.7 1.71 5.56 7.66 8.34a3.553 3.467 61.65 0 0 .96.3q2.26.35 6.4.68 2.08.17 32.09 3.02 2.25.21 3.01 2.57a1.14.976 40.56 0 1 .05.32l-.07 39.02a.96.96-45 0 0 .96.96h1.01a.75.75-89.613 0 0 .75-.74q.07-39.39.08-40.68c.01-1.93-.57-3.93-2.59-4.11q-32.09-2.8-35.79-2.99c-5.48-.29-8.71-2.2-11.47-6.28q-1.03-1.51-1.03-5.98.03-27.16.16-50.7c.02-3.68 1.98-5.57 4.7-9.01a.369.365 5.432 0 0-.46-.55m14.34 18.85a2.339 2.326-25.119 0 0 1.73.62q7.29-.43 24.32-.46c2.49 0 3.57 1.2 3.46 3.74q-.3 6.83-.21 12.64a.6.6 64.627 0 0 1.04.4l.86-.92a3.622 3.587-24.038 0 0 .96-2.47l-.1-12.22a1.229 1.076 41.203 0 0-.04-.3q-.94-3.8-5.47-3.64-14.34.49-27.28.45a.623.621 66.311 0 0-.42 1.08zm49.287 9.074-.625-1.451a.48.48-23.302 0 0-.631-.251l-11.554 4.976a4.24.73-23.3 0 0-3.605 2.348l.427.991a4.24.73-23.3 0 0 4.183-1.006l11.554-4.976a.48.48-81.679 0 0 .251-.631m-70.337 68.746v28.22a3.078 3.022 33.589 0 0 .26 1.23q3.18 7.04 9.66 10.18a3.996 3.869 61.453 0 0 1.15.36q19.2 2.97 45.07 7.64c4.28.77 7.53.66 10.38-2.01a.647.646-80.819 0 0-.75-1.04q-2.34 1.26-6.17.62-44.53-7.43-47.18-7.92a6.57 6.368-25.574 0 1-1.82-.61q-8.42-4.28-8.25-14.78.09-5.61.27-19.07a2.592 2.585-65.191 0 0-.63-1.72l-1.19-1.39a.455.452 24.919 0 0-.8.29M995.98 604.95q-7.04-2.82-9.98-8.93-1.38-2.85-1.37-11.2l.08-91.07c0-5.74 3.39-10.09 8.24-12.37q2.77-1.3 8.73-1.63 31.36-1.74 40.94-2.57 5.35-.47 8.13.74c5.46 2.37 8.6 6.19 8.59 12.24q-.08 86.3.04 106.57.04 6.82-1.46 9.28c-3.29 5.4-8.31 6.08-14.42 5.22q-26.12-3.65-46.72-6.08a2.936 2.71 56.749 0 1-.8-.2m-3.58-120.96q-3.83 1.53-5.56 4.59-1.09 1.92-1.07 7.1.14 31.69.08 93.35-.01 8.22 6.4 12.44 2.88 1.9 11.25 2.77 15.67 1.64 39.52 5.13c3.42.5 6.76 1.16 9.82-1.47a.8.798-76.05 0 0-.81-1.35l-1.25.49a3.21 3.202 38.116 0 1-1.59.19q-26.85-3.71-45.21-5.68-6.77-.73-7.33-.95c-4.7-1.84-8.24-6.25-8.25-11.35q-.07-55.83.1-97.06a3.042 2.976 54.993 0 1 .16-.97q1.1-3.18 4.23-6.52a.443.441 10.504 0 0-.49-.71m13.74 14.12 1.42 1.11a3.428 3.404 62.999 0 0 2.22.73q6.62-.23 21.63-.51c2.31-.04 4.57.47 4.56 3.07q-.19 42.53-.05 84.99a.823.82-14.883 0 0 1.23.71l.68-.4a1.86 1.841 75.306 0 0 .93-1.61q.13-41.97-.01-84.85c-.01-4-2.25-5.23-6.27-5.05q-13.13.6-26 .81a.562.559-26.394 0 0-.34 1m3.921 3.291a1.1 1.1 24.587 0 0-1.091 1.1v80.66a1.1 1.1-54.482 0 0 .984 1.094l23.97 2.546a1.1 1.1 5.739 0 0 1.216-1.094v-83.408a1.1 1.1 31.48 0 0-1.109-1.1z"></path><path fill="#930010" fill-rule="evenodd" d="M601.954 512.063a.86.86 0 0 1-1.184.28l-.884-.547a.86.86 0 0 1-.28-1.184l19.6-31.735a.86.86 0 0 1 1.184-.28l.884.547a.86.86 0 0 1 .28 1.184zM1078.87 478.75a.369.365 5.432 0 1 .46.55c-2.72 3.44-4.68 5.33-4.7 9.01q-.13 23.54-.16 50.7 0 4.47 1.03 5.98c2.76 4.08 5.99 5.99 11.47 6.28q3.7.19 35.79 2.99c2.02.18 2.6 2.18 2.59 4.11q-.01 1.29-.08 40.68a.75.75-89.613 0 1-.75.74h-1.01a.96.96-45 0 1-.96-.96l.07-39.02a1.14.976 40.56 0 0-.05-.32q-.76-2.36-3.01-2.57-30.01-2.85-32.09-3.02-4.14-.33-6.4-.68a3.553 3.467 61.65 0 1-.96-.3q-5.95-2.78-7.66-8.34-.66-2.13-.5-11.7.01-.3.1-44.88c.01-4.04 3.57-7.58 6.82-9.25"></path><path fill="#fff" fill-rule="evenodd" d="m688.768 606.209-22.08 2.542a.77.77-57.623 0 1-.858-.765v-119a.77.77-44.851 0 1 .49-.717l22.08-8.619a.77.77-62.11 0 1 1.05.717v125.077a.77.77 31.633 0 1-.682.765m-19.428-1.559.41-2.39a1.932 1.295 60.401 0 0 .02-.27l.09-112.4a.807.805-19.8 0 0-1.32-.62l-.69.57a1.8 1.793-19.721 0 0-.66 1.39v114.71a.615.604-2.607 0 0 .67.6l18.53-1.66a.533.532 61.451 0 0 .28-.95l-1.59-1.25a1.82 1.82-29.213 0 0-1.31-.37l-12.11 1.3a.865.861-68.349 0 0-.46.2l-1.58 1.3a.172.172-15.093 0 1-.28-.16M735.08 601.82a.262.261-2.39 0 1-.24.26l-23.87 2.14a.511.504 87.439 0 1-.55-.51V501.83a5.047 5.004 32.744 0 0-.47-2.12l-9.24-19.51a.266.265 78.515 0 1 .25-.38l33.69 1.08a.87.864-10.944 0 1 .76.51q9.54 21.17 22.23 48.46 2.25 4.85 3.72 7.52.27.5.74.74a.362.361-76.091 0 0 .53-.32v-55.76a.65.641-89.145 0 1 .66-.65l22.89.74a.28.28 1.061 0 1 .27.28v116.06a.712.711-1.711 0 1-.67.71l-21.91 1.1a1.314 1.311-13.711 0 1-1.27-.77q-7.77-17.08-25.07-56.05-1.16-2.61-2.14-2.82a.261.256 5.579 0 0-.31.25zm-21.8-.94 1.03-3.07a.873.85 55.546 0 0 .05-.29V501.9a8.36 8.295 34.651 0 0-.56-3q-1.85-4.83-5.96-12.42c-.99-1.84-2.85-4.5-4.89-4.41a.614.612 74.359 0 0-.51.91q4.72 8.61 8.24 16.12.97 2.05.98 4.9.22 60.86.1 96.63a.78.78 54.337 0 0 1.52.25m51.864-60.015a.68.68 11.477 0 0 1.196-.442v-54.331a.68.68-64.609 0 0-.165-.443l-1.17-1.36a.68.68-6.955 0 0-1.195.444v54.325a.68.68 88.159 0 0 .164.443zm-26.232-4.947a.59.59 62.766 0 0-.532-.353l-4.622-.065a.59.59-59.824 0 0-.435.998l4.247 4.438a.6.6 56.004 0 1 .112.167l25.323 56.468a.59.59-51.023 0 0 1.068.018l.857-1.753a.59.59-28.669 0 0 .01-.496zm27.207 60.068-.659 1.438a.565.564 11.161 0 0 .538.802l16.882-.866a.58.578-28.645 0 0 .309-1.049l-1.35-.961a2.747 2.716-27.845 0 0-1.718-.519l-13.022.499a1.13 1.124 11.054 0 0-.98.656m-52.146 4.83a.63.63 5.042 0 0 .517 1.057l16.21-1.451a.63.63 55.24 0 0 .334-1.123l-1.657-1.304a.63.63 31.496 0 0-.446-.133l-13.071 1.167a.63.63-42.405 0 0-.404.197zM915.01 545.37a.813.801-5.158 0 0-.67.79v52.54a.58.57-90 0 1-.57.58h-22.92a.58.58-44.995 0 1-.58-.58V503a.805.758 31.973 0 0-.1-.38l-11.04-19.84a.365.362 75.078 0 1 .31-.54q7.62-.12 66.99-.96 7.08-.1 8.13.15c5.92 1.44 10.35 6.48 10.24 12.82q-.03 1.63.02 41.51c.01 6.56-6.23 10.12-12.1 10.5q-3.62.23-8.17.16a.415.414 76.346 0 0-.37.61l29.44 55.72a.4.399-11.196 0 1-.39.58l-25.13-1.98a1.002.992-12.206 0 1-.8-.51q-8.43-15.55-29.75-53.98c-.57-1.05-1.4-1.69-2.54-1.49m-31.42-60.02a.863.862 1.425 0 0-1.21 1.15l8.47 15.41a3.896 3.874-59.697 0 1 .49 1.89q.08 42.01.02 92.4a.929.889 82.829 0 0 1.12.91q.62-.17.87-1.05.78-2.72.78-3.88.14-86.74.07-89.59a1.398 1.256 41.942 0 0-.03-.28q-.3-1.62-1.79-4.16c-3.11-5.29-6.5-11.38-8.79-12.8m58.48 40.34q-.48 1.17-.25 1.85.29.89 1.5.42 1.74-.67 1.72-2.2-.2-10.88-.01-21.7.85-6.21-4.25-6.09-13.53.32-29.95.04a.447.441-25.195 0 0-.29.79l2.44 1.91a1.928 1.849-25.355 0 0 1.2.4q12.14-.24 24.57-.11 3.05.03 3.08 2.75.09 11 .24 21.94m-1.061-22.167a.82.82 0 0 0-.818-.821l-24.98-.044a.82.82 0 0 0-.821.819l-.039 22.32a.82.82 0 0 0 .818.821l24.98.044a.82.82 0 0 0 .822-.819zM913.36 542.9a2.003 2.002-21.052 0 0 1.78.79q1.88-.16 3.55 2.83 16.2 29.09 28.04 50.84a.927.923-43.454 0 0 1.6.04l.16-.27a2.695 2.676 46.26 0 0 .05-2.7l-29.04-52.17a1.573 1.569-14.642 0 0-1.37-.8h-4.88a.5.499 70.792 0 0-.39.81zm28.561-.196.042 1.719a.29.29 86.492 0 0 .297.283l10.627-.259a4.12.5-1.4 0 0 4.107-.601l-.032-1.3a4.12.5-1.4 0 0-4.131-.399l-10.627.26a.29.29-45.005 0 0-.283.297m-47.482 53.594a.39.39-61.465 0 0 .32.593l15.751.506a.39.39 29.795 0 0 .279-.676l-2.162-2.011a.4.4-25.187 0 0-.253-.105l-12.427-.398a.39.39 40.087 0 0-.345.187zm73.681 4.002-4.09-2.11a.451.338-19.478 0 0-.16-.05l-12.37-1.32a3.513 3.494-64.58 0 0-2.87 1.03l-.31.32a.841.837 24.312 0 0 .54 1.42l19.03 1.5a.421.419-28.921 0 0 .23-.79"></path><path fill="#930010" fill-rule="evenodd" d="M713.28 600.88a.78.78 54.337 0 1-1.52-.25q.12-35.77-.1-96.63-.01-2.85-.98-4.9-3.52-7.51-8.24-16.12a.614.612 74.359 0 1 .51-.91c2.04-.09 3.9 2.57 4.89 4.41q4.11 7.59 5.96 12.42a8.36 8.295 34.651 0 1 .56 3v95.62a.873.85 55.546 0 1-.05.29z"></path><path fill="#fff" fill-rule="evenodd" d="m811.7 596.89 52.15-.02a.358.356 66.293 0 0 .24-.62l-1.47-1.38a2.112 2.089-23.513 0 0-1.42-.55q-24.14-.01-48.55.08-.65 0-1.02.87l-.15.24a.264.261 65.226 0 1-.48-.18c.13-1.04.5-1.9.51-3.12q.08-18.58.09-32.93a2.509 2.471 28.105 0 0-.44-1.41q-1.96-2.81-3.71-6.31c-2.04-4.1-4.26-6.45-7.73-8.76a.574.573-28.085 0 1 .32-1.05h6.7a1.12 1.12-2.444 0 0 1.12-1.12v-57.88a.36.35 90 0 1 .35-.36h59.01a.68.67-90 0 1 .67.68v19.22a.53.53-45 0 1-.53.53h-35.08a.52.51 0 0 0-.52.51v37.69a.49.49 0 0 0 .49.49h23.67a.56.56 45 0 1 .56.56v18.21a.7.7 45 0 1-.7.7h-23.6a.42.42 45 0 0-.42.42v16.46a.38.38-45 0 0 .38.38h34.73a.36.35-90 0 1 .35.36v19.13a.97.97-45 0 1-.97.97h-57.82a.54.54 45 0 1-.54-.54v-36.51a3.661 3.642 32.318 0 0-.36-1.58l-4.74-9.96a.139.13-25.612 0 1 .07-.18.206.197-27.201 0 1 .27.08l5.64 10.45a2.747 2.718 31.065 0 1 .33 1.3v34.8a.228.217 9.094 0 0 .16.21q.59.19 1.16-.11a.857.847 43.894 0 1 .77-.01zm-.831-52.045a.5.5-49.476 0 0 .721-.449v-57.261a.5.5-63.421 0 0-.12-.325l-1.44-1.682a.5.5-87.133 0 0-.88.325v56.178a.5.5 17.905 0 1-.174.379l-.833.717a.5.5-79.878 0 0 .105.827zm51.463-46.366a.56.56 54 0 0-.345-.119h-33.05a.56.56-81.82 0 0-.346 1l2.237 1.76a.56.56-47.626 0 0 .346.12h33.055a.56.56-17.437 0 0 .346-1.001zm-32.118 60.846a.54.54-29.202 0 0 .369.145h22.359a.54.54 46.402 0 0 .369-.934l-1.775-1.66a.54.54-10.9 0 0-.369-.146h-22.366a.54.54-54.367 0 0-.368.935z"></path><path fill="#930010" fill-rule="evenodd" d="M992.4 483.99a.443.441 10.504 0 1 .49.71q-3.13 3.34-4.23 6.52a3.042 2.976 54.993 0 0-.16.97q-.17 41.23-.1 97.06c.01 5.1 3.55 9.51 8.25 11.35q.56.22 7.33.95 18.36 1.97 45.21 5.68a3.21 3.202 38.116 0 0 1.59-.19l1.25-.49a.8.798-76.05 0 1 .81 1.35c-3.06 2.63-6.4 1.97-9.82 1.47q-23.85-3.49-39.52-5.13-8.37-.87-11.25-2.77-6.41-4.22-6.4-12.44.06-61.66-.08-93.35-.02-5.18 1.07-7.1 1.73-3.06 5.56-4.59M765.144 540.865l-1.17-1.364a.68.68-22.614 0 1-.164-.443v-54.325a.68.68 64.935 0 1 1.195-.444l1.17 1.36a.68.68 69.402 0 1 .165.443v54.331a.68.68 59.856 0 1-1.196.442M810.869 544.845l-2.621-1.291a.5.5-77.637 0 1-.105-.827l.833-.717a.5.5-21.008 0 0 .174-.379v-56.178a.5.5-59.086 0 1 .88-.325l1.44 1.682a.5.5-69.8 0 1 .12.325v57.261a.5.5-38.016 0 1-.721.449M883.59 485.35c2.29 1.42 5.68 7.51 8.79 12.8q1.49 2.54 1.79 4.16a1.398 1.256 41.942 0 1 .03.28q.07 2.85-.07 89.59 0 1.16-.78 3.88-.25.88-.87 1.05a.929.889 82.829 0 1-1.12-.91q.06-50.39-.02-92.4a3.896 3.874-59.697 0 0-.49-1.89l-8.47-15.41a.863.862 1.425 0 1 1.21-1.15M669.62 604.81l1.58-1.3a.865.861-68.349 0 1 .46-.2l12.11-1.3a1.82 1.82-29.213 0 1 1.31.37l1.59 1.25a.533.532 61.451 0 1-.28.95l-18.53 1.66a.615.604-2.607 0 1-.67-.6V490.93a1.8 1.793-19.721 0 1 .66-1.39l.69-.57a.807.805-19.8 0 1 1.32.62l-.09 112.4a1.932 1.295 60.401 0 1-.02.27l-.41 2.39a.172.172-15.093 0 0 .28.16M1093.21 497.6l-1.15-1.08a.623.621 66.311 0 1 .42-1.08q12.94.04 27.28-.45 4.53-.16 5.47 3.64a1.229 1.076 41.203 0 1 .04.3l.1 12.22a3.622 3.587-24.038 0 1-.96 2.47l-.86.92a.6.6-77.442 0 1-1.04-.4q-.09-5.81.21-12.64c.11-2.54-.97-3.74-3.46-3.74q-17.03.03-24.32.46a2.339 2.326-25.119 0 1-1.73-.62"></path><path fill="#930010" fill-rule="evenodd" d="M1006.48 497.11q12.87-.21 26-.81c4.02-.18 6.26 1.05 6.27 5.05q.14 42.88.01 84.85a1.86 1.841 75.306 0 1-.93 1.61l-.68.4a.823.82-14.883 0 1-1.23-.71q-.14-42.46.05-84.99c.01-2.6-2.25-3.11-4.56-3.07q-15.01.28-21.63.51a3.428 3.404 62.999 0 1-2.22-.73l-1.42-1.11a.562.559-26.394 0 1 .34-1"></path><path fill="#980130" fill-rule="evenodd" d="m945.03 504.06-.24 4.72a.151.14-87.801 0 1-.14.14.26.26-2.048 0 1-.28-.26q0-1.08-.35-1.41a1.021 1.019-67.948 0 0-1.72.73l-.23 17.71q-.15-10.94-.24-21.94-.03-2.72-3.08-2.75-12.43-.13-24.57.11a1.928 1.849-25.355 0 1-1.2-.4l-2.44-1.91a.447.441-25.195 0 1 .29-.79q16.42.28 29.95-.04 5.1-.12 4.25 6.09M862.332 498.479l2.243 1.76a.56.56 14.043 0 1-.346 1.001h-33.055a.56.56 12.622 0 1-.346-.12l-2.237-1.76a.56.56-74.638 0 1 .346-1h33.05a.56.56-74.285 0 1 .345.119" data-source="https://football-logos.cc"></path><path fill="#930010" fill-rule="evenodd" d="M557.39 498.29q-.31 59.44-.3 118.46 0 3.15-.91 5.42a.96.958-34.222 0 1-1.85-.35l-.34-93.83.09-6.71a.199.181 1.358 0 0-.2-.19h-.01a.19.19-8.161 0 0-.19.19l-.11 4.43c0-3.19 0-6.38.05-9.57 0 1.13-.01 2.22.08 3.33a.21.21 85.502 0 0 .22.2.211.2-1.506 0 0 .2-.2q.03-4.54.44-7.81.32-2.52.24-4.83-.08-2.44-.24-4.86-.12-1.75 2.83-3.68"></path><path fill="#700122" fill-rule="evenodd" d="m1010.061 501.401 23.97-.202a1.1 1.1 42.317 0 1 1.109 1.1v83.408a1.1 1.1 30.367 0 1-1.216 1.094l-23.97-2.546a1.1 1.1-50.11 0 1-.984-1.094v-80.66a1.1 1.1 37.501 0 1 1.091-1.1M940.971 525.843a.82.82 0 0 1-.822.819l-24.98-.044a.82.82 0 0 1-.818-.821l.039-22.32a.82.82 0 0 1 .821-.819l24.98.044a.82.82 0 0 1 .818.821z"></path><path fill="#930010" fill-rule="evenodd" d="M945.03 504.06q-.19 10.82.01 21.7.02 1.53-1.72 2.2-1.21.47-1.5-.42-.23-.68.25-1.85l.23-17.71a1.021 1.019-67.948 0 1 1.72-.73q.35.33.35 1.41a.26.26-2.048 0 0 .28.26.151.14-87.801 0 0 .14-.14zM1142.497 506.674a.48.48-73.29 0 1-.251.631l-11.554 4.976a4.24.73-23.3 0 1-4.183 1.006l-.427-.991a4.24.73-23.3 0 1 3.605-2.348l11.554-4.976a.48.48 8.387 0 1 .631.251zM625.43 609.59q.77-.23 1.12-.52a.569.564 21.304 0 1 .3-.13l12.75-1.78a1.957 1.943-27.235 0 1 1.58.5l.88.82a.733.732 62.631 0 1-.4 1.26l-18.26 2.55a.857.849 85.935 0 1-.97-.85v-87.03a3.081 3.064 20.721 0 0-1.05-2.31q-1.47-1.29-2.08-2.17a1.338 1.338-1.564 0 1 1.8-1.9l3.33 2.03a1.608 1.603 15.741 0 1 .77 1.37v87.99a.178.178-8.479 0 0 .23.17M575.45 518.32a.347.342 87.007 0 1 .4-.45q1.91.42 4.08.19a1.328 1.327-17.898 0 1 1.29.66l17.8 30.83a.647.646-20.435 0 1-.44.96l-.89.16a1.837 1.826-21.089 0 1-1.91-.84q-2.5-4.07-15.4-25.97c-.78-1.34-2.59-2.16-3.54-3.42q-1.22-1.6-1.39-2.12"></path><path fill="#747373" fill-rule="evenodd" d="M553.99 527.99q-.17.01-.35.03l-.07-2.31.11-4.43a.19.19 25.177 0 1 .19-.19h.01a.199.181 1.358 0 1 .2.19z"></path><path fill="#930010" fill-rule="evenodd" d="m738.912 535.918 26.028 59.422a.59.59-5.201 0 1-.01.496l-.857 1.753a.59.59-3.505 0 1-1.068-.018l-25.323-56.468a.6.6-77.744 0 0-.112-.167l-4.247-4.438a.59.59 19.079 0 1 .435-.998l4.622.065a.59.59-61.333 0 1 .532.353M913.36 542.9l-.5-.63a.5.499 70.792 0 1 .39-.81h4.88a1.573 1.569-14.642 0 1 1.37.8l29.04 52.17a2.695 2.676 46.26 0 1-.05 2.7l-.16.27a.927.923-43.454 0 1-1.6-.04q-11.84-21.75-28.04-50.84-1.67-2.99-3.55-2.83a2.003 2.002-21.052 0 1-1.78-.79M941.921 542.704a.29.29-44.765 0 1 .283-.297l10.627-.26a4.12.5-1.4 0 1 4.131.399l.032 1.3a4.12.5-1.4 0 1-4.107.601l-10.627.259a.29.29-55.834 0 1-.297-.283zM830.214 559.325l-1.781-1.66a.54.54 13.284 0 1 .368-.935h22.366a.54.54 11.29 0 1 .369.146l1.775 1.66a.54.54-77.278 0 1-.369.934h-22.359a.54.54 16.366 0 1-.369-.145"></path><path fill="#747373" fill-rule="evenodd" d="M612.48 632.06q-.52 23.18 1.39 37.52 3.96 29.68 18.9 63.38 1.46 3.29 8.8 16.64c8.06 14.67 18.37 28.73 28.68 40.59q4.87 5.6 9.45 10.06c4.64 4.52 8.15 8.52 13.07 12.4q7.09 5.58 9.19 7.4c5.08 4.36 11.21 8.38 16.1 11.13q5.16 2.91 7.49 4.48 4.03 2.7 7.52 4.39 18.67 9.05 22.65 10.71 7.47 3.12 25.23 8.95a.21.204 15.567 0 1 .14.24l-.01.01a.216.214-77.312 0 1-.25.16q-8.93-1.66-16.1-3.89c-12.68-3.94-24.64-8.07-36.3-13.9q-2.93-1.48-11.83-5.68-2.3-1.09-8.78-5.54-3.76-2.59-8.72-5.56c-7.05-4.21-14.52-10.26-20.67-14.96-5.8-4.45-10.15-8.87-14.93-12.91-4.34-3.67-8.56-8.66-13.03-13.17q-2.84-2.87-5.82-6.33-33.3-38.67-50.55-87.29-1.82-5.12-4.07-11.95c-2.99-9.08-4.22-15.57-6.83-25.64q-.43-1.66-1.6-8.18-.76-4.25-1.91-8.13l14.12-2.33a.953.952-4.618 0 0 .8-.94v-63.11a.691.681 88.698 0 1 .65-.69l7.89-.4a.56.56-1.457 0 1 .59.56v61.94a1.068 1.06 86.232 0 0 1.2 1.06z"></path><path fill="#930010" fill-rule="evenodd" d="M1072.16 575.42a.455.452 24.919 0 1 .8-.29l1.19 1.39a2.592 2.585-65.191 0 1 .63 1.72q-.18 13.46-.27 19.07-.17 10.5 8.25 14.78a6.57 6.368-25.574 0 0 1.82.61q2.65.49 47.18 7.92 3.83.64 6.17-.62a.647.646-80.819 0 1 .75 1.04c-2.85 2.67-6.1 2.78-10.38 2.01q-25.87-4.67-45.07-7.64a3.996 3.869 61.453 0 1-1.15-.36q-6.48-3.14-9.66-10.18a3.078 3.022 33.589 0 1-.26-1.23zM811.7 596.89l-.07-1.62q.37-.87 1.02-.87 24.41-.09 48.55-.08a2.112 2.089-23.513 0 1 1.42.55l1.47 1.38a.358.356 66.293 0 1-.24.62z"></path><path fill="#980130" fill-rule="evenodd" d="m894.439 596.298 1.163-1.904a.39.39 58.514 0 1 .345-.187l12.427.398a.4.4 16.428 0 1 .253.105l2.162 2.011a.39.39 50.159 0 1-.279.676l-15.751-.506a.39.39-36.217 0 1-.32-.593"></path><path fill="#930010" fill-rule="evenodd" d="M766.119 595.986a1.13 1.124 11.054 0 1 .98-.656l13.022-.499a2.747 2.716-27.845 0 1 1.718.519l1.35.961a.58.578-28.645 0 1-.309 1.049l-16.882.866a.565.564 11.161 0 1-.538-.802zM968.12 600.3a.421.419-28.921 0 1-.23.79l-19.03-1.5a.841.837 24.312 0 1-.54-1.42l.31-.32a3.513 3.494-64.58 0 1 2.87-1.03l12.37 1.32a.451.338-19.478 0 1 .16.05zM713.973 600.816l1.483-1.59a.63.63-28.391 0 1 .404-.197l13.071-1.167a.63.63 86.556 0 1 .446.133l1.657 1.304a.63.63-82.218 0 1-.334 1.123l-16.21 1.451a.63.63 43.258 0 1-.517-1.057"></path><path fill="#980130" fill-rule="evenodd" d="M1052.78 626.85q.01 8.01-.08 16.1-.09 9.83-.64 16.08-2.93 33.61-16.18 65.59c-21.71 52.44-64.27 96.29-116.05 118.94q-19.73 8.63-44.03 13.02c-40.19 7.27-82.35 2.51-119.75-13.59-48.71-20.96-88.2-60.6-111.24-108.51q-17.93-37.29-20.05-79.72-.34-6.93-.46-23.51 0-1.25-1.2-1.31 8.66-2.58 13.69-2.69 10.2-.24 19.62-1.45c2.75-.35 6.4-.18 9.07-.77q15.05-3.37 28.61-3.85 7.07-.25 14.61-1.22c15.46-1.97 24.67-2.25 45.05-3.2 8.13-.38 15.29-.39 24.54-1.13 10.57-.85 26.22-.23 38.04-1.04q6.31-.44 11.13-.17c12.31.7 26.24-.74 41.45-.14q7.55.3 11.34.41 22.62.65 37.04.53 7.07-.06 14.23.9c10.33 1.39 19.97.79 30.12 1.93q26.4 2.95 28.83 3.16 6.08.53 10.6.6c5.55.08 10.6 2.02 16.28 2.33 5.46.3 14.48.2 21.75 2.47a8.112 7.921 52.637 0 0 2.53.37zM777 646.69a.577.574-50.198 0 0-.07-.79c-5.85-4.99-15.5-3.92-19.66 2.63q-1.5 2.36-.87 6.78c1.24 8.74 17.73 8.77 15.09 18.44-1.1 4.06-6.77 3.94-9.87 2.64q-.87-.37-3.39-2.32a.94.94-64.636 0 0-1.32.16l-1.35 1.71a.938.931-49.336 0 0 .09 1.25q4.07 3.88 10.36 3.64c5.24-.2 11.34-3.21 12.46-8.54 1.13-5.46-1.1-9.61-5.66-12.32-3.96-2.35-8.84-4.7-9.41-7.15q-1.09-4.68 2.7-6.2 3.63-1.45 8.36 2.23a.676.668 37.987 0 0 .94-.11zm161.601 8.198a19.25 18.87-20.5 0 0-24.639-10.933 19.25 18.87-20.5 0 0-11.423 24.417 19.25 18.87-20.5 0 0 24.639 10.933 19.25 18.87-20.5 0 0 11.423-24.417M696.05 643.24q-8.82-.5-15.38 5.46c-6.66 6.06-7.05 17.47-1.98 24.29 3.05 4.11 7.05 6.74 12.21 7.38q.78.1 3.9.54a.385.383 62.887 0 0 .23-.72c-8.65-4.63-13.88-12.56-11.61-22.86q2.26-10.25 12.69-13.6a.251.251-52.053 0 0-.06-.49m24.38-.17a.69.69 45 0 0-.69.69v36.03a.69.69-45 0 0 .69.69h22.59a.69.69 45 0 0 .69-.69v-2.92a.69.69-45 0 0-.69-.69h-15.2a.69.69-64.826 0 1-.69-.69v-11.74a.69.69-60.178 0 1 .69-.69h11.61a.69.69 84.64 0 0 .69-.69v-2.9a.69.69 87.569 0 0-.69-.69h-11.59a.69.69 45 0 1-.69-.69v-10.17a.69.69-45 0 1 .69-.69h13.91a.69.69 45 0 0 .69-.69v-2.78a.69.69-2.442 0 0-.69-.69zm65.03 37.26 3.59-.03a1.497 1.492-78.313 0 0 1.35-.89c3.68-8.26 5.66-14.02 9.39-22.7q2.33-5.42 4.18-11.36a1.885 1.884 9.518 0 0-1.74-2.44l-1.21-.04a2.592 2.582-78.266 0 0-2.49 1.64l-13.65 34.98a.62.615 10.631 0 0 .58.84m41.72-.3a.38.38 70.78 0 0 .38.38h5.14a.38.38-78.735 0 0 .38-.38v-23.234a.38.38 63.723 0 1 .673-.242l19.723 23.868a.38.38-29.015 0 0 .293.138h2.911a.38.38 45 0 0 .38-.38v-36.6a.38.38 74.8 0 0-.38-.38h-4.74a.38.38 45 0 0-.38.38v21.174a.38.38 60.117 0 1-.673.242l-17.963-21.738a.38.38-32.517 0 0-.293-.138h-5.071a.38.38-45 0 0-.38.38zm40.6-36.87a.63.63-2.441 0 0-.63.63v2.75a.63.63-2.471 0 0 .63.63h9.51a.63.63 45 0 1 .63.63v31.97a.63.63 81.851 0 0 .63.63h6.26a.63.63-45 0 0 .63-.63v-31.9a.63.63 45 0 1 .63-.63h10.58a.63.63 45 0 0 .63-.63v-2.82a.63.63-2.441 0 0-.63-.63zm87.738 13.503a.344.342-64.761 0 1 .608-.22l19.385 23.483a1.546 1.526-19.297 0 0 1.197.567l2.135-.003a.65.65-.026 0 0 .647-.65l-.07-35.67a1.007 1.007-67.475 0 0-1.009-1.006l-3.481.005a1.027 1.018-.357 0 0-1.026 1.029l.079 20.857a.411.408-64.468 0 1-.728.261l-17.207-21.521a1.736 1.725 70.299 0 0-1.377-.657l-4.429.017a.65.65 45.052 0 0-.648.649l.091 35.889a.649.639-89.634 0 0 .63.648l4.598.063a.648.639-89.648 0 0 .648-.649zm43.821-12.88a.71.71 0 0 0-.712-.708l-6.14.01a.71.71 0 0 0-.708.712l.062 35.92a.71.71 0 0 0 .712.708l6.14-.01a.71.71 0 0 0 .708-.712zM694.71 649.02q4.24.74 8 3.87a1.509 1.506-40.292 0 0 1.72.14l4.25-2.45a.691.69 49.05 0 0 .08-1.14l-6.32-4.96a1.161 1.137 48.842 0 0-1.29-.1l-6.58 3.8a.456.45-54.862 0 0 .14.84m122.611 31.366a.53.53-82.091 0 0 .489-.723l-11.215-28.688a.53.53-70.846 0 0-.988.001l-3.042 7.811a.53.53 26.926 0 0 0 .386l8.172 20.927a.53.53 69.1 0 0 .498.337zM693.15 676.35l7.15 3.52a.738.716-45.842 0 0 .68-.02l7.36-4.26a.942.94-41.019 0 0 .11-1.56l-4.03-3.17a1.086 1.086-49.646 0 0-1.47.12q-3.56 3.96-9.67 4.65a.382.381-34.832 0 0-.13.72m45.45 108.79a.572.571-2.653 0 0 .53-.58l-.58-69.87a.881.88-1.273 0 0-.91-.87q-6.79.26-24.79.15c-8.07-.05-17.23-1.18-25.82-.01a.86.858 69.332 0 0-.6 1.33l5 7.52a.66.643 17.681 0 1 .08.15q1.9 4.86 2.96 6.37c3.91 5.59 6.86 11.83 10.42 16.93 6.34 9.06 11.03 15.96 17.59 22.65q4.4 4.5 7.29 8.75 1.31 1.93 3.34 3.79c2.38 2.18 3.63 3.85 5.49 3.69m251.02-71.01q-.49-.14-6.24.28c-5.96.43-11.52-.4-18.23-.75-8.44-.45-17.05.88-25.55.92a.69.686-87.125 0 0-.67.61c-.37 3.25-.9 6.61-.89 9.89.12 24.44.05 36.21.26 46.57q.11 5.95-.24 11.76-.06.82.24 1.35a.829.824-37.512 0 0 1.32.17q3.6-3.77 10.49-11.24 4.33-4.68 9.77-11.82 12.6-16.52 22.77-33.36c2.87-4.75 4.81-9.44 7.23-13.74a.439.436-67.315 0 0-.26-.64m-186.935 23.681c.022 8.007 7.849 9.698 14.121 9.681 6.271-.017 14.089-1.751 14.067-9.758s-7.849-9.698-14.12-9.681c-6.272.017-14.089 1.751-14.068 9.758m52.305 3.949a2.78 2.776 15.678 0 1 1.89-1.06c6.09-.67 17.5-.56 15.27-8.13-1.62-5.49-13.02-4.72-17.15-3.83q-2.91.63-5.53 3.1a1.146 1.144 34.037 0 0 .37 1.9l2.43.95a2.667 2.646-52.745 0 0 2.57-.36q3.79-2.87 10.13-1.39a1.057 1.057-61.093 0 1 .51 1.77c-1.46 1.46-4.98 1.51-8.34 2.04-5.84.91-9.52 3.25-8.91 9.86a.666.663 87.13 0 0 .66.6h22.54a.96.96 45 0 0 .96-.96v-3.8a1.025 1.023 2.113 0 0-.95-1.02l-3.15-.25a.304.271 34.185 0 0-.15.02q-.67.25-.91.84-.33.84-1.23.82-6.57-.12-10.67-.03a.567.564 18.309 0 1-.46-.91zm-70.06 4.67v-4.44a.75.75-45 0 0-.75-.75h-4.11a.768.763 8.836 0 0-.73.53q-.18.61-.34.76a1.465 1.428 21.495 0 1-1 .42l-10.61.06a.667.667-65.031 0 1-.43-1.18q1.56-1.29 3.98-1.43 5.95-.36 9.66-1.25c3.23-.77 5.4-4.67 3.2-7.67-2.89-3.95-12.15-3.63-16.25-2.91q-3.88.68-6.72 3.67a.86.856 32.581 0 0 .31 1.39l3.38 1.32a2.106 2.102-54.744 0 0 2.14-.37q3.29-2.86 9.21-1.91 1.42.23 1.65.74a1.692 1.554-14.525 0 1-1.43 2.21q-3.19.36-7.7 1.13c-6.13 1.04-8.78 3.76-8.51 9.74a.731.721-1.228 0 0 .73.69h23.57a.75.75 45 0 0 .75-.75m112.33-11.07q.55-1.46 2.23-2.13 5.27-2.09 10.05.88a1 1 56.785 0 0 .67.14l4.31-.6a.833.827 70.289 0 0 .59-1.26c-2.98-4.86-11.95-4.75-17.1-3.51q-7.53 1.82-7.62 9.06-.05 3.58 1.23 5.45c3.5 5.13 14.28 4.39 19.54 3.02 3.42-.88 5.98-4.06 4.48-7.64-1.07-2.57-3.85-3.1-6.65-3.57q-5.92-1.01-11.1.8a.497.495.543 0 1-.63-.64m-91.85 34.96v51.51a1.244 1.237 4.983 0 0 1.03 1.22q4.78.84 16.05 2.72 9.16 1.52 18.51 1.3c10.23-.25 18.69-2.06 29.47-4.16a1.135 1.117 85.048 0 0 .91-1.1q.12-13.17-.08-35.49c-.05-5.67-.34-10.79.33-16.74a.935.929-10.936 0 0-1.37-.92c-3.22 1.74-7.11 3.69-10.87 4.62q-13.27 3.29-23.82 4.03c-4.64.33-9.16-.21-13.68-1.72q-8.58-2.88-15.54-5.89a.675.671-78.272 0 0-.94.62"></path><path fill="#930010" fill-rule="evenodd" d="m556.716 621.881 1.895-2.032a.62.62-34.584 0 1 .339-.187l14.551-2.725a.62.62 88.393 0 1 .592.214l1.206 1.458a.62.62-85.467 0 1-.364 1.004l-17.652 3.301a.62.62-35.632 0 1-.567-1.033"></path><path fill="#747373" fill-rule="evenodd" d="M1096.6 635.48q-2.94 14.89-6.17 29.44c-1.61 7.25-4.14 14.03-6.6 21.43q-14.78 44.46-43.91 82.06-13.24 17.08-28.84 31.15-11.92 10.75-27.38 21.7c-7.32 5.18-14.48 9.1-22.4 14.09q-6.31 3.98-12.88 6.67c-5.17 2.12-11.1 5.48-17.69 7.97q-11.68 4.42-24.48 8.18a.022.022-68.518 0 1-.03-.01l-.33-.37a.198.193 58.537 0 1 .07-.31q21.23-8.33 36.99-16.56 1.86-.97 13.62-7.97 7.66-4.56 13.14-8.75 11.04-8.42 13.36-10.63c7.72-7.35 12.91-11.58 17.77-17.56 3.41-4.2 8.16-8.98 11.55-13.32q8.49-10.89 14.1-19.45 1.39-2.12 9.75-16.47 4.7-8.07 12.17-26.13 9.33-22.55 13.49-48.7 1.96-12.37 2.02-22.19.07-12.38-.01-25.18 2.96 2.02 5.26 4.01 2.15 1.86 6.25 2.79 10.47 2.38 21.18 4.11"></path><path fill="#fff" fill-rule="evenodd" d="m777 646.69-1.6 2.05a.676.668 37.987 0 1-.94.11q-4.73-3.68-8.36-2.23-3.79 1.52-2.7 6.2c.57 2.45 5.45 4.8 9.41 7.15 4.56 2.71 6.79 6.86 5.66 12.32-1.12 5.33-7.22 8.34-12.46 8.54q-6.29.24-10.36-3.64a.938.931-49.336 0 1-.09-1.25l1.35-1.71a.94.94-17.753 0 1 1.32-.16q2.52 1.95 3.39 2.32c3.1 1.3 8.77 1.42 9.87-2.64 2.64-9.67-13.85-9.7-15.09-18.44q-.63-4.42.87-6.78c4.16-6.55 13.81-7.62 19.66-2.63a.577.574-50.198 0 1 .07.79M938.601 654.888a19.25 18.87-20.5 0 1-11.423 24.417 19.25 18.87-20.5 0 1-24.639-10.933 19.25 18.87-20.5 0 1 11.423-24.417 19.25 18.87-20.5 0 1 24.639 10.933m-19.242-8.356a15.13 11.43-95.2 0 0-10.012 16.104 15.13 11.43-95.2 0 0 12.754 14.032 15.13 11.43-95.2 0 0 10.012-16.104 15.13 11.43-95.2 0 0-12.754-14.032M696.05 643.24a.251.251-52.053 0 1 .06.49q-10.43 3.35-12.69 13.6c-2.27 10.3 2.96 18.23 11.61 22.86a.385.383 62.887 0 1-.23.72q-3.12-.44-3.9-.54c-5.16-.64-9.16-3.27-12.21-7.38-5.07-6.82-4.68-18.23 1.98-24.29q6.56-5.96 15.38-5.46M720.43 643.07h21.32a.69.69 35.529 0 1 .69.69v2.78a.69.69-45 0 1-.69.69h-13.91a.69.69 45 0 0-.69.69v10.17a.69.69 45 0 0 .69.69h11.59a.69.69-54.475 0 1 .69.69v2.9a.69.69-57.938 0 1-.69.69h-11.61a.69.69-84.175 0 0-.69.69v11.74a.69.69 81.827 0 0 .69.69h15.2a.69.69 45 0 1 .69.69v2.92a.69.69 44.995 0 1-.69.69h-22.59a.69.69 45 0 1-.69-.69v-36.03a.69.69 44.995 0 1 .69-.69M785.46 680.33a.62.615 10.631 0 1-.58-.84l13.65-34.98a2.592 2.582-78.266 0 1 2.49-1.64l1.21.04a1.885 1.884 9.518 0 1 1.74 2.44q-1.85 5.94-4.18 11.36c-3.73 8.68-5.71 14.44-9.39 22.7a1.497 1.492-78.313 0 1-1.35.89zM827.18 680.03V643.5a.38.38-45 0 1 .38-.38h5.071a.38.38 38.833 0 1 .293.138l17.963 21.738a.38.38 4.044 0 0 .673-.242V643.58a.38.38 45 0 1 .38-.38h4.74a.38.38-56.246 0 1 .38.38v36.6a.38.38 45 0 1-.38.38h-2.911a.38.38 17.808 0 1-.293-.138l-19.723-23.868a.38.38 34.843 0 0-.673.242v23.234a.38.38-53.158 0 1-.38.38h-5.14a.38.38-72.385 0 1-.38-.38M867.78 643.16h28.87a.63.63 35.521 0 1 .63.63v2.82a.63.63 45 0 1-.63.63h-10.58a.63.63 45 0 0-.63.63v31.9a.63.63 45 0 1-.63.63h-6.26a.63.63-64.82 0 1-.63-.63V647.8a.63.63 45 0 0-.63-.63h-9.51a.63.63 35.527 0 1-.63-.63v-2.75a.63.63 35.535 0 1 .63-.63M955.518 656.663l.043 23.092a.648.639-89.648 0 1-.648.649l-4.598-.063a.649.639-89.634 0 1-.63-.648l-.091-35.889a.65.65-45.113 0 1 .648-.649l4.429-.017a1.736 1.725 70.299 0 1 1.377.657l17.207 21.521a.411.408-64.468 0 0 .728-.261l-.079-20.857a1.027 1.018-.357 0 1 1.026-1.029l3.481-.005a1.007 1.007-67.639 0 1 1.009 1.006l.07 35.67a.65.65-.072 0 1-.647.65l-2.135.003a1.546 1.526-19.297 0 1-1.197-.567l-19.385-23.483a.344.342-64.761 0 0-.608.22M999.401 679.703a.71.71 0 0 1-.708.712l-6.14.01a.71.71 0 0 1-.712-.708l-.062-35.92a.71.71 0 0 1 .708-.712l6.14-.01a.71.71 0 0 1 .712.708z"></path><path fill="#fff" fill-rule="evenodd" d="M694.71 649.02a.456.45-54.862 0 1-.14-.84l6.58-3.8a1.161 1.137 48.842 0 1 1.29.1l6.32 4.96a.691.69 49.05 0 1-.08 1.14l-4.25 2.45a1.509 1.506-40.292 0 1-1.72-.14q-3.76-3.13-8-3.87"></path><path fill="#980130" fill-rule="evenodd" d="M919.359 646.532a15.13 11.43-95.2 0 1 12.754 14.032 15.13 11.43-95.2 0 1-10.012 16.104 15.13 11.43-95.2 0 1-12.754-14.032 15.13 11.43-95.2 0 1 10.012-16.104"></path><path fill="#fff" fill-rule="evenodd" d="m817.321 680.386-6.086.051a.53.53-62.886 0 1-.498-.337l-8.172-20.927a.53.53 86.571 0 1 0-.386l3.042-7.811a.53.53-86.106 0 1 .988-.001l11.215 28.688a.53.53-67.403 0 1-.489.723M693.15 676.35a.382.381-34.832 0 1 .13-.72q6.11-.69 9.67-4.65a1.086 1.086-49.646 0 1 1.47-.12l4.03 3.17a.942.94-41.019 0 1-.11 1.56l-7.36 4.26a.738.716-45.842 0 1-.68.02z"></path><path fill="#700122" fill-rule="evenodd" d="M738.6 785.14c-1.86.16-3.11-1.51-5.49-3.69q-2.03-1.86-3.34-3.79-2.89-4.25-7.29-8.75c-6.56-6.69-11.25-13.59-17.59-22.65-3.56-5.1-6.51-11.34-10.42-16.93q-1.06-1.51-2.96-6.37a.66.643 17.681 0 0-.08-.15l-5-7.52a.86.858 69.332 0 1 .6-1.33c8.59-1.17 17.75-.04 25.82.01q18 .11 24.79-.15a.881.88-1.273 0 1 .91.87l.58 69.87a.572.571-2.653 0 1-.53.58M989.62 714.13a.439.436-67.315 0 1 .26.64c-2.42 4.3-4.36 8.99-7.23 13.74q-10.17 16.84-22.77 33.36-5.44 7.14-9.77 11.82-6.89 7.47-10.49 11.24a.829.824-37.512 0 1-1.32-.17q-.3-.53-.24-1.35.35-5.81.24-11.76c-.21-10.36-.14-22.13-.26-46.57-.01-3.28.52-6.64.89-9.89a.69.686-87.125 0 1 .67-.61c8.5-.04 17.11-1.37 25.55-.92 6.71.35 12.27 1.18 18.23.75q5.75-.42 6.24-.28"></path><path fill="#fff" fill-rule="evenodd" d="M816.753 728.053c6.271-.017 14.098 1.674 14.12 9.681s-7.796 9.741-14.067 9.758c-6.272.017-14.099-1.674-14.121-9.681-.021-8.007 7.796-9.741 14.068-9.758m7.543 9.54a4.75 4.75 0 0 0-4.658-4.84l-5.419-.104a4.75 4.75 0 0 0-4.84 4.658l-.015.76a4.75 4.75 0 0 0 4.658 4.84l5.419.104a4.75 4.75 0 0 0 4.84-4.658zM854.99 741.76l-.12.16a.567.564 18.309 0 0 .46.91q4.1-.09 10.67.03.9.02 1.23-.82.24-.59.91-.84a.304.271 34.185 0 1 .15-.02l3.15.25a1.025 1.023 2.113 0 1 .95 1.02v3.8a.96.96-45 0 1-.96.96h-22.54a.666.663 87.13 0 1-.66-.6c-.61-6.61 3.07-8.95 8.91-9.86 3.36-.53 6.88-.58 8.34-2.04a1.057 1.057-61.093 0 0-.51-1.77q-6.34-1.48-10.13 1.39a2.667 2.646-52.745 0 1-2.57.36l-2.43-.95a1.146 1.144 34.037 0 1-.37-1.9q2.62-2.47 5.53-3.1c4.13-.89 15.53-1.66 17.15 3.83 2.23 7.57-9.18 7.46-15.27 8.13a2.78 2.776 15.678 0 0-1.89 1.06M784.18 747.18h-23.57a.731.721-1.228 0 1-.73-.69c-.27-5.98 2.38-8.7 8.51-9.74q4.51-.77 7.7-1.13a1.692 1.554-14.525 0 0 1.43-2.21q-.23-.51-1.65-.74-5.92-.95-9.21 1.91a2.106 2.102-54.744 0 1-2.14.37l-3.38-1.32a.86.856 32.581 0 1-.31-1.39q2.84-2.99 6.72-3.67c4.1-.72 13.36-1.04 16.25 2.91 2.2 3 .03 6.9-3.2 7.67q-3.71.89-9.66 1.25-2.42.14-3.98 1.43a.667.667-65.031 0 0 .43 1.18l10.61-.06a1.465 1.428 21.495 0 0 1-.42q.16-.15.34-.76a.768.763 8.836 0 1 .73-.53h4.11a.75.75 45 0 1 .75.75v4.44a.75.75-45 0 1-.75.75M897.26 735.36a.497.495.543 0 0 .63.64q5.18-1.81 11.1-.8c2.8.47 5.58 1 6.65 3.57 1.5 3.58-1.06 6.76-4.48 7.64-5.26 1.37-16.04 2.11-19.54-3.02q-1.28-1.87-1.23-5.45.09-7.24 7.62-9.06c5.15-1.24 14.12-1.35 17.1 3.51a.833.827 70.289 0 1-.59 1.26l-4.31.6a1 1 56.785 0 1-.67-.14q-4.78-2.97-10.05-.88-1.68.67-2.23 2.13m12.21 5.438a5.96 2.57-.4 0 0-5.978-2.528 5.96 2.57-.4 0 0-5.942 2.612 5.96 2.57-.4 0 0 5.978 2.528 5.96 2.57-.4 0 0 5.942-2.612"></path><path fill="#980130" fill-rule="evenodd" d="M824.281 738.353a4.75 4.75 0 0 1-4.84 4.658l-5.419-.104a4.75 4.75 0 0 1-4.658-4.84l.015-.76a4.75 4.75 0 0 1 4.84-4.658l5.419.104a4.75 4.75 0 0 1 4.658 4.84zM909.47 740.798a5.96 2.57-.4 0 1-5.942 2.612 5.96 2.57-.4 0 1-5.978-2.528 5.96 2.57-.4 0 1 5.942-2.612 5.96 2.57-.4 0 1 5.978 2.528"></path><path fill="#700122" fill-rule="evenodd" d="M805.41 770.32a.675.671-78.272 0 1 .94-.62q6.96 3.01 15.54 5.89c4.52 1.51 9.04 2.05 13.68 1.72q10.55-.74 23.82-4.03c3.76-.93 7.65-2.88 10.87-4.62a.935.929-10.936 0 1 1.37.92c-.67 5.95-.38 11.07-.33 16.74q.2 22.32.08 35.49a1.135 1.117 85.048 0 1-.91 1.1c-10.78 2.1-19.24 3.91-29.47 4.16q-9.35.22-18.51-1.3-11.27-1.88-16.05-2.72a1.244 1.237 4.983 0 1-1.03-1.22z" data-source="https://football-logos.cc"></path><!-- source: https://football-logos.cc --></svg>