<svg xmlns="http://www.w3.org/2000/svg" xml:space="preserve" id="Layer_1" x="0" y="0" version="1.1" viewBox="0 0 71.5 90.5"><style>.st0{fill:#e1001e}.st1{fill:#fff}.st2{fill:#ffcb00}</style><g id="LOGO-NECAXA"><g id="Grupo_1" transform="translate(-74.246 -121.433)"><g id="Grupo_17529" transform="translate(86.245 125.433)"><path id="Trazado_21949" d="m58.3 20.3-.9-4.6-4.5 1.4c-2.6.8-5.3 1.3-8.1 1.3-6.3 0-12.2-2.5-18.2-7.7L23.7 8l-2.9 2.8C16 15.7 9.4 18.4 2.5 18.3c-2.8 0-5.5-.3-8.2-1l-4.2-.9-.9 4.2C-13 31-12.4 41.9-8.9 52-5.1 62.3 1.4 71.5 10 78.3c4.2 3.3 8.8 6 13.7 8.1 0 0 16.6-7.7 25.4-20.5 9.3-13.2 12.4-28.6 9.2-45.6m-11 44.4C38.8 77 23.7 84 23.7 84c-4.4-1.9-8.6-4.4-12.3-7.4-8.3-6.7-14.5-15.5-18-25.5-3.4-9.6-4-20.1-1.9-30.1l.4-2 1.9.4c2.9.7 5.8 1 8.7 1 7.5.2 14.7-2.8 19.9-8.1l1.3-1.3 1.4 1.2c6.4 5.6 12.8 8.3 19.7 8.3 3 0 5.9-.5 8.7-1.4l2.1-.6.4 2.1c3.1 16.5.2 31.3-8.7 44.1" class="st0"/><path id="Trazado_21950" d="m55.6 18.6-2.1.6c-2.8.9-5.8 1.4-8.7 1.4-6.9 0-13.3-2.7-19.7-8.3l-1.4-1.2-1.3 1.3c-5.2 5.3-12.4 8.3-19.9 8.1-2.9 0-5.9-.4-8.7-1l-1.9-.5-.4 2c-2.2 10-1.5 20.5 1.8 30.1 3.5 10 9.8 18.8 18.1 25.4 3.8 3 7.9 5.5 12.3 7.4 0 0 15-7 23.6-19.3 8.9-12.8 11.8-27.6 8.7-44zm-8.3 18.3h7.9c-.6 8.6-3.3 17-7.9 24.3zM23.7 13.8c9.4 8.3 19.4 10.7 30.4 7.3.9 4.6 1.3 9.3 1.1 14h-63c-.2-4.6.2-9.2 1.2-13.7 12.2 2.7 22.5.2 30.3-7.6m3.9 23.1v42.9c-2.3 1.4-3.8 2.1-3.8 2.1-1.3-.6-2.6-1.2-3.8-1.9V36.9zm-35.2 0H.3v24.2c-2-3.3-3.7-6.9-5-10.6-1.6-4.4-2.6-9-2.9-13.6M6.2 69V36.9h7.7v39.2C11.1 74 8.6 71.6 6.2 69m27.4 6.8V36.9h7.7V69c-2.4 2.5-5 4.8-7.7 6.8" class="st1"/><path id="Trazado_21951" d="M.2 36.9h-7.9c.3 4.6 1.3 9.2 2.8 13.6 1.3 3.7 3 7.2 5 10.6z" class="st0"/><path id="Trazado_21952" d="M41.3 36.9h-7.7v38.9c2.8-2 5.3-4.3 7.7-6.8z" class="st0"/><path id="Trazado_21953" d="M19.9 80c1.2.7 2.5 1.3 3.8 1.9 0 0 1.5-.7 3.8-2.1V36.9h-7.7V80z" class="st0"/><path id="Trazado_21954" d="M13.9 36.9H6.2V69c2.3 2.6 4.9 4.9 7.7 7z" class="st0"/><path id="Trazado_21955" d="M-6.6 21.4c-.9 4.5-1.3 9.1-1.2 13.7h63c.1-4.7-.2-9.4-1.1-14-11 3.4-21 1-30.4-7.3-7.8 7.8-18.1 10.3-30.3 7.6" class="st0"/><path id="Trazado_21956" d="M47.3 36.9v24.3c4.6-7.3 7.3-15.7 7.9-24.3z" class="st0"/><path id="Trazado_21957" d="M20.6 5.6 23.7 4l3.2 1.7-.7-3.5 2.7-2.4-3.7-.4L23.7-4 22.3-.7l-3.7.4 2.7 2.4z" class="st2"/><path id="Trazado_21958" d="M41.9 10.4 45 8.8l3.2 1.7-.7-3.5 2.7-2.4-3.7-.4L45 .8l-1.4 3.3-3.7.4L42.6 7z" class="st2"/><path id="Trazado_21959" d="m-.7 10.4 3.1-1.6 3.2 1.7-.7-3.6 2.7-2.4L4 4.1 2.5.8 1 4.1l-3.7.4L.1 7z" class="st2"/></g><g id="Grupo_17530" transform="translate(93.579 146.589)"><path id="Trazado_21960" d="m41.8 4.5 3.4 7.7h-1.5l-.9-1.7h-3.4l-.4 1.7h-2.4l2.2-8.3c.1-.5.7-.9 1.3-.9.7 0 1.2.4 1.7 1.5m-.1 4.1-1.4-3.2q-.15-.3-.3 0l-.5 3.2z" class="st1"/><path id="Trazado_21961" d="m36 2.7-3.2 4.9 3 4.6h-2.2L31 8.4l-2 3.8h-2.4l2.7-4.6L24.7.5l2.7 1L31 7.1l2.7-4.4z" class="st1"/><path id="Trazado_21962" d="M25.7 12.2h-2.1L22.3 8 19 7.8v4.3h-2.2V-2.6c-.1-.7.5-1.3 1.2-1.4h.1c1.2 0 2.2.7 2.6 1.9.1 0 3.6 9.8 5 14.3m-4-6.5-2-6.6c-.2-.5-.7-.6-.7-.2l.1 6.7z" class="st1"/><path id="Trazado_21963" d="M15.6 9.6v2.6H9.1c-.9 0-1.6-.7-1.7-1.6V2.3c.1-.9.7-1.7 1.5-2.1L15.6-4v3.1l-6 3c-.6.3-.7.7-.7 1.6v5.1c0 .9.4 1.1.9 1.1z" class="st1"/><path id="Trazado_21964" d="M5.9 10.1v2.1h-7c-.4 0-1.2-.8-1.2-1.9V4.8c-.1-1 .6-2 1.6-2.2l6.6-1.2v2.3l-6.2.9c-.3.1-.5.2-.5.7v.8c0 .4.2.5.6.5l6-.7V8l-6 .5c-.5 0-.6.2-.6.6v.7c0 .2.1.5.6.5z" class="st1"/><path id="Trazado_21965" d="M-5.7 3.3v6.9l-3.9-5.9c-.1-.1-.1-.2-.2-.2-.5-.5-1.4-.5-1.9 0-.2.2-.3.6-.3.9v7.2h1.6V6.1s3.6 5.4 3.6 5.5c.5.7 1.5.8 2.1.3.2-.1.3-.3.4-.5s.2-.4.2-.6V3z" class="st1"/></g></g></g></svg>