<svg xmlns="http://www.w3.org/2000/svg" xml:space="preserve" width="214.955" height="252"><defs><clipPath id="a" clipPathUnits="userSpaceOnUse"><path d="M0 0h3605.75v4233H0Z"/></clipPath></defs><g clip-path="url(#a)" transform="matrix(.05906 0 0 -.05906 1 251)"><path d="M851.648 3175.25c-56.906 1.5-93.269 82.46-265.925-25.52-93.239-58.32-364.817-289.07-259.446-409.58 66.028-75.52 87.731-26.68 129.196-244.49l-398.48.71c-17.321-83.88-1.118-373.46-.528-478.83 1.125-197.29-24.113-149.42 58.922-299.4 33.566-60.61 21.718-42.2 61.875-61.82-53.641-387.44-67.032-629.15 227.64-916.859C674.574 476.172 1117.4 606.68 1399.86 510.422c156.33-53.25 268.89-138.274 353.54-256.184 27.55-38.359 47.18-97.918 81.33-131.648 248.61 565.851 681.21 319.379 1110.24 458.73 462.26 150.129 513.37 668 417.69 1071.25l87.34 3.06c19.89 47.77 86.22 108.95 98.56 145.66 10.51 31.36 4.65 206.04 3.65 251.32l-57.75 2.03c-14.18 292.71-102.25 364.42-400.88 341.42-28.52 170.4 96.58 299.03 199.2 332.8-40.67 260.94-191.58 499.18-454.92 565.59-128.09 32.31-110.28-32.57-191-22.84-56.64 6.82-146.44 137.46-306.95 203.25-38.26 15.66-162.66 44.17-187.09 67.12 61.44 9.97 159.88-3.47 317.42 24.95 104.53 18.86 164.69 48.68 252.87 91.27 108.59 52.44 205.51 153.57 263.54 255 19.92 34.82 52.59 84.93 43.57 127.17-37.07-.51-124.24-58.3-162.58-78.38-590.15-308.97-771.5-88.16-1285.28 155.65-412.19 195.62-861.559-77.88-791.2-540.36 8.895-58.39 57.867-130.94 47.219-183.1-27.781-136.04 6.199-121.54 13.269-218.93" style="fill:#fff;fill-opacity:1;fill-rule:evenodd;stroke:none"/><path d="M731.723 3709.08c0-242.87 38.066-216.83 49.593-285.3l-5.515-164.01c-126.004 0-180.684-31.29-283.324-113.31-77.813-62.19-106.282-89.24-171.399-172.33-92.539-118.09-110.281-206.79 2.574-298.37 49.223-39.94 46.922-66.37 73.067-120.8H0l6.68-498.08c10.91-261.82-34.852-194.59 75.504-388.92 56.738-99.91 5.972-115.03 5.972-293.56 0-246.85 75.145-466.259 213.617-605.88 160.743-162.071 253.11-217.782 503.95-254.059 268.417-38.82 652.017 33.41 878.217-258.883 28.48-36.797 59.19-70.547 78.15-115.719 15.54-36.961 50.72-100.37 54.01-139.859 29.96 8.012 27.79 14.281 40.62 47.512l96.88 176.297c156.76 233.82 254.1 207.472 499.67 240.722l173.9 11.219c52.76 1.328 119.36 10.32 168.07 17.059 91.66 12.691 215.49 48.75 284.49 85.73 253.52 135.801 376.15 412.199 376.15 734.181 0 114.61-26.44 243.86-26.44 290.75 69.06 0 80 48.43 142.75 139.24 11.31 16.33 33.56 38.26 33.56 54.57v308.35h-61.7c0 283.02-159.77 364.04-405.55 343.61 3.03 136.05 119.06 206.57 211.58 255.49-5 224.37-157.89 467.23-340.86 575.63-50.19 29.74-105.86 50.25-163.32 65.86-137.26 37.34-99.55-4.64-171.46-20.25-50.7-11-95.37 61.69-130.22 88.8-24.51 19.09-42.95 32.01-66.77 47.77l-70.67 43.92c132.85 0 318.73 76.15 430.8 159.74 94.05 70.12 248.03 246.04 248.03 360.06 0 60.81-45.88 95.26-130.61 42.41-23.86-14.9-42.36-23.17-69.23-36.54-225.84-112.49-293.03-164.46-558.34-164.46-233.58 0-522.11 221.78-740.44 308.47-316 125.49-652.549 45.65-799.556-249.6-27.434-55.07-55.711-139.32-55.711-217.46m119.925-533.83c-7.07 97.39-41.05 82.89-13.269 218.93 10.648 52.16-38.324 124.71-47.219 183.1-70.359 462.48 379.01 735.98 791.2 540.36 513.78-243.81 695.13-464.62 1285.28-155.65 38.34 20.08 125.51 77.87 162.58 78.38 9.02-42.24-23.65-92.35-43.57-127.17-58.03-101.43-154.95-202.56-263.54-255-88.18-42.59-148.34-72.41-252.87-91.27-157.54-28.42-255.98-14.98-317.42-24.95 24.43-22.95 148.83-51.46 187.09-67.12 160.51-65.79 250.31-196.43 306.95-203.25 80.72-9.73 62.91 55.15 191 22.84 263.34-66.41 414.25-304.65 454.92-565.59-102.62-33.77-227.72-162.4-199.2-332.8 298.63 23 386.7-48.71 400.88-341.42l57.75-2.03c1-45.28 6.86-219.96-3.65-251.32-12.34-36.71-78.67-97.89-98.56-145.66l-87.34-3.06c95.68-403.25 44.57-921.121-417.69-1071.25-429.03-139.351-861.63 107.121-1110.24-458.73-34.15 33.73-53.78 93.289-81.33 131.648-84.65 117.91-197.21 202.934-353.54 256.184-282.46 96.258-725.286-34.25-994.958 229.039-294.672 287.709-281.281 529.419-227.64 916.859-40.157 19.62-28.309 1.21-61.875 61.82-83.035 149.98-57.797 102.11-58.922 299.4-.59 105.37-16.793 394.95.527 478.83l398.481-.71c-41.465 217.81-63.168 168.97-129.196 244.49-105.371 120.51 166.207 351.26 259.446 409.58 172.656 107.98 209.019 27.02 265.925 25.52" style="fill:#2b4b75;fill-opacity:1;fill-rule:evenodd;stroke:none"/><path d="M3317.19 1102.59c38.85 145.65 34.96 289.98 10.71 433.65-11.35 67.12-31.53 139.09-55.04 211.54-33.91 104.51-74.79 210.05-106.19 303.69-24.63 73.43-89.2 225.5-112.62 338.12-7.85 37.78-11.08 71.13-6.6 95.56 22.54 123.15 90 220.26 196.79 295.3-53.86 225.46-188.67 379.13-404.37 461.5-16.7 6.38-37.7 8.71-55.04 5.07-111.84-23.45-222.4-54.29-335-72.63-123.46-20.12-248.16-24.35-372.66 2.68-108.38 23.53-204.12 72.65-294.06 133.38-174.44-123.86-229.08-151.7-433.49-186.58-119.6-20.41-237.92-8.12-342.75 65.02-42.929 29.96-88.347 56.34-135.581 86.22-3.5-35.23 3.254-87.22 10.004-118.14-41.891-7.85-72.266-12.65-106.238-18.87-10.192-1.86-47.617 12.41-58.879 10.16-48.086-9.62-87.985-21.05-135.485-53.68-76.82-52.77-140.679-120.2-192.992-198.25-36.742-54.83-36.691-112.58 2.063-169.19 32.722-47.8 62.316-96.98 78.758-151.07 10.656-35.02 10.656-57.7 5.25-79.69-37.481-152.37-94.243-313.95-142.864-475.68-35.457-117.9-66.57-235.88-82.746-350.4-12.277-87.06-33.105-174.11-34.027-261.33-2.945-279.01 124.965-490.54 350.996-647.732 176.348-122.636 376.351-122.289 577.691-111.84 132.13 6.84 258.69-10.136 377.69-70.089 127.52-64.25 231.69-155.637 313.66-278.547 14.25 22.078 26.26 40 37.55 58.34 82.31 133.839 199.42 216.679 357.05 230.988 92.27 8.39 185.73 9.23 278.42 6.242 135.9-4.383 268.19 9.02 395.18 59.328 178.16 70.539 365.21 260.75 414.82 446.93" style="fill:#fff;fill-opacity:1;fill-rule:evenodd;stroke:none"/><path d="M2838.95 859.641c101.76-3.192 198.01 16.98 293.54 47.148 99.12 31.313 158.39 97.011 184.7 195.801 50.96 191.02 28.42 379.8-17.24 567.74-1.98 8.12-14.5 19.27-22.33 19.45-68.36 1.53-136.74.88-207.17.88 16.57-51.74 35.12-96.7 45.14-143.49 21.47-100.11 44.24-200.53 55.18-302.03 6.17-57.4-15.26-117.64-74.05-145.06-53.61-25-96.75 10.35-134.72 43.43-61.19 53.28-121.02 108.24-179.51 164.47-110.73 106.44-219.65 214.79-330.67 320.93-13.57 12.99-35.43 17.31-53.46 25.65l-5.56-12.23c147.34-140.67 294.49-281.49 442.07-421.88 53.44-50.85 104.72-104.71 162.58-150.06 93.3-73.128 214.76-72.331 257.01 81.97 34.22 125 29.96 249.61 10.88 375.29-5.82 38.12-14.14 75.88-21.31 113.83 4.65 2.95 9.3 5.93 13.98 8.9 10.51-11.06 28.79-21.15 30.32-33.33 12.09-97.55 28.8-195.54 28.35-293.31-.33-76.37-13.12-156.12-38.2-228.17-43.92-126.101-164.26-163.781-280.33-97.57-20.29 11.57-40.08 25.45-56.86 41.6-164.92 158.78-336.19 311.78-490.86 480-92.18 100.24-187.44 147.02-322.24 131.84-68.05-7.65-142.5-18.12-205.72 28.89-3.01 2.26-8.85 2.47-12.84 1.51-50.31-12.3-100.49-24.98-153.44-38.25 215.89-209.44 428.95-415.92 641.71-622.72 69.66-67.722 112.05-78.85 197.09-31.499 58.2 32.419 109.19 77.789 165.97 119.219 55.51-67.09 66.68-156.149 77.99-248.949m357.44 1953.939c-67.44 185.07-199.82 303.82-372.95 382.21-10.39 4.71-28.24-1.8-40.58-7.53-52-24.1-101.59-54.12-154.98-74.29-261.78-98.94-524.14-134.71-786.05 1.75-10.26 5.35-29.28 3.6-39.66-2.54-119.28-70.43-246.22-114.51-384.92-129.15-151.08-15.93-292.17 5.86-421.98 87.49-9.75 6.14-19.993 11.51-37.309 21.44 6.137-14.83 7.621-20.65 10.691-25.48 65.168-102.01 166.328-136.07 279.208-143.49 193.52-12.7 372.29 42.17 543.1 127.27 26.4 13.15 46.91 13.88 73.58 1.57 162.09-74.89 332.73-93.34 507.71-66.18 152.05 23.59 296.72 70.51 428.3 153.38 10.06 6.34 31.53 5.75 41.62-.86 101.53-66.52 183.15-152.14 244.89-257.34 17.63-30.08 14.33-48.25-11.57-70.64-94.76-81.85-134.31-187.39-124.76-311.24 2.44-31.73 10.62-63.01 16.15-94.5 6.15-1.14 12.3-2.27 18.5-3.4 13.24 22.27 36.97 44.03 38.06 66.88 6.8 140.74 59.06 257.11 172.95 344.65m-1413.28 496.87c-174.44-123.86-229.08-151.7-433.49-186.58-119.6-20.41-237.92-8.12-342.75 65.02-42.929 29.96-88.347 56.34-135.581 86.22-8.672-87.04 15.774-159.91 64.469-223.49 104.972-137.07 254.052-170.31 414.692-161.5 159.58 8.72 307.64 62.75 450.14 133.57 16.23 8.06 43.18 8.88 59.12.95 124.53-62.03 258.21-81.17 393.91-77.99 164.74 3.83 322.87 41.42 468.16 123.97 9.75 5.53 30.78 5.65 37.95-1 85.59-79.55 165.88-163.97 221.56-268.22 5.47-10.22 10.04-27.65 5.12-35.6-46.97-75.8-69.53-158.98-71.87-246.64-1.78-67.22 4.59-134.64 7.54-207.18 41.3 37.81 73.86 67.16 105.74 97.2 5.78 5.46 12.15 13.59 12.67 20.87 10.82 149.69 81.49 264.5 203.75 350.4-53.86 225.46-188.67 379.13-404.37 461.5-16.7 6.38-37.7 8.71-55.04 5.07-111.84-23.45-222.4-54.29-335-72.63-123.46-20.12-248.16-24.35-372.66 2.68-108.38 23.53-204.12 72.65-294.06 133.38M504.973 2781.6c9.746-7.45 20.261-14.09 29.125-22.48 48.257-45.65 92.215-96.89 145.004-136.4 75.003-56.14 68.714-129.31 58.398-206.24-1.492-11.12-5.855-21.86-7.398-27.45-42.536 28.12-85.329 56.43-136.086 90.01 4.32 101.19-52.059 197.22-99.637 295.96 3.512 2.21 7.059 4.4 10.594 6.6m19.359-307.01c-12.906 51.46-20.523 100.99-38.121 146.68-18.359 47.69-49.16 90.53-68.809 137.87-8.964 21.6-13.07 53.33-3.547 72.64 14.043 28.51 49.079 35.77 77.063 19.64 35.121-20.24 68.793-44.97 98.102-72.98 123.8-118.26 246.488-237.72 367.875-358.46 29.605-29.44 61.895-42.97 102.395-42.58 57.58.58 115.47-3.62 172.62 1.27 48.26 4.15 78-13.08 98.85-54.43 8.84-17.51 21.85-32.93 35.52-53.15 45.43 75.2 111.02 101.84 193.85 104.9-8.42 10.05-12.45 15.74-17.36 20.57-238.89 234.94-477.56 470.13-717.106 704.39-54.867 53.68-129.41 62.54-199.59 22.2-97.418-56.02-176.078-133.87-238.375-226.82-36.742-54.83-36.691-112.58 2.063-169.19 52.035-75.97 96.093-155.48 92.113-252.55zm707.548 1291.34c49.58 12.17 93.5 22.94 140.18 34.4-104.59 69.28-86.77 59.61-140.18-34.4m-326.122-82.84c-10.465 68.86-4.817 125.46 31.937 182.25 35.075-69.9 22.285-125.36-31.937-182.25m126.762-225.86c34.12-51.36 113.6-92.37 165.89-88.27-26.84 77.83-91.75 87.25-165.89 88.27m1184.93 126.98c-181.98 15.9-363.97 31.79-545.14 47.61v135.24c170.96-97.17 355.59-144.67 546.93-170.28-.6-4.19-1.19-8.38-1.79-12.57m-959.12 358.03c-23.94 21.53-43.19 38.8-62.44 56.11.93 2.67 1.83 5.34 2.76 7.99 24.68-3.55 49.39-7.11 76.78-11.07-6.23-19.29-11.09-34.39-17.1-53.03m-343.56-32.16c69.644 83.52 156.51 138.15 266.02 147.31 35.33 2.96 74.48-3.01 107.45-16.06 65.15-25.79 137.67-47.83 187.65-92.99 49.8-45.02 87.39-112.68 108.39-177.5 16.3-50.42 5.17-112.99-5.46-167.9-9.8-50.62-66.15-67.08-102.57-37.39 24.94-71.37-30.02-109.84-65.2-159.69 9.8-6.37 19.86-12.88 34.06-22.09-77.84-52.79-158.71-75.94-247.51-69.39-1.78 4.89-3.56 9.78-5.31 14.66 44.11 17.36 88.21 34.73 134.2 52.84-41.55 1.36-81.38-5.68-116.99 29.79-41.5 41.35-14.5 72.53 3.21 111.65-60.27-91.85-139.99-41.48-214.491-33.46v-86.88c-74.391 66.15-115.367 143.46-129.367 236.52 21.5-3.04 21.5-3.04 66.968-61.25 8.18 36.81 16.582 82.26 28.59 126.72 15.371 56.95 66.84 62.6 113.31 76.74-9.73 1.1-19.43 2.95-29.19 3.18-66.499 1.55-96.667 51.81-63.835 111.78 16.715 30.52 40.725 57.05 67.545 93.77-38.53-23.51-70.467-43.24-102.666-62.51-11.605-6.97-23.844-12.84-35.781-19.19-78.105-85.5-85.477-192.01-64.883-294.21 56.766-281.57 346.28-406.21 595.91-263.64 177.78 101.54 366.78 165.41 573.6 170.22-137.91 30.87-277.1 25.23-411.03 10.13 6.02 61.19 18.12 119.69 15.66 177.56-2.42 57.1-19.6 113.56-30.28 170.18-1.14-.12.5.59 1.5.08 7.87-3.9 15.65-7.95 23.36-12.13 204.01-111.07 413.76-205.22 649.54-224.71 192.91-15.93 372.35 19.93 531.21 136.12 76.14 55.68 141.31 128.37 160.9 178.33-33.1-19.17-66.01-38.73-99.37-57.46-274.59-154.04-556.98-181.78-847.6-48.61-143.2 65.62-284 136.51-427.39 201.74-103.37 47.03-209.98 87.15-326.76 79.19-154.65-10.52-268.078-86.95-343.39-221.45m-41.079-467.53c51.219-76.86 118.247-133.84 205.199-164.63 129.41-45.81 255.81-29.36 378.87 23.5 79.54 34.18 156.89 73.53 236.34 108.03 265.57 115.36 518.89 91.8 758.78-70.63 19.33-13.07 36.34-29.55 51.01-50.79-25.55 11.27-50.99 22.86-76.7 33.74-129.88 55.02-264.27 89.32-406.4 79.61-108.48-7.42-206.35-52.36-306.11-91.33-106.46-41.59-212.63-88.58-323.36-113.34-162.49-36.27-320.76-19.48-442.906 112.97-33.809 36.64-57.394 82.73-85.68 124.5 3.653 2.78 7.301 5.56 10.957 8.37m290.009 329.47c21.31 25.05 40.39 49.38 61.45 71.87 50.45 53.91 51.37 53.67 120.05 23.86 64.03-27.79 81.57-52.18 78-112.03-1.37-23.36-2.51-47.64-9.88-69.43-4.78-14.16-20.6-24.62-31.59-36.63-.88-.98-2.67-1.17-4.06-1.64-108.79-36.13-132.4-26.97-187.98 73.51-8.49 15.32-16.06 31.15-25.99 50.49m673.82-3115.879c81.74 106.168 188.73 158.589 311.35 179.027 70.84 11.781 143.22 14.73 214.94 20.91 144.24 12.391 272.02 60.094 370.32 171.872 3.63-1.59 7.26-3.19 10.91-4.78-4.39-11.35-6.03-25.049-13.51-33.701-85.02-98.059-194.22-150.278-321.95-164.559-78.99-8.871-158.27-15.469-237.49-22.242-137.71-11.746-242.05-77.84-317.22-192.457-6.23-9.531-13.87-18.121-22.47-29.25-66.79 99.969-143.91 186.09-256.68 226.098-62.65 22.242-130.58 40.402-196.3 40.98-152.98 1.34-306.53-19.16-459.014-12.289-204.375 9.211-391.144 74.398-521.324 245.32-91.769 120.47-118.793 260.03-96.68 409.01 8.09 54.51 19.051 108.59 28.832 163.53-25.707 7.94-48.492 7.88-54.304-24.43-24.125-134-44.071-268.68-6.903-403.26 59.996-217.18 214.989-338.549 420.547-403.1 151.789-47.652 309.071-34.91 465.406-33.461 110.3 1.02 221.85 1.071 330.8-13.668 138.73-18.761 235.65-108.363 311.99-221.269 10.69-15.832 21.06-31.871 34.96-52.922 25.59 32.398 49.17 63.34 73.83 93.352 86.64 105.296 197.09 160.687 334.75 160.738 116.97.051 235.61 2.031 341.46 57.398 69.11 36.153 129.97 88.051 197.27 134.813 2.68-37.449 8.36-82.981 8.28-128.52-.04-31.301 10.86-44.32 41.08-40.043 88.71 12.492 177.32 25.571 266.01 38.364 8.26 1.187 16.56 2.027 32.36 3.898-61.46-83-139.19-131.301-226.4-165.84-126.99-50.308-259.28-63.711-395.18-59.328-92.69 2.988-186.15 2.148-278.42-6.242-157.63-14.309-274.74-97.149-357.05-230.988-11.29-18.34-23.3-36.262-37.55-58.34-81.97 122.91-186.14 214.297-313.66 278.547-119 59.953-245.56 76.929-377.69 70.089-201.34-10.449-401.343-10.796-577.691 111.84C339.098 918.43 211.188 1129.96 214.133 1408.97c.922 87.22 21.75 174.27 34.027 261.33 3.141 22.24 16.094 31.19 39.832 30.01 39.653-1.98 79.446-.53 115.211-.53-17.476-68.13-39.148-133.57-50.469-200.74-27.328-161.97 14.61-305.93 125.34-428.42 151.699-167.8 345.918-202.89 560.196-183.511 166.28 15.051 333.04 41.082 499.6-4.32 117.26-31.969 212.41-92.309 278.13-196 5.35-8.43 11.47-16.398 21.52-30.648" style="fill:#2b4b75;fill-opacity:1;fill-rule:evenodd;stroke:none"/><path d="M1258.33 3942.24c6.01 18.64 10.87 33.74 17.1 53.03-27.39 3.96-52.1 7.52-76.78 11.07-.93-2.65-1.83-5.32-2.76-7.99 19.25-17.31 38.5-34.58 62.44-56.11m-94.63-170.22c9.93-19.34 17.5-35.17 25.99-50.49 55.58-100.48 79.19-109.64 187.98-73.51 1.39.47 3.17.66 4.06 1.64 10.99 12.01 26.81 22.47 31.59 36.63 7.37 21.79 8.51 46.07 9.88 69.43 3.57 59.85-13.97 84.24-78 112.03-68.68 29.81-69.6 30.05-120.05-23.86-21.06-22.49-40.14-46.82-61.45-71.87m-248.93 138.06c69.644 83.53 156.51 138.15 266.02 147.31 35.33 2.96 74.48-3.01 107.45-16.06 65.15-25.78 137.67-47.83 187.65-92.99 49.8-45.02 87.39-112.68 108.39-177.5 16.3-50.42 5.17-112.99-5.46-167.9-9.81-50.62-66.15-67.08-102.57-37.39 24.94-71.37-30.02-109.84-65.2-159.69 9.8-6.37 19.86-12.88 34.06-22.09-77.84-52.79-158.71-75.94-247.51-69.39-1.78 4.89-3.56 9.78-5.31 14.66 44.11 17.36 88.21 34.73 134.2 52.84-41.55 1.36-81.4-5.68-116.99 29.79-41.5 41.35-14.5 72.53 3.21 111.65-60.27-91.85-139.99-41.48-214.491-33.46v-86.88c-74.403 66.15-115.367 143.46-129.367 236.54 21.5-3.06 21.5-3.06 66.968-61.27 8.18 36.81 16.582 82.26 28.59 126.72 15.371 56.96 66.84 62.6 113.31 76.74-9.73 1.1-19.43 2.95-29.19 3.18-66.499 1.55-96.667 51.81-63.835 111.78 16.715 30.52 40.725 57.05 67.545 93.77-38.53-23.51-70.467-43.24-102.666-62.51-11.605-6.96-23.844-12.84-35.781-19.18.016.03.977 1.33.977 1.33M3248.23 2034.99H3136.1c-27.66 0-50.27-22.78-50.27-50.64 0-27.85 22.61-50.65 50.27-50.65h112.13zm-623.03-94.47 40.7 5.86v357.24l-42.95 5.85v89.07h188.5v-452.16l40.7-5.86v-87.78H2625.2Zm-405.94 190.03c-2.69 0-4.88-2.21-4.88-4.91v-153.25h108.32c32.7 0 59.43 26.95 59.43 59.9v38.38c0 32.94-26.73 59.88-59.43 59.88zm-202.85-274.89v97.76l43.5 5.84v344.3l-43.5 8.77v86.21h198.03v-193.43c29.98 26.79 73.06 43.59 120.94 43.59 58.86 0 110.48-25.38 139.43-63.51 44.86-59.1 50.39-208.18 4.32-268.93-28.95-38.13-80.57-63.52-139.46-63.52-105.78 0-217.38 2.92-323.26 2.92m-443.05 258.76h201.65v45.66c0 24.7-20.06 44.93-44.57 44.93h-112.51c-24.52 0-44.57-20.23-44.57-44.93zm339.63-44.01c0-18.46-15-33.56-33.32-33.56h-145.5c.4-.38.78-.8 1.11-1.22h-167.26v-50.06c0-85.97 194.61-43.95 243.09-32.95v-99.95c-41.4-6.3-102.98-14.61-163.49-16.02-59.82-1.4-118.59 3.93-155.82 24.53-29.11 16.13-49.93 39.9-59.67 70.15-12.87 39.98-18.97 87.78-18.43 134.65.48 43.92 6.8 87.03 18.82 122.16 34.98 102.19 125.65 105.01 221.41 107.73 62.08 1.75 124.53-2.75 155.5-12.4 60.87-18.94 103.56-63.21 103.56-114.79zM774.215 2293.33h183.379v-258.28c0-40.63 32.992-73.88 73.316-73.88 40.32 0 73.3 33.25 73.3 73.88v258.28h149.95V1959.4l50.28-17.56V1854h-172.63v33.6c-34.42-38.99-94.53-50.68-153.607-50.68-45.035 0-91.394 15.99-124.023 45.37-9.828 8.83-18.414 18.88-25.325 30.05-17.261 27.91-22.062 55.68-17.57 88.21v196.12l-37.07 8.78zm-431.867 8.77v-130.79H507.91c27.164 0 49.395 22.38 49.395 49.75v31.29c0 27.36-22.231 49.75-49.395 49.75zm-183.68 95.39h387.391c80.488 0 146.347-66.35 146.347-147.44v-41.11c0-94.11-76.422-171.1-169.824-171.1H346.387v-85.78l39.394-5.85v-91.05H157.02v91.05l42.89 5.85v356.24h-41.242Zm3065.012-104.17c28.84 0 56.11-5.09 80.29-14.11 58.98-22.02 99.47-67.56 99.47-120.17 0-5.42-.41-10.74-1.25-15.98h1.25V1943.5l51.37-5.84v-101.21h-184v25.79c-32.89-26.98-80.3-43.9-132.97-43.9-85.12 0-156.41 44.17-175.04 103.5-8.6 17.11-13.48 36.57-13.48 57.23 0 59.48 40.33 109.11 94.01 120.79h205.31v57.44c0 19.86-20.53 28.78-42.07 33.96-57.17 13.74-134.38-6.86-193.34-15.3v102.73c69.94 4.73 140.43 14.63 210.45 14.63" style="fill:#fff;fill-opacity:1;fill-rule:evenodd;stroke:none"/><path d="M2843.33 1971.43h38.75v-176.95l-38.75-66.99H2561.2v131.46l38.75 60.01v245.85l-38.75 27.7v152.01l38.1 84.17h244.03zm-877.25-86.71 35.62 83.38h20.34v205.49l-56.68 18.46v187.63l29.61 50.77h249.8v-175.51c.86.43 1.74.87 2.62 1.3 29.74 14.42 64.18 21.56 97.2 21.56 38.62 0 79.58-9.64 112.88-29.2 82.93-48.72 98.26-165.33 84.21-257.59-1.97-12.9-4.51-25.34-7.51-37.04-10.75-41.68-28.5-94.16-55.45-138.13-16.88-27.53-37.39-51.71-62.02-67.78-19.76-12.91-42.16-20.57-67.52-20.57-127.63 0-255.35 2.3-383.1 2.3zm-583.7 164.88c0 45.65 5.39 98.51 21.11 145.44 22.34 66.7 65.57 121.38 143.84 126.23l249.8-.14c50.12-3.78 82.37-25.88 103.54-51.29 59.08-70.9 43.96-151.15 43.96-237.96l-74.64-87.05h-20.92l47.07-60.11.78-116.64-2.05-1.1c-33.17-17.59-68.63-29.03-105.17-35.92-67.18-12.69-180.59-14.18-244.48 5.59-47.83 14.79-82.16 41.94-106.57 76.52-45 63.76-56.27 152.83-56.27 236.43m-334.47 147.44v-202.55h12.85c6.66 0 12.18 5.18 12.78 11.74l.07.01v318.27h197.51l72.55-106.98v-330.5l24.2-22.53v-134.37h-152.23l-17.56 32.97h-4.45c-23.67-22.47-55.56-36.24-90.65-36.24-17.35 0-33.92-2.93-50.48-2.93-17.3 0-34.59 2.93-52.727 2.93-39.597 0-97.043 38.36-141.921 85.42-17.094 17.93-32.364 37.11-44.125 55.91-16.684 26.68-33.051 66.06-33.051 97.23v146.7l-40.281 30.34v181.87h224.246zm-481.98 230.61c129.058-8.54 156.925-158.79 157.035-267.48.101-100.29-15.762-257.97-144.899-257.97-49.195 0-99.41-1.01-148.48.04l14.398-23.39v-151.99H194.18l-75.059 96.44v152.01h49.805v205.08l-49.805 80.94v166.92H565.93Zm2385.19-173.96 38.79 52.46c124.04 17.32 254.37 28.48 337.61-.43 64.61-22.44 109.77-73.59 109.77-133.11 0-67.96.04-135.98.04-203.96h49.3v-151.99l-63.81-89.17h-169.89l-13.53 18.7c-26.84-17.6-77.62-26.59-128.15-24.52-52.36 2.15-104.45 16-129.29 31.92-43.13 27.7-62.89 88.2-65.26 151.8-2.96 79.93 21.53 164.8 61.59 195.71l-.43.58h-26.74z" style="fill:#2b4b75;fill-opacity:1;fill-rule:evenodd;stroke:none"/><path d="M3248.23 2034.99H3136.1c-27.66 0-50.27-22.78-50.27-50.64 0-27.85 22.61-50.65 50.27-50.65h112.13zm-623.03-94.47 40.7 5.86v357.24l-42.95 5.85v89.07h188.5v-452.16l40.7-5.86v-87.78H2625.2Zm-405.94 190.03c-2.69 0-4.88-2.21-4.88-4.91v-153.25h108.32c32.7 0 59.43 26.95 59.43 59.9v38.38c0 32.94-26.73 59.88-59.43 59.88zm-202.85-274.89v97.76l43.5 5.84v344.3l-43.5 8.77v86.21h198.03v-193.43c29.98 26.79 73.06 43.59 120.94 43.59 58.86 0 110.48-25.38 139.43-63.51 44.86-59.1 50.39-208.18 4.32-268.93-28.95-38.13-80.57-63.52-139.46-63.52-105.78 0-217.38 2.92-323.26 2.92m-443.05 258.76h201.65v45.66c0 24.7-20.06 44.93-44.57 44.93h-112.51c-24.52 0-44.57-20.23-44.57-44.93zm339.63-44.01c0-18.46-15-33.56-33.32-33.56h-145.5c.4-.38.78-.8 1.11-1.22h-167.26v-50.06c0-85.97 194.61-43.95 243.09-32.95v-99.95c-41.4-6.3-102.98-14.61-163.49-16.02-59.82-1.4-118.59 3.93-155.82 24.53-29.11 16.13-49.93 39.9-59.67 70.15-12.87 39.98-18.97 87.78-18.43 134.65.48 43.92 6.8 87.03 18.82 122.16 34.98 102.19 125.65 105.01 221.41 107.73 62.08 1.75 124.53-2.75 155.5-12.4 60.87-18.94 103.56-63.21 103.56-114.79zM774.215 2293.33h183.379v-258.28c0-40.63 32.992-73.88 73.316-73.88 40.32 0 73.3 33.25 73.3 73.88v258.28h149.95V1959.4l50.28-17.56V1854h-172.63v33.6c-34.42-38.99-94.53-50.68-153.607-50.68-45.035 0-91.394 15.99-124.023 45.37-9.828 8.83-18.414 18.88-25.325 30.05-17.261 27.91-22.062 55.68-17.57 88.21v196.12l-37.07 8.78zm-431.867 8.77v-130.79H507.91c27.164 0 49.395 22.38 49.395 49.75v31.29c0 27.36-22.231 49.75-49.395 49.75zm-183.68 95.39h387.391c80.488 0 146.347-66.35 146.347-147.44v-41.11c0-94.11-76.422-171.1-169.824-171.1H346.387v-85.78l39.394-5.85v-91.05H157.02v91.05l42.89 5.85v356.24h-41.242Zm3065.012-104.17c28.84 0 56.11-5.09 80.29-14.11 58.98-22.02 99.47-67.56 99.47-120.17 0-5.42-.41-10.74-1.25-15.98h1.25V1943.5l51.37-5.84v-101.21h-184v25.79c-32.89-26.98-80.3-43.9-132.97-43.9-85.12 0-156.41 44.17-175.04 103.5-8.6 17.11-13.48 36.57-13.48 57.23 0 59.48 40.33 109.11 94.01 120.79h205.31v57.44c0 19.86-20.53 28.78-42.07 33.96-57.17 13.74-134.38-6.86-193.34-15.3v102.73c69.94 4.73 140.43 14.63 210.45 14.63" style="fill:#fff;fill-opacity:1;fill-rule:evenodd;stroke:none"/></g></svg>