<svg xmlns="http://www.w3.org/2000/svg" width="154" height="200"><style>.shp0{fill:#211915}.shp1{fill:#fff}.shp2{fill:#0056b3}</style><path d="M.07 69.32c0 45.34.02 69.71.06 70.45.04.62.12 1.58.17 2.13.06.55.15 1.32.2 1.7.06.39.24 1.37.4 2.2.17.83.42 1.95.56 2.5s.4 1.45.57 2 .53 1.6.8 2.33c.27.74.73 1.91 1.03 2.6.3.7.85 1.88 1.22 2.64.37.75.9 1.75 1.17 2.23s.72 1.26 1 1.73c.29.48.92 1.47 1.41 2.2.48.74 1.2 1.77 1.58 2.3a82 82 0 0 0 3.45 4.34c.42.49 1.16 1.32 1.64 1.83s1.58 1.62 2.43 2.46c.86.85 2.1 2.02 2.76 2.6.66.59 1.75 1.53 2.42 2.08.68.55 1.84 1.47 2.59 2.04s1.74 1.3 2.2 1.63a88 88 0 0 0 4.19 2.8c.53.33 1.51.94 2.19 1.34s1.73 1.01 2.33 1.34c.6.34 1.95 1.04 2.99 1.57s2.55 1.26 3.36 1.63c.8.36 1.96.87 2.56 1.13.6.25 1.46.61 1.89.78.44.17 1.27.49 1.83.7.57.21 1.51.55 2.1.75.58.21 1.44.49 1.89.64.46.15 1.28.4 1.83.57.55.16 1.61.47 2.36.67s2.23.57 3.29.8c1.06.24 2.66.57 3.56.73s2.05.36 2.56.43a70 70 0 0 0 5.19.57c.73.06 1.91.13 2.62.17.72.04 1.87.07 2.56.07.7 0 1.85-.03 2.56-.07.72-.03 1.9-.11 2.63-.17.73-.05 1.99-.17 2.79-.27.81-.09 1.87-.22 2.36-.29l1.67-.27c.42-.08 1.24-.23 1.82-.34a98 98 0 0 0 4.79-1.06c.59-.15 1.54-.41 2.13-.57.58-.17 1.5-.44 2.03-.6.53-.17 1.47-.47 2.09-.67.62-.21 1.69-.58 2.36-.83.68-.24 1.73-.64 2.33-.88s1.61-.65 2.23-.91c.62-.27 1.88-.83 2.79-1.25s2.37-1.12 3.23-1.57c.85-.44 1.92-1 2.36-1.24.43-.24 1.11-.61 1.49-.83.39-.22 1.34-.79 2.13-1.27s2.12-1.32 2.96-1.87c.84-.56 2.14-1.46 2.89-2 .75-.55 1.74-1.28 2.2-1.63.45-.35 1.22-.95 1.69-1.34.48-.38 1.16-.95 1.53-1.27.37-.31 1.05-.91 1.53-1.33.47-.42 1.47-1.36 2.23-2.08.75-.71 1.8-1.76 2.33-2.33.53-.56 1.22-1.31 1.53-1.66s.94-1.08 1.39-1.63c.46-.55 1.19-1.47 1.63-2.04s1.06-1.39 1.37-1.83.87-1.25 1.23-1.8c.37-.55.86-1.32 1.1-1.7.24-.39.73-1.21 1.09-1.83.36-.63.96-1.75 1.33-2.5.38-.76.86-1.77 1.08-2.27s.6-1.41.85-2.03c.24-.63.64-1.72.88-2.44.23-.71.57-1.82.74-2.46.18-.65.44-1.72.59-2.4s.35-1.7.44-2.27.21-1.45.27-1.97c.05-.51.14-1.62.2-2.46.09-1.36.1-9.52.1-70.65V0H.07z" class="shp0"/><path d="M3.54 71.65c.02 63.23.03 68.26.13 69.25.07.59.18 1.5.26 2.03.07.54.22 1.42.33 1.97.1.55.27 1.33.36 1.73.1.41.34 1.29.53 1.97.2.68.49 1.59.64 2.03s.46 1.28.69 1.87.59 1.46.8 1.93c.21.48.58 1.26.82 1.74.23.47.68 1.33.99 1.9.32.56.84 1.48 1.17 2.03a67 67 0 0 0 2.76 4.17c.31.42.97 1.27 1.46 1.9.5.62 1.34 1.64 1.87 2.26.54.62 1.48 1.67 2.11 2.33.63.67 1.58 1.63 2.13 2.14.54.52 1.45 1.36 2.02 1.87.56.51 1.3 1.16 1.63 1.44.33.27 1.1.91 1.73 1.4.62.5 1.71 1.34 2.42 1.87.72.53 1.78 1.3 2.36 1.7.59.41 1.71 1.15 2.5 1.66.78.5 2.07 1.29 2.86 1.75.78.45 1.92 1.1 2.52 1.43.61.33 2.01 1.05 3.13 1.61 1.11.55 2.61 1.27 3.32 1.58.72.32 1.82.79 2.46 1.06.64.26 1.83.73 2.63 1.03s2.15.78 2.99 1.05c.84.28 2.14.69 2.89.92.75.22 2 .57 2.76.77.77.19 1.95.48 2.63.63s1.65.36 2.16.46c.51.11 1.7.31 2.63.46s2.37.35 3.19.44 1.88.19 2.36.23 1.45.1 2.16.14a69 69 0 0 0 6.19 0c.71-.04 1.68-.1 2.16-.14.47-.04 1.53-.14 2.36-.23.82-.09 2.23-.29 3.12-.43.9-.15 2.17-.38 2.83-.51s1.78-.37 2.49-.53 1.76-.42 2.33-.57 1.49-.4 2.06-.57c.57-.16 1.82-.55 2.79-.86.97-.32 2.53-.86 3.46-1.21s2.32-.9 3.09-1.22 1.95-.83 2.63-1.14c.68-.3 1.99-.93 2.92-1.4.94-.46 2.24-1.13 2.9-1.49s1.82-1.02 2.59-1.47a107.584 107.584 0 0 0 4.66-2.92c.32-.22 1.06-.73 1.62-1.13.57-.41 1.39-1.01 1.83-1.34a131 131 0 0 0 1.9-1.47c.6-.47 1.39-1.12 1.76-1.43s1.34-1.17 2.16-1.91 2.22-2.08 3.09-2.97c.88-.9 2.14-2.26 2.8-3.03.65-.77 1.54-1.83 1.96-2.36.42-.54 1.03-1.35 1.37-1.8a73.553 73.553 0 0 0 2.76-4.17c.32-.51.85-1.44 1.19-2.07.34-.62.89-1.72 1.23-2.43.34-.72.75-1.63.93-2.03.17-.41.47-1.16.66-1.67s.49-1.35.66-1.87c.16-.51.42-1.35.56-1.86.15-.52.33-1.21.4-1.54.08-.33.23-1.03.34-1.56.11-.54.26-1.37.33-1.87s.19-1.36.25-1.93c.11-.98.12-4.84.14-69.42l.01-68.38H3.52z" class="shp1"/><path d="M6.92 18.63V29.6h139.93l-.02-21.93H6.92z" class="shp0"/><path d="M129.63 11.68c-.37.02-.88.09-1.15.15-.26.06-.71.19-.99.3-.29.11-.71.31-.95.45s-.69.51-1 .82c-.48.47-.63.68-.91 1.23-.19.37-.38.83-.44 1.04-.06.2-.15.63-.21.96-.06.35-.1.99-.1 1.54 0 .56.04 1.14.1 1.46.06.3.15.7.21.9s.21.58.34.84c.13.25.34.63.48.83s.42.53.64.74c.21.2.52.46.69.57.16.12.54.31.83.44.29.12.71.27.93.33s.67.15 1 .19c.38.05 1 .07 1.69.04.79-.02 1.26-.07 1.67-.17.31-.08.83-.28 1.16-.44s.81-.46 1.06-.68c.26-.22.61-.57.79-.79.17-.22.44-.64.59-.93s.34-.82.43-1.17.19-1.01.22-1.5c.04-.54.04-1.15 0-1.63-.03-.42-.12-1.01-.2-1.3-.07-.29-.25-.77-.39-1.07-.13-.29-.37-.7-.52-.9s-.42-.5-.59-.67c-.18-.17-.52-.44-.76-.59s-.64-.36-.9-.47c-.25-.11-.72-.25-1.03-.33-.31-.07-.89-.16-1.29-.19-.41-.02-1.03-.03-1.4 0m-106.46.06c-.22.03-.61.12-.86.19-.26.07-.65.21-.87.31-.22.09-.65.34-.96.55-.36.24-.7.55-.95.84-.21.26-.52.74-.68 1.07s-.38.9-.48 1.27c-.17.63-.18.75-.18 2.13 0 1.32.01 1.52.15 2.03.08.32.23.75.33.97.09.22.33.64.52.93.19.3.55.73.8.96a8 8 0 0 0 .92.7c.26.15.71.36 1 .46s.8.22 1.13.28c.35.06.99.1 1.56.1.58 0 1.21-.04 1.57-.1.32-.06.8-.18 1.06-.26.26-.09.49-.14.53-.12s.32.23.63.45c.31.23.89.61 1.28.84.4.24.73.41.75.39.01-.02.25-.51.53-1.1.28-.58.5-1.07.49-1.07-.01-.01-.22-.11-.45-.23-.24-.12-.64-.35-.88-.52-.25-.17-.43-.34-.41-.38.03-.03.15-.2.26-.36.12-.17.31-.5.42-.74s.29-.73.39-1.1c.16-.62.18-.76.18-2.06 0-1.12-.02-1.52-.12-1.97-.07-.31-.21-.79-.31-1.07-.11-.27-.33-.71-.5-.96-.17-.26-.43-.6-.59-.76-.15-.16-.45-.42-.67-.57-.22-.16-.62-.4-.88-.53-.27-.13-.78-.32-1.13-.42-.57-.15-.81-.17-1.91-.19-.7-.01-1.45 0-1.67.04m9.96 4.31c.02 4.14.02 4.19.17 4.82.09.34.28.87.43 1.16.2.39.42.68.81 1.08.42.42.66.59 1.1.81.36.18.8.33 1.2.42.46.1 1 .14 1.99.17 1.09.03 1.49.02 2-.07.34-.06.85-.19 1.13-.28.27-.1.72-.33.99-.52.28-.19.66-.54.87-.78.2-.24.48-.66.61-.93.14-.27.31-.72.4-1 .15-.49.15-.53.15-4.78l.01-4.28h-3.83c0 7.42-.02 8.15-.1 8.43-.05.18-.18.45-.29.6a1.9 1.9 0 0 1-.52.45 3 3 0 0 1-.75.25c-.33.06-.54.06-.87 0-.23-.04-.53-.13-.66-.2s-.34-.24-.48-.38c-.13-.14-.29-.36-.36-.49-.12-.22-.13-.48-.14-4.45l-.02-4.21h-3.86zm14.41 2.05v6.23h10.51V21.5l-6.65.03V19h6.05v-2.5l-6.05.03V14.5l6.52.03v-2.66H47.54zm12.64 0v6.23h3.85v-5.06c.47 0 .76.05.95.13.2.07.44.22.55.35.11.12.3.4.42.62.13.22.65 1.19 1.17 2.16l.94 1.77c3.37.03 4.35.02 4.35 0s-.44-.88-.97-1.92c-.61-1.19-1.1-2.04-1.31-2.31-.19-.23-.47-.53-.61-.66a2.6 2.6 0 0 0-.67-.41l-.39-.16c.82-.27 1.24-.47 1.46-.62s.53-.42.69-.59c.17-.18.38-.51.48-.73.11-.22.22-.56.26-.77.04-.2.07-.59.07-.86 0-.28-.05-.68-.1-.89a6 6 0 0 0-.26-.7c-.09-.17-.31-.48-.49-.68s-.46-.45-.62-.54c-.17-.1-.49-.24-.73-.32-.24-.07-.75-.17-1.13-.21-.39-.03-2.3-.06-4.31-.06h-3.6zm13.5 0v6.23h10.43V21.5l-6.58.03V19h5.99l-.04-2.47h-5.95V14.5l6.45.03v-2.66h-10.3zm11.7-4.7v1.53h3.92v9.4h3.79v-9.4h3.99v-3.06h-11.7zm13.34 4.65c-1.27 3.4-2.31 6.21-2.31 6.23.01.03.88.05 1.95.04l1.95-.02.59-2.03h4.36c.25.85.39 1.31.46 1.58l.14.48c3.09 0 3.99-.02 3.99-.05-.01-.02-1.05-2.82-2.32-6.21l-2.31-6.17-4.19-.04zm12.46.05v6.23h3.85v-5.06c.44-.01.67.03.8.07s.34.16.47.25c.12.1.39.43.59.74.21.31.78 1.34 1.27 2.29l.9 1.72 4.35-.01c-.84-1.62-1.27-2.47-1.51-2.93s-.56-1.01-.72-1.23c-.15-.22-.4-.51-.54-.65s-.45-.34-.7-.45-.45-.22-.45-.24c0-.01.17-.08.38-.14s.52-.17.68-.25c.17-.09.49-.31.72-.5s.5-.48.6-.66c.1-.17.25-.51.33-.75.1-.27.17-.65.2-1.03.02-.44 0-.71-.08-1.03-.06-.24-.19-.6-.29-.79-.1-.2-.32-.52-.48-.7-.19-.21-.49-.44-.77-.59-.25-.14-.68-.3-.96-.36-.43-.1-1-.12-4.56-.15l-4.07-.02z" class="shp1"/><path d="M64.03 15.68v1.29c1.73-.08 2.38-.14 2.56-.19.19-.05.4-.13.47-.17.07-.05.21-.19.3-.33.14-.19.16-.32.16-.69 0-.35-.03-.49-.14-.64-.07-.1-.21-.24-.3-.3-.08-.07-.29-.15-.45-.18-.17-.04-.82-.07-1.45-.07h-1.15zm51.01 0-.01 1.29c1.68-.07 2.32-.13 2.5-.17.18-.05.43-.16.56-.26.13-.09.29-.31.36-.47.09-.22.11-.38.08-.6-.02-.17-.11-.41-.19-.53a1.3 1.3 0 0 0-.38-.37c-.21-.12-.36-.14-1.57-.16l-1.34-.02zM24 14.6c-.16.04-.43.14-.59.22-.17.08-.43.28-.59.45-.16.16-.38.48-.48.7-.11.22-.23.61-.27.86-.05.29-.06.89-.05 1.54.03.92.06 1.14.21 1.6.1.29.26.65.36.79s.33.35.52.48c.18.12.51.27.73.32.22.06.56.1.76.1s.44-.03.53-.05c.17-.05.17-.05-.13-.27-.16-.12-.49-.31-.73-.42s-.45-.22-.47-.23c-.01-.01.11-.32.27-.69l.3-.68c.36.07.62.16.8.25s.6.34.93.56l.6.39c.14-.27.23-.5.28-.69.06-.19.11-.79.13-1.43.03-.88.01-1.21-.08-1.67-.06-.31-.19-.72-.29-.92s-.31-.48-.47-.63c-.17-.15-.45-.34-.64-.42-.2-.09-.53-.16-.83-.18-.27-.02-.63-.01-.8.02m105.73 0c-.16.04-.43.14-.59.22s-.44.3-.61.5c-.18.19-.39.49-.47.66-.07.18-.18.54-.23.8a9 9 0 0 0 0 2.67c.06.28.19.7.3.92.1.22.32.51.48.66.16.14.45.34.65.43.32.15.46.17 1.07.17.64 0 .73-.02 1.13-.2.24-.12.53-.31.66-.44.12-.12.28-.34.35-.49.08-.15.18-.4.23-.57.05-.16.12-.63.16-1.03.04-.43.06-1.02.03-1.43-.03-.39-.1-.87-.16-1.07s-.19-.5-.28-.67c-.1-.16-.32-.43-.5-.58-.18-.16-.48-.35-.67-.42-.2-.07-.56-.14-.8-.16-.25-.02-.59 0-.75.03m-26.68.67c-.03.05-.33 1.03-.67 2.16l-.63 2.07c1.1.03 1.7.03 2.06.02l.64-.02c-1.03-3.31-1.33-4.28-1.34-4.29-.01-.02-.04.01-.06.06M6.85 84.62c0 31.38.03 52.55.06 53.58.04.93.1 2.02.14 2.4.04.39.13 1.12.2 1.63a39 39 0 0 0 .73 3.7c.14.57.4 1.53.59 2.14.18.6.52 1.61.76 2.23s.66 1.67.95 2.33c.28.66.78 1.71 1.09 2.34.32.62.81 1.53 1.1 2.03.28.5.81 1.38 1.18 1.97.36.58.95 1.47 1.3 1.96.35.5 1.03 1.43 1.51 2.07.49.64 1.19 1.54 1.58 2 .38.46 1.08 1.27 1.55 1.8s1.47 1.59 2.22 2.36c.75.76 1.9 1.87 2.55 2.46.66.6 1.53 1.37 1.93 1.72.41.35 1.3 1.09 1.98 1.63.68.55 1.83 1.43 2.56 1.96s1.9 1.36 2.62 1.84c.71.48 1.77 1.18 2.36 1.54.58.37 1.49.92 2.03 1.24.53.31 1.41.82 1.96 1.12s1.65.89 2.46 1.3c.8.42 2.15 1.07 2.99 1.46s2.2.99 3.02 1.34c.83.34 2.17.87 3 1.18.82.31 2.32.84 3.32 1.17 1.01.33 2.59.81 3.53 1.07.93.26 2.2.59 2.82.74.62.14 1.64.37 2.26.5s1.84.35 2.7.5c.85.15 1.89.31 2.29.36.4.06 1.31.16 2.03.24.71.07 1.74.17 2.29.22.65.05 2.18.08 4.36.08 2.17 0 3.71-.03 4.35-.08.55-.05 1.58-.15 2.3-.22.71-.08 1.62-.18 2.02-.24.41-.05 1.44-.21 2.3-.36s2.07-.37 2.69-.5 1.52-.33 2-.44c.47-.1 1.43-.34 2.12-.53.7-.19 1.9-.53 2.66-.76.77-.24 2.03-.64 2.8-.9.76-.26 1.93-.68 2.59-.93s1.83-.72 2.59-1.03c.77-.32 1.86-.79 2.43-1.05s1.57-.73 2.23-1.05 1.94-.98 2.86-1.47c.91-.49 2.24-1.24 2.96-1.66.71-.42 1.65-.99 2.09-1.26a122 122 0 0 0 3.69-2.45c.46-.32 1.22-.87 1.7-1.23.47-.35 1.35-1.03 1.96-1.5.6-.48 1.42-1.16 1.83-1.5.4-.35 1.12-.98 1.59-1.4.48-.42 1.34-1.22 1.93-1.78.59-.55 1.64-1.62 2.34-2.36.7-.75 1.66-1.81 2.13-2.36s1.04-1.23 1.26-1.5c.22-.28.67-.86 1-1.3s.76-1.03.96-1.3c.2-.28.7-1 1.1-1.6.4-.61.97-1.52 1.27-2.02s.84-1.45 1.19-2.1c.36-.65.85-1.63 1.11-2.18.25-.55.64-1.45.87-2s.57-1.42.76-1.94a46 46 0 0 0 1.21-4.03c.11-.46.26-1.1.33-1.43.06-.33.2-1.11.3-1.74.09-.62.22-1.57.28-2.1.1-.89.11-5.21.13-54.38l.02-53.42H6.85z" class="shp0"/><path d="M7.71 86.05c0 35.4.03 52.82.07 53.45.04.51.12 1.34.17 1.83.06.5.21 1.44.33 2.1s.32 1.59.43 2.07.29 1.17.4 1.53a60 60 0 0 0 1.04 3.17c.13.35.4 1.02.6 1.5s.63 1.41.95 2.07c.31.66.78 1.57 1.03 2.03s.73 1.28 1.06 1.83.84 1.38 1.14 1.84.83 1.22 1.16 1.7a58.7 58.7 0 0 0 2.79 3.59c.46.55 1.15 1.35 1.53 1.77s1.09 1.17 1.56 1.66c.48.49 1.38 1.38 2 1.97s1.64 1.52 2.26 2.07c.62.54 1.58 1.35 2.13 1.79s1.52 1.2 2.16 1.68 1.61 1.19 2.16 1.58 1.48 1.02 2.06 1.4c.59.39 1.82 1.15 2.73 1.7s2.28 1.34 3.02 1.75c.75.41 2.21 1.16 3.23 1.67s2.42 1.17 3.09 1.47a110 110 0 0 0 5.89 2.35c.76.28 2.01.7 2.76.94.75.23 1.84.57 2.42.73.59.17 1.79.48 2.66.7.88.22 1.97.48 2.43.57.46.1 1.58.31 2.49.48.92.16 2.5.4 3.53.52 1.02.13 2.26.26 2.76.3.49.04 1.42.1 2.06.14s2.01.06 3.06.07c1.04 0 2.4-.03 3.02-.07.62-.03 1.55-.1 2.06-.14a79.607 79.607 0 0 0 5.96-.76c.96-.17 2.18-.4 2.69-.5.51-.11 1.66-.38 2.56-.6.89-.22 2-.51 2.46-.64s1.4-.41 2.09-.63c.7-.22 1.98-.65 2.86-.95.88-.31 2.39-.88 3.36-1.26.97-.39 2.2-.9 2.73-1.14s1.48-.68 2.12-.98 1.69-.82 2.33-1.15 1.49-.78 1.9-1c.4-.22 1.1-.61 1.56-.87s1.46-.86 2.23-1.33c.76-.48 1.83-1.15 2.36-1.5a78 78 0 0 0 4.15-2.94c.55-.42 1.49-1.16 2.1-1.65.6-.48 1.6-1.33 2.23-1.87.62-.55 1.69-1.54 2.39-2.2.69-.66 1.68-1.65 2.19-2.2.52-.54 1.17-1.26 1.47-1.59.29-.33.97-1.13 1.5-1.77s1.27-1.57 1.63-2.06c.37-.5.92-1.26 1.23-1.7s.77-1.13 1.03-1.54c.26-.4.7-1.1.97-1.56s.7-1.21.95-1.67.72-1.37 1.04-2.03c.31-.66.74-1.59.94-2.07s.47-1.15.6-1.5.37-1.04.53-1.53c.17-.5.39-1.22.5-1.6.12-.39.3-1.08.41-1.54.1-.46.3-1.38.43-2.06s.28-1.66.34-2.17c.05-.51.13-1.32.16-1.8.05-.57.07-18.77.07-53.42V33.53h-17.89c.07 40.64.11 71.23.13 94.2l.05 41.77c-.48.47-.97.91-1.41 1.3s-.99.87-1.23 1.07c-.23.21-1.01.84-1.73 1.41-.71.56-1.64 1.28-2.06 1.59-.42.3-1.12.81-1.56 1.12s-1.25.86-1.79 1.23c-.55.37-1.54 1.01-2.2 1.41-.66.41-1.52.94-1.93 1.17-.4.23-1.13.64-1.63.91-.49.27-.92.49-.94.49-.03 0-.05-5.63-.05-12.5 0-6.88.02-12.5.05-12.5.02 0 .09.05.15.1.08.08.84-.69 6.15-6.3 3.32-3.51 6.05-6.42 6.05-6.46 0-.03-1.53-1.5-3.39-3.26-1.87-1.75-3.63-3.42-3.93-3.69l-.53-.51c.22-.24.46-.64.68-1.05.22-.4.57-1.07.79-1.5.21-.42.55-1.14.76-1.6s.59-1.36.85-2c.25-.64.68-1.81.94-2.6.26-.78.62-1.99.8-2.66.19-.68.46-1.84.6-2.57s.34-1.8.43-2.37.21-1.5.26-2.06c.06-.57.14-1.52.17-2.1a51 51 0 0 0-.03-5.87c-.05-.81-.15-1.93-.23-2.5-.07-.57-.19-1.41-.26-1.87-.08-.45-.22-1.22-.31-1.7-.1-.47-.29-1.34-.44-1.93-.14-.59-.41-1.55-.59-2.13-.17-.59-.47-1.49-.65-2-.18-.52-.48-1.31-.66-1.77s-.53-1.27-.77-1.8a39.254 39.254 0 0 0-1.73-3.47c-.29-.53-.77-1.35-1.06-1.83a49 49 0 0 0-2.23-3.3c-.31-.42-.85-1.11-1.19-1.53l-.61-.77-.01-49.57h-4.25v45.14c-.54-.48-1.07-.93-1.53-1.31-.46-.39-1.31-1.07-1.9-1.51-.58-.44-1.52-1.11-2.09-1.48-.57-.38-1.44-.92-1.93-1.22-.49-.29-1.5-.85-2.23-1.24s-1.88-.95-2.56-1.25c-.67-.29-1.66-.7-2.19-.9s-1.05-.4-1.15-.45l-.19-.08.01-35.7-3.83.04c-.02 26.71-.04 34.47-.05 34.48s-.55-.1-1.21-.24c-.66-.15-1.61-.34-2.13-.44-.51-.09-1.14-.19-1.39-.23-.26-.04-.89-.11-1.4-.17l-1.83-.18c-.53-.05-1.88-.08-3.29-.08-1.67 0-2.77.04-3.62.11-.68.06-1.32.11-1.42.11h-.18v-33.4H7.71z" class="shp1"/><path d="m91.83 51.38-.01 17.85c.29.13.81.33 1.34.53s1.52.61 2.19.9c.68.3 1.83.86 2.56 1.25s1.74.95 2.23 1.24c.49.3 1.36.84 1.93 1.22.57.37 1.51 1.04 2.09 1.48.59.44 1.44 1.12 1.9 1.51.46.38.99.83 1.18 1l.35.31V33.53H91.83z" class="shp2"/><path d="M73.97 68.51c-.14.01-.79.07-1.43.13-.64.05-1.65.18-2.26.27-.6.09-1.48.24-1.96.33-.47.09-1.24.25-1.69.35-.46.11-1.31.33-1.9.5-.58.17-1.59.48-2.23.7s-1.53.54-1.99.73c-.46.18-1.28.53-1.83.78-.55.24-1.4.65-1.89.9-.5.26-1.41.75-2.03 1.11-.62.35-1.55.92-2.06 1.25-.52.34-1.32.89-1.8 1.24-.47.34-1.22.91-1.66 1.26-.44.34-1.25 1.03-1.8 1.51s-1.59 1.49-2.32 2.24c-.74.75-1.77 1.88-2.3 2.52-.54.65-1.25 1.55-1.59 2-.34.46-.94 1.32-1.33 1.9-.39.59-.95 1.47-1.24 1.97-.3.49-.61 1.03-.71 1.2-.09.16-.45.87-.8 1.57-.35.69-.83 1.73-1.08 2.3-.24.57-.62 1.49-.83 2.06s-.55 1.56-.75 2.2c-.21.64-.49 1.63-.64 2.2s-.34 1.4-.43 1.84-.24 1.25-.33 1.8c-.1.55-.23 1.48-.3 2.06-.08.59-.17 1.52-.22 2.07s-.08 2.04-.08 3.3c0 1.27.03 2.75.08 3.3s.13 1.37.18 1.83c.06.46.16 1.24.24 1.74.07.49.22 1.35.33 1.9s.3 1.42.43 1.93.4 1.47.6 2.13c.19.66.5 1.61.68 2.1.18.5.49 1.29.68 1.77s.59 1.38.87 2c.29.62.79 1.61 1.1 2.2.32.59.8 1.44 1.07 1.9.28.46.8 1.28 1.17 1.83s1 1.44 1.4 1.97 1.01 1.31 1.36 1.73.98 1.14 1.4 1.6c.41.46 1.28 1.35 1.93 1.97.64.62 1.45 1.38 1.8 1.67.35.3.99.83 1.43 1.17.44.35 1.23.95 1.76 1.34.53.38 1.41.98 1.96 1.33s1.3.81 1.66 1.02c.37.22 1.21.67 1.87 1.01.65.34 1.64.82 2.19 1.06.55.25 1.37.6 1.83.78s1.31.5 1.89.7c.59.2 1.58.51 2.2.69.62.17 1.74.46 2.49.62a41.742 41.742 0 0 0 4.56.77c.62.08 1.58.17 2.13.2.54.04 1.85.07 2.89.07s2.48-.04 3.19-.09c.71-.06 1.68-.15 2.16-.2.48-.06 1.24-.17 1.7-.24.45-.08 1.23-.21 1.72-.31.5-.09 1.38-.29 1.97-.43.58-.15 1.46-.39 1.96-.53.49-.15 1.31-.41 1.83-.59.51-.18 1.3-.48 1.76-.66s1.23-.51 1.73-.73c.49-.22 1.18-.54 1.53-.72.34-.17 1.09-.57 1.66-.88.57-.32 1.42-.81 1.89-1.11.48-.29 1.2-.75 1.6-1.03.4-.27 1.06-.74 1.46-1.04.41-.29 1.09-.82 1.52-1.17l.78-.63c.37.36 1.91 1.95 3.66 3.76l3.2 3.3c1.82-1.86 3.79-3.87 5.55-5.66 1.75-1.8 3.5-3.58 3.87-3.97l.68-.7c-1.84-1.81-3.56-3.51-5.01-4.94l-2.65-2.59c.97-1.71 1.49-2.68 1.79-3.27.29-.59.61-1.25.71-1.47s.31-.71.48-1.1c.16-.38.41-1.01.56-1.4.15-.38.42-1.13.6-1.66s.49-1.52.68-2.2c.2-.68.46-1.72.6-2.3.13-.59.31-1.48.4-1.97s.22-1.4.3-2c.07-.61.18-1.58.24-2.17.05-.58.11-1.69.14-2.46.02-.78 0-2.1-.04-2.97a64 64 0 0 0-.2-2.83c-.07-.7-.19-1.69-.27-2.2-.08-.52-.25-1.43-.37-2.04a57.035 57.035 0 0 0-1.11-4.3c-.16-.51-.41-1.24-.55-1.63-.13-.39-.4-1.11-.6-1.6-.19-.49-.53-1.31-.76-1.8-.22-.49-.68-1.44-1.02-2.1a48 48 0 0 0-2.69-4.53c-.35-.52-.89-1.28-1.2-1.7-.31-.43-.85-1.11-1.2-1.54-.35-.42-1-1.17-1.44-1.66a55 55 0 0 0-3.75-3.71c-.43-.37-1.13-.96-1.57-1.31-.44-.34-1.18-.91-1.66-1.25-.47-.35-1.28-.9-1.79-1.24-.52-.34-1.41-.89-2-1.22-.58-.34-1.65-.91-2.36-1.26-.71-.36-1.78-.86-2.36-1.11-.59-.25-1.53-.62-2.1-.83-.56-.21-1.52-.54-2.12-.73-.61-.18-1.5-.44-2-.57-.49-.13-1.24-.31-1.66-.4s-1.41-.27-2.19-.4c-.79-.14-2.02-.31-2.73-.38-1.06-.12-1.81-.14-4.12-.16-1.56-.01-2.95-.01-3.1.01" class="shp0"/><path d="M75.27 69.04c-.2.01-.89.06-1.53.1s-1.73.14-2.43.23c-.69.09-1.75.25-2.36.36-.6.11-1.5.29-1.99.4-.49.12-1.38.34-1.96.51-.59.16-1.48.44-2 .6-.51.17-1.24.43-1.63.57-.38.15-1.16.46-1.72.7-.57.24-1.65.75-2.4 1.13s-1.8.94-2.33 1.25c-.53.3-1.35.8-1.82 1.11-.48.31-1.41.95-2.07 1.43-.65.48-1.58 1.19-2.06 1.59-.47.4-1.28 1.11-1.79 1.58s-1.37 1.3-1.9 1.84c-.53.55-1.22 1.3-1.53 1.66a54 54 0 0 0-2.78 3.57c-.35.49-.87 1.27-1.16 1.73s-.74 1.19-1 1.63c-.25.44-.84 1.57-1.3 2.5-.46.94-1.06 2.26-1.33 2.94-.27.67-.67 1.75-.88 2.4-.22.64-.51 1.57-.65 2.06-.15.5-.37 1.38-.51 1.97-.13.59-.33 1.56-.44 2.17-.11.6-.27 1.67-.35 2.36-.09.7-.19 1.72-.23 2.27s-.09 1.54-.11 2.2c-.03.66-.01 1.86.03 2.67.04.8.12 1.93.18 2.5s.18 1.54.27 2.16c.09.63.27 1.66.4 2.3s.36 1.68.52 2.3c.16.63.46 1.66.67 2.3s.55 1.65.77 2.24c.23.58.59 1.48.82 2 .23.51.69 1.48 1.02 2.15.34.67.87 1.66 1.18 2.2.32.54.89 1.46 1.28 2.05.38.58.99 1.47 1.36 1.96.37.5 1.02 1.34 1.45 1.87s1.22 1.45 1.77 2.03c.54.59 1.51 1.55 2.15 2.15.64.59 1.51 1.37 1.93 1.72.42.36 1.25 1.01 1.86 1.45.6.45 1.6 1.15 2.23 1.56.62.41 1.53.97 2.02 1.26.5.28 1.41.78 2.03 1.09.62.32 1.58.78 2.13 1.02.55.25 1.51.64 2.13.88.62.23 1.5.54 1.96.69s1.25.39 1.76.54 1.55.41 2.3.57c.75.17 1.93.39 2.62.5.7.11 1.7.25 2.23.3.53.06 1.47.13 2.09.17.63.04 1.81.07 2.63.07s2.1-.05 2.83-.1 1.64-.13 2.02-.17c.39-.04 1.09-.13 1.57-.2.47-.07 1.33-.23 1.89-.34.57-.11 1.57-.33 2.23-.49s1.9-.52 2.76-.8 2.04-.71 2.63-.95c.58-.24 1.45-.61 1.92-.82.48-.21 1.18-.54 1.57-.73a47 47 0 0 0 3.29-1.87c.36-.23 1.07-.69 1.56-1.02s1.24-.86 1.66-1.18 1.14-.88 1.6-1.26c.46-.37.85-.67.86-.66.02 0 .41.4.87.88s1.96 2.05 3.34 3.49 2.54 2.62 2.58 2.62c.03 0 2.14-2.12 4.69-4.72l4.62-4.71-7.59-7.54c.66-1.08 1.07-1.82 1.35-2.33s.78-1.49 1.11-2.17c.32-.68.83-1.83 1.12-2.56.29-.74.68-1.8.87-2.37.18-.57.47-1.51.63-2.1s.4-1.55.53-2.13c.13-.59.33-1.61.44-2.27s.24-1.59.3-2.07c.05-.47.14-1.25.18-1.73.05-.5.09-1.88.09-3.3 0-1.44-.03-2.87-.09-3.5-.04-.59-.16-1.62-.24-2.3-.09-.68-.24-1.67-.34-2.2-.09-.53-.28-1.48-.43-2.1-.14-.62-.42-1.69-.62-2.37-.2-.67-.48-1.58-.63-2-.14-.42-.47-1.3-.74-1.96-.26-.66-.85-1.95-1.29-2.87-.45-.92-1.06-2.1-1.37-2.63-.3-.53-.81-1.36-1.12-1.84-.31-.47-.85-1.27-1.2-1.76-.35-.5-.9-1.25-1.23-1.67s-1-1.22-1.48-1.77c-.47-.55-1.39-1.52-2.02-2.16a57 57 0 0 0-2.09-1.98c-.52-.45-1.3-1.1-1.75-1.45s-1.2-.92-1.66-1.25c-.47-.34-1.27-.89-1.78-1.22s-1.4-.86-1.96-1.19c-.57-.32-1.5-.82-2.06-1.11-.57-.28-1.38-.67-1.8-.86-.42-.18-1.24-.52-1.83-.76a31 31 0 0 0-2.09-.77c-.57-.19-1.41-.45-1.86-.57-.46-.13-1.34-.36-1.97-.51-.62-.15-1.71-.37-2.42-.5-.72-.13-1.81-.29-2.43-.36s-1.59-.16-2.16-.2-1.7-.08-2.53-.09c-.82-.02-1.66-.02-1.86-.01" class="shp1"/><path d="M81.57 72.58c-.02.03-.39.98-.81 2.12-.43 1.14-.79 2.11-.79 2.16-.01.07.15.15.45.24l.47.14c.79-.54.81-.54 1.4-.54.51 0 .65.03.96.18.2.09.44.26.54.36.09.11.23.37.31.58.09.24.15.52.15.76s-.07.57-.17.85c-.1.27-.27.6-.42.77-.14.16-.42.39-.62.49-.32.17-.4.19-.85.16-.3-.02-.6-.08-.73-.15-.13-.06-.31-.18-.39-.26-.09-.08-.22-.25-.29-.39s-.16-.46-.21-.71c-.06-.37-.11-.48-.21-.5a3.4 3.4 0 0 0-.57-.04h-.43c.08.91.15 1.15.32 1.5.18.35.32.54.59.75.19.15.52.35.72.44s.57.2.83.25c.27.04.65.06.9.03.24-.02.59-.11.8-.21.2-.09.48-.26.63-.36.14-.11.37-.34.51-.51.14-.18.32-.47.41-.66.09-.18.21-.57.28-.86.1-.45.1-.61.04-1.04-.04-.27-.15-.65-.24-.83s-.29-.48-.45-.66-.42-.4-.59-.5c-.16-.09-.47-.22-.68-.29-.21-.06-.56-.12-.78-.12s-.58.06-.81.13c-.23.08-.43.12-.43.1-.01-.01.16-.5.39-1.08.22-.57.42-1.06.44-1.09.03-.02.82.09 1.78.25.95.16 1.74.27 1.76.25s.06-.24.1-.5c.05-.39.05-.46-.04-.49-.05-.01-.96-.18-2.02-.37-1.06-.18-2-.35-2.07-.37-.08-.02-.16-.01-.18.02m-12.22.3c-.23.07-.55.22-.69.32-.15.1-.39.31-.53.47-.15.17-.35.48-.45.7-.14.29-.2.54-.23.96-.03.46-.01.69.11 1.2.12.48.22.74.43 1.04.18.27.4.49.7.68.24.16.58.34.76.39.19.05.52.09.75.09s.56-.04.73-.1a3 3 0 0 0 .67-.37c.19-.14.47-.42.63-.63l.28-.36c.08.44.1.91.08 1.33-.02.6-.06.85-.18 1.17-.09.22-.26.51-.39.65-.13.15-.32.3-.42.35-.1.06-.36.13-.57.17-.3.05-.45.05-.71-.03-.19-.06-.41-.19-.51-.29s-.24-.31-.32-.47c-.07-.16-.17-.28-.2-.28-.04 0-.26.05-.5.11-.24.07-.44.14-.43.17 0 .03.08.22.18.43.1.2.29.48.41.62.13.13.43.34.67.46.42.21.45.22 1.16.19.66-.02.78-.04 1.17-.23.23-.11.58-.35.77-.53s.42-.49.52-.69.24-.59.31-.87c.09-.34.13-.73.13-1.26 0-.43-.05-1.06-.11-1.4-.05-.35-.17-.92-.27-1.27a6.5 6.5 0 0 0-.41-1.13c-.15-.3-.39-.65-.61-.88-.2-.2-.5-.44-.67-.52-.16-.09-.43-.2-.59-.24-.17-.05-.51-.09-.77-.09-.28 0-.64.06-.9.14" class="shp0"/><path d="M69.59 73.82c-.19.09-.41.27-.51.39s-.24.36-.33.52c-.1.2-.16.46-.18.77-.02.33.01.58.09.87.07.22.21.52.33.66.11.15.35.35.53.45s.48.2.66.22c.23.03.46.01.72-.06.21-.06.48-.19.59-.29s.29-.32.38-.48c.14-.24.18-.42.2-.87.02-.43 0-.66-.1-.97-.06-.22-.21-.52-.33-.66-.11-.15-.35-.36-.52-.47-.26-.16-.42-.2-.76-.22-.36-.02-.5.01-.77.14" class="shp1"/><path d="M57.94 76.79c-.2.12-.22.17-.34.78-.07.37-.22.9-.34 1.2-.11.29-.34.73-.51.98l-.3.45.52.97c.41-.57.65-.95.79-1.2.15-.26.31-.58.36-.72s.13-.24.16-.23c.04.02.82 1.38 1.73 3.03l1.66 3.01c.72-.41.93-.55.92-.59s-.98-1.81-2.16-3.94-2.18-3.87-2.21-3.86c-.04 0-.17.06-.28.12m36.41.08c-.16.02-.47.13-.69.24-.23.11-.59.37-.86.62-.25.24-.61.65-.8.9-.19.26-.5.74-.68 1.07s-.44.86-.57 1.17-.29.74-.34.96c-.06.22-.12.57-.15.77-.02.21 0 .56.04.8s.14.55.22.7c.07.15.27.42.45.6.18.19.49.42.73.54s.61.25.84.29c.34.06.51.05.9-.04.31-.07.6-.2.83-.35.19-.13.5-.39.69-.57.2-.19.49-.52.66-.74s.52-.79.78-1.26c.26-.48.55-1.05.64-1.27s.21-.63.27-.92c.06-.28.1-.72.1-.96 0-.25-.04-.6-.11-.79-.06-.18-.19-.45-.29-.6-.1-.14-.28-.36-.4-.48-.13-.11-.41-.3-.64-.41s-.58-.24-.77-.27c-.19-.04-.39-.07-.45-.06-.05 0-.23.03-.4.06" class="shp0"/><path d="M94.55 77.82c-.16.04-.42.17-.56.29-.15.11-.41.37-.59.56-.18.2-.5.63-.72.96s-.54.9-.72 1.27-.4.91-.5 1.2c-.15.44-.17.61-.14.97.02.24.08.54.13.66.05.13.21.34.35.48.18.16.37.26.61.31.27.06.43.06.7 0 .19-.04.48-.17.65-.28.17-.12.52-.51.85-.94.36-.49.7-1.05 1.01-1.67.25-.51.51-1.08.57-1.26.06-.19.13-.59.14-.9.03-.55.02-.58-.19-.93-.15-.24-.33-.43-.52-.55-.17-.1-.41-.19-.53-.21-.13-.02-.37 0-.54.04" class="shp1"/><path d="M74.54 85.07c-.31.03-.83.09-1.16.13s-.96.14-1.4.21-1.22.23-1.73.36c-.51.12-1.41.38-1.99.57-.59.19-1.41.48-1.83.64-.42.17-1.31.56-1.96.89-.66.32-1.65.86-2.2 1.2s-1.27.82-1.59 1.05c-.33.24-.96.73-1.4 1.08-.44.36-1.11.94-1.5 1.29-.38.36-1 .98-1.38 1.4-.38.41-.98 1.1-1.34 1.54-.35.44-.96 1.27-1.34 1.84-.39.57-.92 1.4-1.17 1.86-.26.46-.68 1.27-.94 1.8a28.572 28.572 0 0 0-1.44 3.7c-.17.55-.39 1.38-.5 1.84-.1.45-.26 1.29-.36 1.86-.09.57-.2 1.34-.24 1.7-.04.37-.09 1.31-.11 2.1-.02.9-.01 1.85.04 2.54.05.6.13 1.41.18 1.8.05.38.16 1.03.23 1.43.08.4.21 1.05.3 1.43.09.39.3 1.15.46 1.69.17.54.45 1.35.62 1.8.18.45.47 1.13.64 1.51.17.39.54 1.12.82 1.64.27.51.71 1.26.97 1.66.26.41.65.99.87 1.3.22.32.69.95 1.06 1.4.37.46.95 1.13 1.3 1.49.35.37.86.88 1.13 1.15.28.26.73.67 1 .91.28.23.72.61 1 .83.27.22.75.58 1.06.8s.9.62 1.3.87c.4.26 1.13.69 1.63.95.49.27 1.27.66 1.73.87.45.21 1.23.53 1.73.72.49.18 1.36.47 1.92.64.57.16 1.56.4 2.2.53s1.51.28 1.93.34c.42.05 1.23.13 1.79.18.63.04 1.61.06 2.53.03.82-.02 1.78-.07 2.13-.11.34-.04 1.09-.15 1.66-.24s1.51-.29 2.09-.43c.59-.15 1.44-.39 1.9-.54s1.28-.45 1.83-.67 1.41-.6 1.93-.85c.51-.26 1.38-.74 1.94-1.08s1.38-.87 1.81-1.17c.44-.3.8-.57.8-.6s-.59-.71-1.32-1.52l-1.32-1.46c5.03-5.12 7.13-7.25 7.92-8.04l1.44-1.43 1.77 1.87c.73-1.86 1.08-2.85 1.25-3.39.16-.54.38-1.3.47-1.7.09-.39.23-1.03.3-1.41.07-.39.15-.94.19-1.24.04-.29.12-1.01.17-1.6.06-.58.1-1.57.1-2.2 0-.62-.04-1.63-.1-2.25-.05-.61-.13-1.33-.16-1.6-.04-.26-.12-.75-.18-1.08s-.22-1.09-.37-1.7c-.14-.61-.4-1.51-.56-2a31.4 31.4 0 0 0-2.28-5.17c-.23-.4-.74-1.19-1.12-1.76-.39-.57-.88-1.26-1.1-1.54a50.973 50.973 0 0 0-1.76-2.03c-.31-.33-.86-.88-1.23-1.23-.38-.34-1.04-.91-1.48-1.27-.44-.35-1.07-.84-1.39-1.08-.33-.23-1.01-.68-1.5-.99-.49-.3-1.26-.74-1.7-.97-.43-.23-1.11-.56-1.49-.73-.39-.17-1.08-.46-1.55-.64-.46-.18-1.2-.43-1.63-.56s-1.18-.34-1.68-.46c-.49-.13-1.37-.3-1.96-.4-.58-.09-1.54-.21-2.13-.27-.63-.06-1.65-.1-2.52-.09-.81 0-1.72.03-2.03.06" class="shp0"/><path d="M74.47 85.67c-.38.03-1.13.12-1.66.2a30 30 0 0 0-3.26.66c-.38.11-1.02.3-1.43.44-.4.13-1.12.4-1.59.6-.48.19-1.15.48-1.5.65-.35.16-1.02.51-1.5.77-.47.27-1.32.8-1.89 1.18s-1.43 1.01-1.93 1.41c-.49.4-1.27 1.09-1.73 1.53-.58.57-.8.82-.73.85.06.02 9.9 1.52 21.88 3.33s21.78 3.28 21.79 3.27c.01-.02-.14-.32-.32-.68-.19-.35-.58-1.02-.86-1.48s-.83-1.25-1.21-1.77c-.39-.51-.98-1.26-1.33-1.66-.35-.41-1.06-1.16-1.59-1.67s-1.32-1.22-1.75-1.58c-.44-.35-1.15-.89-1.57-1.19s-1.16-.78-1.64-1.07c-.49-.29-1.34-.76-1.9-1.03-.55-.28-1.36-.66-1.78-.83s-1.22-.47-1.79-.65c-.57-.19-1.39-.43-1.83-.54s-1.11-.26-1.5-.34c-.38-.08-1.14-.2-1.69-.28-.78-.1-1.45-.14-2.99-.16-1.1-.01-2.31.01-2.7.04" class="shp2"/><path d="M56.05 95.14c-.31.37-.86 1.06-1.22 1.55-.36.48-.89 1.27-1.19 1.74-.3.48-.8 1.39-1.12 2.02l-.59 1.15c.15 1.21.26 2.21.34 3 .14 1.41.14 1.59.1 9.18l-.04 7.75c1.01-.05 1.41-.08 1.55-.1l.25-.03.03-15.97c.28-1.03.46-1.54.59-1.8.12-.25.35-.66.51-.9s.48-.63.72-.87.72-.62 1.07-.85.87-.51 1.17-.62c.29-.11.75-.26 1.03-.33.27-.06.82-.16 1.23-.2.57-.06.9-.06 1.53 0 .43.05 1.11.18 1.49.29.39.1.91.29 1.17.41.25.12.7.38.99.57.3.2.71.55.93.77s.54.61.71.87c.18.25.4.66.49.9.1.24.24.66.32.93.14.5.14.58.16 8.12.01 4.19.04 7.61.07 7.61s.56-.04 1.18-.1c.62-.05 1.15-.1 1.18-.1s.06-2.99.07-6.65l.01-6.65c.23-.67.41-1.06.55-1.29.14-.24.46-.66.72-.93.25-.27.66-.64.89-.81.24-.18.78-.49 1.2-.69s.96-.42 1.2-.5c.24-.07.68-.18 1-.24.31-.06.9-.1 1.32-.1.43 0 1.01.04 1.3.09s.73.17.97.25c.23.09.61.26.82.39.22.13.62.46.9.73.4.39.57.63.79 1.07.15.31.33.79.41 1.07.08.29.17.91.2 1.46.05.59.07 3.12.05 6.42-.01 3.6.01 5.45.05 5.45s.58-.05 1.2-.1 1.17-.1 1.21-.1c.07 0 .08-1.02.08-4.88 0-3.93.02-5.01.1-5.52.05-.35.16-.81.24-1.03.07-.22.26-.64.42-.93.15-.28.47-.73.71-.99.24-.27.68-.64.99-.85.34-.22.78-.44 1.1-.55.29-.1.73-.23.97-.29.31-.08.7-.12 1.39-.12.7-.01 1.1.03 1.43.11.26.06.74.22 1.07.35.32.14.79.37 1.03.53.23.15.61.46.83.67.22.22.52.58.66.8.15.22.35.62.44.9.1.27.22.74.26 1.03.06.41.07 1.68.04 5.22l-.04 4.68c.44-.05.97-.1 1.46-.13.5-.04.91-.08.91-.09.01 0 .03-1.75.06-3.88.02-2.12.07-4.08.1-4.35.04-.26.13-.67.2-.9.08-.23.29-.65.48-.94s.54-.71.78-.93c.24-.23.66-.56.94-.74.28-.19.56-.37.63-.4.11-.07.09-.14-.17-.97-.15-.49-.39-1.19-.51-1.53-.13-.35-.39-.96-.58-1.35-.31-.64-.36-.72-.54-.75-.11-.02-6.68-1.01-14.6-2.2-7.92-1.2-17.86-2.7-22.09-3.34s-7.7-1.16-7.71-1.16-.27.3-.59.67" class="shp1"/><path d="M60.04 100.47c-.2.03-.62.13-.94.23-.32.09-.8.28-1.07.41-.26.13-.66.37-.88.52-.22.16-.63.54-.92.84-.41.44-.6.71-.85 1.23-.18.37-.41.97-.5 1.33l-.18.67-.04 16.23c-.34.05-.78.08-1.2.1s-.97.06-1.21.09l-.45.05c-.01-12.82-.03-16.91-.06-17.37-.04-.46-.1-1.12-.14-1.47s-.1-.6-.13-.56c-.03.03-.2.45-.37.93a33 33 0 0 0-.96 3.3c-.07.35-.19.99-.26 1.43s-.17 1.09-.22 1.44c-.05.4-.09 1.42-.09 2.86 0 1.78.03 2.43.12 3.17.07.51.2 1.34.29 1.83.09.5.25 1.26.36 1.7.1.44.3 1.15.43 1.57a28 28 0 0 0 1.64 4c.32.64.86 1.62 1.2 2.17s.92 1.4 1.29 1.9c.37.49 1 1.27 1.4 1.73.41.46 1.06 1.15 1.46 1.53.4.39.93.88 1.18 1.1.26.22.72.61 1.03.86.32.25 1.01.75 1.54 1.11.53.35 1.28.83 1.66 1.05s1.12.61 1.63.87c.51.25 1.35.63 1.86.83s1.31.49 1.76.64c.46.15 1.13.34 1.5.44.36.09 1.05.24 1.53.34.47.1 1.31.23 1.86.3.67.09 1.6.15 2.83.17 1.43.03 2.08.02 2.99-.07.64-.06 1.6-.19 2.13-.28s1.33-.25 1.79-.37c.46-.11 1.39-.38 2.06-.6.68-.22 1.65-.58 2.16-.8.52-.22 1.17-.52 1.47-.67.29-.15.93-.49 1.43-.77.49-.28 1.12-.65 1.39-.83.28-.19.64-.44.82-.56l.31-.22c-1-1.11-1.55-1.72-1.86-2.07s-.6-.69-.65-.75c-.07-.1.5-.71 4.99-5.26l5.07-5.14 1.55 1.65c.23-.52.47-1.19.68-1.83s.47-1.55.58-2c.11-.46.28-1.23.37-1.7.1-.48.23-1.29.29-1.8.09-.73.12-1.43.12-3.17 0-1.75-.03-2.43-.12-3.13-.06-.5-.16-1.16-.22-1.47s-.16-.82-.23-1.13c-.07-.32-.14-.61-.16-.65-.03-.06-.12-.04-.35.08-.17.09-.55.37-.83.62-.28.24-.63.6-.77.78s-.35.51-.46.73-.24.58-.28.8c-.05.26-.09 1.98-.12 4.68-.03 2.35-.08 4.3-.11 4.33-.03.04-.63.1-1.33.14s-1.46.1-1.69.12l-.41.03-.03-10.76c-.29-.78-.5-1.2-.65-1.43-.16-.24-.48-.6-.72-.82-.26-.24-.66-.51-1.03-.69-.33-.16-.87-.36-1.2-.44-.48-.12-.78-.15-1.59-.15-.83 0-1.09.02-1.56.15-.31.09-.79.27-1.07.41-.27.15-.68.42-.91.6s-.55.52-.71.75-.37.57-.46.77c-.1.19-.26.61-.36.93l-.17.58c-.1 8.43-.13 10.87-.14 10.88 0 0-.8.07-1.77.15s-1.78.14-1.81.14-.06-2.96-.07-6.58l-.02-6.59c-.23-.82-.37-1.21-.46-1.4-.08-.18-.3-.52-.48-.76-.17-.24-.5-.56-.72-.72-.22-.17-.56-.37-.76-.46s-.59-.23-.87-.31c-.4-.11-.67-.14-1.49-.14-.88 0-1.09.02-1.73.19-.4.1-.99.29-1.3.43-.31.13-.7.32-.86.42-.17.09-.53.35-.82.58-.28.22-.65.59-.82.82s-.39.6-.49.82-.22.56-.26.75c-.05.25-.07 2.36-.07 7.08v6.74c-.85.05-1.65.11-2.33.16s-1.24.07-1.26.06c-.02-.02-.05-3.59-.07-7.95l-.04-7.91c-.23-.77-.42-1.22-.57-1.5-.14-.27-.37-.64-.51-.82-.13-.18-.44-.49-.68-.7-.25-.21-.67-.5-.93-.66a8 8 0 0 0-1.16-.51c-.36-.13-.93-.28-1.26-.34-.34-.06-.93-.1-1.37-.09-.42 0-.92.03-1.13.06" class="shp2"/><path d="M40.43 116.36c-2.32.41-4.22.78-4.22.81s.03.3.08.58c.07.42.1.52.2.52.06 0 .97-.15 2.01-.33 1.04-.19 1.9-.33 1.91-.32 0 .01.16.93.36 2.05.19 1.12.35 2.04.35 2.04 0 .01.22-.02.47-.06.26-.04.49-.09.52-.11s-.1-.91-.28-1.97c-.19-1.07-.35-2-.37-2.07-.03-.12.06-.15 1.35-.35.76-.12 1.38-.21 1.38-.2s.19 1.08.42 2.38c.23 1.31.42 2.38.43 2.38 0 .01.22-.02.49-.06.26-.05.49-.1.51-.12s-.18-1.23-.43-2.7c-.26-1.46-.49-2.78-.52-2.93-.04-.24-.06-.27-.24-.28-.11 0-2.1.33-4.42.74m69.52-.46c-.04.01-.23.07-.43.12-.24.07-.48.2-.67.36-.16.15-.39.41-.51.59s-.27.52-.35.76c-.07.24-.27 1.2-.44 2.14-.16.93-.32 1.74-.33 1.8-.03.08.12.13.72.24.41.09 1.85.35 3.2.59 1.36.24 3.02.53 3.7.64.67.11 1.23.19 1.23.18.01-.01.15-.85.33-1.85.26-1.5.32-1.98.32-2.64.01-.74-.01-.83-.18-1.2-.11-.24-.34-.54-.56-.77-.3-.29-.47-.4-.83-.51-.25-.08-.62-.15-.83-.15s-.53.04-.72.1c-.18.05-.45.18-.61.3-.16.11-.38.34-.5.5-.12.17-.23.3-.25.3s-.07-.1-.11-.22-.21-.36-.37-.54c-.15-.18-.4-.39-.55-.46s-.41-.17-.6-.22c-.18-.05-.39-.09-.46-.09-.08.01-.17.02-.2.03" class="shp0"/><path d="M109.78 117.2c-.2.07-.42.2-.5.29-.07.09-.19.34-.26.55-.06.22-.22.92-.33 1.56-.16.82-.2 1.18-.15 1.21.04.02.65.14 1.34.25.7.12 1.27.21 1.27.19 0-.01.09-.48.18-1.05.1-.57.2-1.23.22-1.47.03-.27.01-.54-.04-.73-.05-.17-.18-.39-.29-.51-.11-.11-.33-.24-.47-.28-.15-.04-.35-.09-.44-.11s-.33.03-.53.1m4.06.24c-.06.02-.21.08-.34.14-.14.06-.33.24-.45.41s-.28.5-.35.74-.21.95-.32 1.57c-.1.62-.19 1.14-.18 1.15 0 .01.68.14 1.5.28.83.15 1.51.27 1.52.26.01-.02.1-.55.21-1.19s.22-1.36.24-1.6c.03-.26.01-.54-.03-.7-.04-.15-.16-.38-.26-.52-.12-.16-.3-.3-.51-.39-.18-.08-.47-.15-.63-.16-.17-.02-.35-.01-.4.01" class="shp1"/><path d="M77.37 123.77c-.04.01-.28.06-.54.12-.25.06-.64.18-.86.27s-.58.26-.8.39-.58.39-.8.57c-.22.19-.57.56-.78.83-.22.27-.54.78-.72 1.15s-.38.91-.46 1.2c-.07.29-.15.82-.18 1.17-.02.35 0 .86.04 1.16s.15.75.23 1c.09.26.26.68.39.94.13.25.38.66.56.89a6.5 6.5 0 0 0 1.62 1.48c.24.14.67.35.97.47.29.11.71.25.93.31.26.07.69.1 1.29.11.74 0 1-.03 1.47-.16.31-.08.82-.27 1.13-.42.31-.14.74-.39.96-.55s.58-.48.8-.71.54-.62.7-.86.37-.63.48-.86c.11-.24.27-.72.36-1.07.12-.49.16-.8.16-1.42-.01-.45-.05-.98-.11-1.26-.06-.27-.18-.68-.27-.92-.1-.24-.3-.64-.45-.9s-.44-.66-.64-.9-.58-.59-.83-.79c-.26-.19-.76-.5-1.13-.67-.37-.18-.92-.39-1.23-.47-.43-.1-.76-.14-1.4-.13-.45 0-.86.01-.89.03" class="shp0"/><path d="M77.27 123.93c-.17.03-.48.1-.7.17-.22.06-.48.16-.58.21s-.19.12-.19.16c0 .03.06.06.14.06.07 0 .39-.08.71-.17.46-.14.76-.18 1.45-.2.56-.02.89-.06.95-.11.07-.07.07-.09 0-.13-.05-.03-.4-.05-.79-.04-.38 0-.83.02-.99.05" class="shp1"/><path d="M44.19 125.3c-1.43.71-2.75 1.39-2.94 1.51s-.51.38-.7.56c-.2.19-.43.49-.53.67s-.21.51-.25.73-.07.5-.07.63.04.41.1.63c.05.22.27.75.47 1.17.3.62.47.85.82 1.21.28.28.58.51.83.63.37.18.46.19 1.13.19.61 0 .83-.04 1.27-.18.29-.1 1.67-.75 3.07-1.45s2.55-1.28 2.55-1.3-.11-.25-.24-.52c-.13-.26-.25-.48-.28-.48s-1.07.51-2.31 1.12c-1.24.62-2.51 1.23-2.83 1.35-.31.12-.74.25-.96.3-.22.04-.5.06-.63.03-.13-.02-.36-.12-.52-.2-.15-.09-.4-.32-.55-.52a5 5 0 0 1-.47-.75c-.11-.22-.23-.59-.27-.83-.06-.37-.06-.49.05-.83.09-.32.19-.48.49-.78.34-.35.59-.48 3.15-1.75 1.52-.76 2.77-1.38 2.78-1.39 0-.01-.11-.25-.24-.53-.13-.29-.25-.52-.28-.52-.03.01-1.22.59-2.64 1.3" class="shp0"/><path d="M77.4 124.4c-.2.03-.55.12-.77.19-.22.08-.45.21-.51.29-.07.09-.18.3-.24.49-.07.18-.14.44-.16.56-.04.23-.03.25.34.48.2.13.56.42.79.63l.41.39c.72-.24 1.17-.32 1.56-.35l.65-.05.82-1.56c-.51-.52-.83-.77-1.03-.89-.32-.18-.44-.21-.93-.22-.31-.01-.73.01-.93.04" class="shp1"/><path d="M105.97 125.03c-.13.28-.24.52-.24.54s1.23.64 2.74 1.39c2.28 1.14 2.81 1.43 3.13 1.72.22.19.45.47.52.62.06.15.12.4.12.57 0 .16-.04.46-.1.66-.05.21-.2.58-.32.84-.14.28-.34.57-.52.73-.16.15-.41.32-.56.39-.17.09-.41.13-.66.14-.25 0-.57-.06-.86-.16-.26-.09-1.61-.72-3.01-1.41l-2.55-1.26-.53 1.07c1.57.76 2.78 1.35 3.69 1.79.92.45 1.89.89 2.16.98.37.12.65.17 1.07.17.39 0 .67-.04.9-.13.18-.06.46-.21.63-.32.16-.11.45-.4.64-.63.19-.24.45-.64.58-.9.13-.25.3-.64.37-.86.08-.22.16-.61.18-.87.03-.33.01-.59-.07-.9-.06-.24-.19-.55-.29-.7-.09-.15-.33-.43-.51-.62-.19-.2-.58-.5-.87-.68-.29-.17-1.62-.84-2.94-1.49-1.33-.65-2.42-1.18-2.43-1.18-.02 0-.14.23-.27.5" class="shp0"/><path d="m80.08 126.36-.42.84c.22.18.39.43.53.67.14.23.32.6.41.81.15.38.16.39.41.39.13 0 .48.04.76.1s.61.15.72.21c.18.09.2.09.35-.06.08-.08.23-.33.32-.55.1-.22.18-.51.18-.64s-.1-.44-.22-.7a6.5 6.5 0 0 0-.51-.88c-.16-.23-.39-.49-.51-.57a2.5 2.5 0 0 0-.51-.27c-.17-.07-.48-.14-.7-.16l-.4-.03zm2.24-.68c0 .13.09.29.28.51.16.17.41.56.56.85s.31.63.35.76.14.31.24.4c.09.09.18.15.2.13s-.04-.26-.13-.53c-.1-.28-.3-.72-.45-.99a6 6 0 0 0-.67-.9c-.36-.39-.37-.4-.38-.23m-9.1 1.02c-.12.18-.3.57-.41.85s-.25.72-.31.97c-.07.28-.11.73-.12 1.23 0 .77 0 .77.2.98l.2.2c.26-.59.39-.81.46-.86.09-.08.11-.22.11-.69-.01-.33.05-.87.13-1.26.13-.64.13-.73.04-1.22l-.09-.53zm1.75-.11c-.22.11-.55.34-.75.5-.34.3-.35.33-.48.93-.08.34-.16.9-.18 1.25l-.04.63c.57.52.89.75 1.08.85l.34.18c.39-.35.69-.57.93-.72.24-.16.54-.31.66-.35l.24-.07c.08-1.05.15-1.55.2-1.79l.11-.43c-.71-.66-1.05-.92-1.23-1.01-.17-.09-.35-.16-.4-.16-.04 0-.26.09-.48.19m5.61 2.85c-.06.11-.31.41-.56.67s-.56.55-.68.65l-.21.17c.25 1.06.35 1.55.38 1.76.05.39.06.4.32.49.14.05.52.15.83.22l.56.13c.36-.24.58-.41.73-.54.14-.12.38-.39.54-.59.15-.2.33-.47.39-.6.1-.18.12-.33.09-.7a6.5 6.5 0 0 0-.15-.9c-.07-.24-.17-.47-.23-.52s-.28-.14-.5-.21-.63-.14-.9-.17c-.5-.04-.5-.04-.61.14m-4.21.76c-.29.15-.71.41-.93.58l-.39.32c.06 1.24.11 1.72.16 1.86.09.24.16.3.83.65.4.21.88.45 1.08.52l.35.14c.79-.43 1.2-.67 1.41-.83.36-.26.38-.29.38-.57 0-.17-.03-.48-.07-.7-.03-.22-.12-.59-.18-.82l-.11-.42c-.93-.42-1.37-.64-1.58-.77-.21-.12-.39-.23-.4-.23s-.26.12-.55.27m-3.82.98c0 .03.05.23.13.45s.27.66.44.97c.16.31.37.66.46.77.13.17.16.18.19.08.02-.07-.05-.24-.19-.43-.12-.18-.29-.46-.37-.62-.09-.16-.23-.51-.33-.76-.09-.25-.2-.47-.24-.49-.05-.02-.08 0-.09.03m10.88.61c-.2.1-.42.25-.47.34-.06.09-.25.35-.43.56-.17.21-.51.53-.75.71-.33.24-.44.37-.5.57-.05.15-.16.41-.25.58-.1.17-.17.33-.17.35s.08.03.18.04c.1 0 .32-.1.48-.22.17-.11.46-.35.66-.51.19-.17.51-.52.7-.78.2-.25.45-.61.55-.8.11-.18.24-.47.29-.65.06-.17.1-.33.09-.34 0-.01-.17.06-.38.15" class="shp1"/><path d="m50.88 132.42-.35.35c1.5 1.65 1.92 2.16 1.91 2.2-.01.03-.94.93-2.08 1.98-1.13 1.06-2.41 2.26-2.84 2.67l-.79.75.85.84c4.22-3.96 5.51-5.17 5.6-5.24l.16-.14c.74.78 1.19 1.26 1.49 1.57l.54.57.78-.69c-.87-.92-1.96-2.09-2.99-3.2-1.02-1.11-1.88-2.01-1.9-2.01s-.19.15-.38.35" class="shp0"/><path d="M74.87 133.47c-.09.03-.32.05-.51.06h-.35c.14.46.26.63.43.77.15.12.46.34.7.49.24.16.67.37.96.49.29.11.7.23.9.27.26.05.43.05.6-.01.13-.04.28-.1.33-.13.08-.05.06-.11-.15-.35-.14-.16-.27-.35-.29-.43-.01-.08-.12-.16-.28-.21-.13-.05-.51-.21-.84-.37s-.73-.37-.88-.47c-.16-.1-.32-.18-.37-.17-.04 0-.16.03-.25.06m5.32 1.74c-.09.04-.38.11-.65.16-.26.05-.67.1-.89.09-.3 0-.45.03-.52.11-.09.09-.07.1.27.1.2 0 .6-.05.89-.1.3-.05.7-.15.9-.21s.4-.13.43-.17c.04-.03 0-.06-.1-.05-.09 0-.24.03-.33.07" class="shp1"/><path d="m98.02 136.27-.41.46c.4.34 1.89 1.71 3.57 3.26l3.05 2.83c.27-.3 1.11-1.21 2.05-2.22l1.69-1.83-.75-.78c-2.26 2.46-2.93 3.18-2.96 3.18s-1.21-1.08-2.63-2.4-2.72-2.53-2.89-2.68l-.31-.28zm-40.12 2.51c-.09.14-.77 1.23-1.51 2.42-.75 1.19-1.74 2.77-2.21 3.52-.47.74-.85 1.36-.85 1.38s.39.28.88.59c.48.31 1.33.82 1.88 1.15.6.35 1.19.65 1.49.75.42.13.58.15.97.11.27-.02.61-.11.81-.2.19-.09.49-.31.67-.48.17-.18.4-.5.51-.72.13-.27.2-.54.22-.83s0-.55-.07-.77c-.06-.18-.19-.45-.28-.6-.1-.15-.16-.27-.15-.28s.2-.04.42-.07c.22-.04.53-.13.69-.2.17-.07.42-.24.56-.39.14-.14.33-.42.43-.63.15-.3.18-.45.18-.9-.01-.43-.04-.59-.17-.86-.09-.18-.3-.48-.46-.66-.17-.18-.56-.5-.87-.71s-1-.65-1.53-.98-1.07-.66-1.2-.75l-.25-.14zm36.06.76c-.17.03-.48.12-.7.19s-.63.28-.9.46-.66.5-.87.72c-.2.21-.43.49-.51.62s-.22.45-.32.7c-.11.3-.19.67-.21 1-.02.37 0 .71.07 1.07.06.29.18.71.26.93.09.22.31.66.49.96.19.34.54.79.86 1.11.29.3.72.67.96.83.24.15.63.34.87.41.23.07.65.15.93.17.35.03.62.01.93-.07.24-.06.64-.21.9-.33.25-.12.64-.34.86-.49s.49-.37.61-.5c.12-.12.32-.4.45-.62s.29-.57.35-.77c.06-.21.11-.61.11-.96.01-.33-.04-.79-.09-1.01l-.1-.41c-.72.2-.98.29-1.03.32-.09.05-.09.11-.01.48.05.25.07.61.05.88-.02.34-.09.58-.23.87-.11.23-.35.54-.54.72-.18.17-.54.41-.78.53-.43.2-.49.22-1.19.22-.71 0-.75-.01-1.19-.24-.31-.15-.58-.37-.85-.66-.23-.24-.55-.66-.73-.94-.18-.27-.41-.74-.53-1.03-.11-.29-.23-.71-.26-.93-.04-.22-.05-.56-.03-.75.02-.2.1-.53.18-.74.11-.28.26-.49.55-.78.25-.25.58-.49.87-.64.4-.19.54-.23 1.03-.25.43-.02.64.01.87.1.16.06.44.22.61.34l.32.22.87-.77c-.34-.29-.62-.47-.84-.6-.22-.12-.59-.27-.83-.33s-.55-.1-.7-.1c-.15.01-.4.04-.56.07" class="shp0"/><path d="m57.78 141.19-.69 1.13c1.39.88 2.01 1.24 2.27 1.37.31.16.58.24.75.24.15 0 .35-.04.45-.09s.29-.21.43-.37c.14-.15.28-.34.32-.44.03-.09.06-.31.06-.48 0-.21-.05-.41-.15-.58-.09-.15-.37-.42-.62-.61s-.82-.55-1.25-.82c-.44-.26-.82-.47-.84-.47s-.35.5-.73 1.12m-1.35 2.16c-.05.08-.4.65-.78 1.25-.37.6-.69 1.13-.71 1.17-.01.03.42.35.96.7s1.14.72 1.33.82c.2.1.5.21.67.25.22.05.39.05.58 0 .15-.04.4-.19.56-.32.16-.14.35-.37.43-.52.09-.19.13-.38.13-.67 0-.22-.05-.49-.11-.6-.05-.11-.21-.31-.35-.44s-.53-.42-.86-.64-.86-.56-1.18-.77l-.58-.38z" class="shp1"/><path d="M67.82 143.57c-.2.05-.58.2-.84.33-.27.13-.65.39-.86.58-.21.2-.5.55-.66.79-.16.23-.38.66-.49.95-.11.28-.26.77-.34 1.08-.07.31-.13.79-.13 1.07 0 .27.05.73.1 1.01.06.29.18.68.27.89.08.2.28.54.44.75.16.22.48.55.72.75.24.19.58.42.76.51.19.1.59.23.9.31.34.09.78.14 1.1.14.29 0 .71-.03.93-.07s.61-.17.86-.29c.26-.12.63-.34.82-.49.19-.16.46-.44.61-.63.14-.19.36-.55.49-.78.13-.24.31-.69.4-1 .09-.32.2-.81.24-1.1.05-.39.05-.7 0-1.1-.04-.32-.11-.72-.17-.9-.05-.19-.21-.54-.35-.8-.16-.3-.4-.61-.71-.9-.25-.24-.64-.53-.86-.65-.22-.11-.59-.27-.83-.35-.33-.12-.63-.16-1.23-.18-.58-.02-.9.01-1.17.08" class="shp0"/><path d="M68.26 144.57c-.22.06-.58.2-.8.32-.25.14-.51.36-.69.58-.16.2-.39.57-.52.83-.12.26-.28.71-.36 1-.11.39-.15.74-.15 1.3-.01.6.02.85.12 1.13.07.21.24.53.38.74.13.2.39.47.56.61.18.13.54.33.79.43.4.16.56.18 1.16.19.57 0 .76-.03 1-.14.17-.07.47-.26.67-.4.2-.15.46-.39.58-.53.12-.15.3-.43.41-.63.1-.2.26-.61.35-.9.12-.44.15-.69.15-1.43 0-.71-.02-.97-.12-1.24a4.4 4.4 0 0 0-.37-.7c-.15-.22-.4-.47-.64-.63-.22-.15-.57-.34-.78-.42s-.6-.16-.86-.18c-.32-.02-.62 0-.88.07" class="shp1"/><path d="m76.55 144.58-.41.02c.05.54.21 2.56.4 4.83.19 2.28.34 4.14.35 4.15s1.27-.09 2.8-.22c1.54-.13 2.8-.24 2.81-.25 0-.01-.01-.22-.04-.49-.02-.26-.07-.5-.1-.53s-1.01.04-2.19.15c-1.18.12-2.15.21-2.15.2-.01 0-.17-1.73-.35-3.84-.19-2.11-.34-3.89-.34-3.95 0-.09-.05-.11-.18-.1-.1 0-.37.02-.6.03" class="shp0"/><path d="M104.33 149.67c-.53.4-1.43 1.04-2 1.42-.56.38-1.57 1.02-2.22 1.41-.66.4-1.86 1.06-2.66 1.46-.81.41-2.03.99-2.73 1.28-.69.3-1.65.69-2.11.87l-.85.32c0 25.14.02 32.44.03 32.44.02 0 .52-.13 1.12-.27.59-.15 1.69-.45 2.44-.67.75-.21 1.8-.52 2.33-.69.53-.16 1.68-.55 2.56-.86s2.37-.88 3.32-1.26c.96-.39 2.25-.94 2.88-1.23l1.15-.52V151.4c-1.7-1.91-2.22-2.46-2.25-2.46-.02 0-.48.33-1.01.73" class="shp2"/><path d="M87.17 157.74c-.27.06-.93.21-1.46.32s-1.46.28-2.06.37-1.5.21-2 .26c-.49.06-1.51.14-2.26.18-.87.05-2.13.07-3.49.04-1.17-.02-2.47-.07-2.89-.11-.42-.03-.95-.08-1.18-.1l-.42-.03c0 30.93.01 31.73.12 31.73.06 0 .81.05 1.65.11 1.19.08 2.18.1 4.48.07 2.29-.03 3.3-.07 4.43-.17.8-.08 1.83-.19 2.29-.25.46-.05 1.31-.17 1.9-.26.58-.09 1.17-.19 1.31-.21l.25-.06c0-28.79-.02-32.03-.08-32.02-.05 0-.31.06-.59.13" class="shp0"/><path d="M15.96 173.22c0 .01.23.24.51.51l.52.5c-.74-.8-.97-1.03-.99-1.03-.03 0-.04.01-.04.02" class="shp1"/></svg>