<svg xmlns="http://www.w3.org/2000/svg" id="Capa_1" width="7.61cm" height="7.43cm" viewBox="0 0 215.68 210.58"><defs><style>.cls-1{fill:#eeecec}.cls-2{fill:#fff}.cls-3{fill:#efeeed}.cls-4{fill:#aa3a2b}.cls-5{fill:#cd3825}.cls-6{fill:#2a2f61}.cls-7{fill:#2e315d}</style></defs><path d="M108.04 209.58c-22.41 0-44.18-6.36-62.97-18.38A117.25 117.25 0 0 1 2.7 143.49l-1.36-2.82 22.85-11.03c-5.16-11.67-7.78-24.1-7.78-37.01 0-24.48 9.53-47.49 26.84-64.8C60.55 10.53 83.56 1 108.04 1s47.49 9.53 64.8 26.84 26.84 40.32 26.84 64.8c0 13.16-2.72 25.82-8.09 37.68l22.75 11.21-1.39 2.81a117.3 117.3 0 0 1-42.35 47.12c-18.69 11.86-40.33 18.13-62.57 18.13Z" class="cls-2"/><path d="M108.04 210.58c-22.6 0-44.56-6.41-63.5-18.54A118.37 118.37 0 0 1 1.8 143.92L0 140.2l22.88-11.04c-4.96-11.53-7.48-23.82-7.48-36.52 0-24.74 9.64-48.01 27.13-65.5C60.03 9.64 83.29 0 108.04 0s48.01 9.64 65.5 27.13c17.5 17.5 27.13 40.76 27.13 65.5 0 12.96-2.62 25.47-7.78 37.21l22.79 11.23-1.83 3.71a118.3 118.3 0 0 1-42.71 47.52c-18.85 11.96-40.67 18.29-63.1 18.29ZM2.67 141.14l.93 1.92c9.35 19.34 23.88 35.7 42.01 47.31 18.62 11.92 40.21 18.22 62.43 18.22s43.5-6.22 62.03-17.98a116.3 116.3 0 0 0 41.99-46.72l.94-1.91-22.72-11.2.4-.88c5.31-11.73 8-24.26 8-37.27 0-24.21-9.43-46.97-26.55-64.09C155.01 11.43 132.25 2 108.04 2s-46.97 9.43-64.09 26.55S17.4 68.43 17.4 92.64c0 12.75 2.59 25.07 7.69 36.6l.39.88-22.82 11.01Z" class="cls-7"/><path d="m157.7 61.56 19.8-12.28s30.83 41.16-3.93 92.48c-21.34 28.14-68.24 44.88-109.81 19.35-42.3-26.7-44.14-85.01-25.03-111.09 2.5 1.02 21.9 12.56 21.9 12.56l97.06-1Z" class="cls-2"/><path d="m64.48 42.78-3.8 3.65 2.13 3.61-2.73 2.62-9.3-17.13 3.23-3.11 16.74 9.98-2.73 2.62-3.54-2.26Zm-5.41.88 2.71-2.6-6.79-4.35 4.08 6.96ZM61.47 26.17l10.24-6.21 1.61 2.66-3.58 2.17 8.13 13.41-3.08 1.87-8.13-13.41-3.58 2.17zM78.56 16.96l3.39-1.13 4.96 14.88 6.47-2.16.99 2.96-9.86 3.29-5.95-17.83ZM95.8 12.21l10.34-1.01.3 3.1-6.79.67.46 4.7 4.86-.48.3 3.1-4.86.48.46 4.7 7.03-.69.3 3.1-10.58 1.04-1.84-18.71Zm3.21-1.69 3.05-4.1 4.54-.45-4.31 4.23-3.29.32ZM112.98 11.24l11.88 1.5-.39 3.09-4.16-.53-1.97 15.56-3.57-.45 1.97-15.56-4.16-.53.39-3.09ZM131.46 14.57l3.41 1.08-5.66 17.92-3.41-1.08 5.66-17.93ZM144.4 36.91l-1.52 2.87c-.67-.17-1.75-.37-4.12-1.63-3.75-1.98-5.01-4.55-2.65-9.02l2.69-5.11c2.37-4.49 5.13-5.01 9.05-2.94 2.07 1.09 2.85 1.74 3.34 2.25l-1.52 2.87c-.48-.53-1.07-1.08-2.97-2.08-1.83-.96-3.35-1.01-4.72 1.58l-2.69 5.11c-1.15 2.19-.69 3.61 1.35 4.69 1.95 1.03 3.21 1.33 3.75 1.4ZM153.62 32.17c2.75-3.05 5.82-3.54 9-.68l1.14 1.02c3.13 2.82 2.97 5.93.19 9.02l-4.13 4.59c-2.8 3.11-5.84 3.6-8.99.76l-1.16-1.04c-3.15-2.84-3.01-5.93-.21-9.04l4.17-4.63Zm-1.49 7.04c-1.33 1.48-1.65 3.28-.06 4.72l.42.38c1.6 1.44 3.34.91 4.67-.57l4.13-4.59c1.35-1.5 1.67-3.26.08-4.7l-.42-.38c-1.6-1.44-3.34-.95-4.69.55z" class="cls-6"/><path d="m161.48 87.8-.03-.41c0-.05-.01-.1-.02-.15.02.19.03.38.05.57M160.94 83.65l-.06-.32c.03.19.07.39.1.58-.01-.09-.03-.17-.04-.26M161.6 89.25c0-.11-.02-.22-.03-.34.02.22.03.44.04.66 0-.11 0-.22-.02-.32M161.71 92.93v-.15.67c0-.17.01-.35.01-.52M160.65 82.12a5 5 0 0 0-.07-.36c-.01-.05-.03-.11-.04-.16.04.17.07.35.11.52M161.55 96.8c0-.08.02-.15.02-.23l.03-.55c-.02.26-.03.52-.05.77M141.31 121.05c-.09.08-.19.16-.3.23.11-.06.21-.14.3-.23M157.93 112.44c-.47 1.18-.97 2.34-1.51 3.47a49 49 0 0 0 1.51-3.47M150.33 59.72c-.05-.07-.1-.14-.15-.2-.08-.11-.17-.21-.26-.31.14.17.28.34.41.52M152.76 63.1c-.05-.07-.09-.14-.13-.21-.06-.09-.13-.18-.19-.27.11.16.22.32.32.48M147.47 56.36c-.11-.12-.23-.24-.34-.36l.52.55c-.06-.06-.11-.13-.17-.2M143.42 52.42c-.14-.12-.27-.24-.41-.36-.08-.07-.17-.14-.25-.2.22.19.44.38.65.57M122.26 41.01c.66.18 1.32.38 1.97.59-.65-.21-1.31-.4-1.97-.59M139.78 49.49c-.54-.4-1.1-.79-1.66-1.16 1.16.79 2.3 1.62 3.4 2.5-.57-.46-1.15-.9-1.74-1.34M128.67 43.22c1.31.54 2.59 1.14 3.84 1.78-1.26-.64-2.54-1.24-3.84-1.78M128.49 43.15c-1.27-.52-2.56-1-3.88-1.43.65.21 1.29.43 1.93.66.66.24 1.3.5 1.95.76M120.31 40.52c.65.15 1.29.31 1.93.49-.64-.17-1.28-.33-1.93-.49M159.7 78.22c-.02-.07-.04-.14-.06-.22-.03-.11-.07-.21-.1-.32.05.18.11.36.16.54" class="cls-3"/><path d="M141.6 116.61h-2.56c-.47 0-.94-.03-1.39.03-.09.82-.06 4.52.05 4.87h2.46c.13 0 .27-.02.39-.05.02 0 .04 0 .06-.01.12-.03.24-.08.35-.14l.04-.02c.11-.06.21-.14.3-.23l.05-.05c.09-.09.17-.18.24-.29v-4.09Z" class="cls-5"/><path d="M78.46 116.61h-4.3l-.04-.11c.01.03.03.06.04.11zM80.08 99.25c.12.18.21.36.21.59 0-.23-.09-.41-.21-.59M103.16 74.12c-.26 0-.51-.02-.74-.03.23 0 .47.02.74.03" class="cls-4"/><path d="M78.46 116.61h-4.3l-.04-.11c-.01-.03-.02-.05-.02-.07v-8.9c0-.18.01-.37.02-.55 0-.01.02-.02.03-.03l.06-.06h4.56c.5 0 1 .03 1.49-.02.01-.13.03-.21.03-.28v-6.74c0-.23-.09-.41-.21-.59-1-1.52-2-3.04-2.99-4.56-.09-.14-.17-.28-.28-.45.18-.09.32-.17.47-.24 1.26-.62 2.53-1.22 3.78-1.86 1.48-.76 2.94-1.58 4.37-2.43.72-.43 1.42-.86 2.13-1.31.7-.45 1.4-.9 2.1-1.36.74-.5 1.47-1 2.2-1.53.72-.52 1.43-1.06 2.13-1.61 1.39-1.11 2.74-2.28 4.02-3.52 1.81-1.76 3.49-3.65 4.86-5.78.04-.07.09-.14.13-.21.05-.08.1-.16.16-.26-.26 0-.51-.02-.74-.03-.23 0-.45-.02-.67-.02-.09-.61-.07-6.85.03-7.24h1.06c0-.83.09-1.6-.04-2.37-.66-3.91 2.61-6.68 5.86-6.29.19.02.37.05.55.09.04 0 .08.02.13.03.14.03.27.07.41.11.04.01.07.03.11.04.14.05.27.1.4.16.03.01.05.03.07.04.12.06.25.12.37.18.02 0 .03.02.04.03l.03.02h.01l.2.14c.07.05.15.09.22.14.12.09.23.18.34.27.07.06.14.13.21.2.03.03.06.06.09.08.04.04.08.07.12.11.13.14.25.29.37.44V39.28h-.01c-.77-.06-1.54-.1-2.31-.13l-.89-.03c-.26 0-.52 0-.78-.01-.6 0-1.21 0-1.82.02-23.59.68-43.29 16.55-49.8 38.03-3.3 10.89-3.12 21.77.45 32.57 2.16 6.53 5.52 12.39 9.96 17.63.03-.01.06-.03.09-.04-.35-1.9-.7-3.81-1.07-5.79h2.35c.31 0 .58-.06.82-.17.16-.07.3-.17.43-.3.13-.12.24-.27.33-.44.05-.09.09-.18.13-.27.13-.34.27-.68.4-1h3.3c.16.4.31.78.46 1.16.23.57.89 1.02 1.49 1.02h2.59v-4.9Z" class="cls-5"/><path d="M159.54 77.68c-.12-.41-.25-.82-.38-1.23.13.41.26.82.38 1.23M158.41 74.23c.09.24.17.48.25.71-.08-.24-.16-.48-.25-.71-.22-.61-.46-1.21-.71-1.81.24.6.48 1.2.71 1.81M160.54 81.6c-.12-.56-.25-1.12-.38-1.68.14.56.27 1.12.38 1.68M157.47 71.88a49.408 49.408 0 0 1 0 0M156.66 70.05a47.238 47.238 0 0 1 0 0M161.1 84.69l-.12-.78zM161.43 87.23c-.06-.54-.12-1.08-.19-1.62.07.54.14 1.08.19 1.62M161.66 90.64c-.01-.36-.03-.71-.05-1.07.02.36.04.71.05 1.07" class="cls-4"/><path d="M155.82 117.1c.19-.36.37-.73.55-1.09.02-.03.03-.07.05-.1.54-1.13 1.05-2.29 1.51-3.47v-.02c.15-.37.29-.74.43-1.11.03-.07.05-.15.08-.22.42-1.15.8-2.31 1.14-3.5.01-.05.03-.1.04-.15.1-.35.19-.69.28-1.04.04-.14.07-.28.11-.41.09-.34.17-.68.25-1.02.03-.12.06-.25.08-.37.15-.65.28-1.3.41-1.95.03-.14.06-.28.08-.42.06-.31.11-.62.16-.93.03-.21.07-.42.1-.63.04-.3.09-.59.13-.89l.09-.71c.05-.41.09-.81.13-1.22.03-.34.07-.69.09-1.03.02-.26.03-.52.05-.77 0-.11.01-.23.02-.34l.03-.51c0-.19.02-.38.02-.58v-.19c0-.16 0-.32.01-.47 0-.16 0-.32.01-.47v-.67c0-.51 0-1.02-.02-1.53v-.12c0-.16-.01-.32-.02-.49-.01-.36-.03-.71-.05-1.07-.01-.22-.03-.44-.04-.66l-.09-1.11c-.02-.19-.03-.38-.05-.57-.06-.54-.12-1.08-.19-1.62 0-.06-.02-.11-.02-.17-.01-.09-.03-.18-.04-.26-.02-.16-.05-.33-.08-.49l-.12-.78c-.03-.19-.07-.39-.1-.58-.07-.4-.15-.8-.23-1.2-.04-.17-.07-.35-.11-.52-.12-.56-.25-1.12-.38-1.68 0-.03-.01-.05-.02-.08-.01-.05-.03-.11-.04-.16q-.18-.735-.39-1.47c-.05-.18-.1-.36-.16-.54-.12-.41-.25-.82-.38-1.23-.02-.07-.04-.14-.07-.2-.03-.1-.07-.21-.1-.31-.11-.33-.23-.66-.34-.99-.08-.24-.16-.48-.25-.71-.22-.61-.46-1.21-.71-1.81-.07-.18-.15-.36-.23-.54-.18-.43-.37-.86-.56-1.28-.08-.18-.17-.37-.25-.55-.25-.54-.51-1.07-.78-1.6l-.02-.04s-.03-.06-.04-.09v48.77ZM126.54 87.08c.24.16.48.33.73.49 3 1.96 6.09 3.75 9.29 5.36.78.39 1.58.74 2.36 1.12.12.06.23.13.36.2l-.26.42c-1 1.54-2.01 3.07-3.02 4.6-.13.19-.22.39-.22.63v6.61c0 .12.03.23.05.38h5.75v-56s-.05-.04-.08-.06c-1.1-.88-2.23-1.71-3.4-2.5l-.04-.02a55 55 0 0 0-5.57-3.3c-1.26-.64-2.54-1.24-3.84-1.78-.06-.03-.12-.05-.18-.07-.64-.27-1.29-.52-1.95-.76v44.69Z" class="cls-5"/><path d="M113.39 63.56v.01zM112.32 60.25c.08.11.16.21.23.32.05.08.1.17.14.25.02.03.03.06.05.09.11.21.21.42.3.64v.03c.06.15.11.29.16.45 0 .03.01.06.02.08.03.12.06.25.09.38v.04c0 .05.01.1.02.15.02.12.03.24.04.36v.52c0 .19-.02.37-.04.55-.1.8-.08 1.59-.1 2.38 0 .1.03.2.05.35h1.04c.1.56.08 6.89-.03 7.28h-1.38c.35.53.64.98.95 1.41.47.67.97 1.31 1.49 1.93q.78.93 1.62 1.8c1.12 1.16 2.31 2.26 3.55 3.32.5.43 1 .84 1.51 1.25l.93.72c.19.15.38.3.58.44.43.32.86.63 1.3.94l.2.14c.49.35 1 .68 1.5 1.02V42.38c-.64-.23-1.28-.45-1.93-.66l-.39-.12c-.65-.21-1.31-.4-1.97-.59h-.02c-.64-.18-1.28-.34-1.93-.49-.16-.04-.33-.08-.49-.11-.66-.15-1.31-.29-1.98-.41-.03 0-.05-.01-.08-.02-.56-.1-1.11-.2-1.67-.28l-.2-.03c-.55-.08-1.1-.15-1.66-.22-.06 0-.13-.01-.19-.02-.57-.06-1.15-.12-1.72-.17v20.99ZM148.87 127.37c.18-1 .36-1.97.54-2.93-.18.96-.35 1.94-.54 2.93M148.72 57.77c-.35-.41-.71-.81-1.08-1.21.36.4.72.8 1.08 1.21M151.36 61.08c-.34-.46-.68-.91-1.03-1.36.35.45.7.9 1.03 1.36M149.91 59.2a34.976 34.976 0 0 1 0 0M153.73 64.61c-.31-.51-.64-1.01-.97-1.51.33.5.65 1 .97 1.51M154.69 66.23c-.26-.46-.53-.92-.8-1.37.28.45.54.91.81 1.37M142.5 51.63c-.3-.25-.59-.5-.89-.74.3.24.6.49.89.74M152.44 62.62c-.26-.39-.53-.77-.8-1.15.27.38.54.76.8 1.15M155.82 68.33a50.912 50.912 0 0 1 0 0" class="cls-2"/><path d="M141.6 50.89v56c.13 0 .25.02.38.03v.14c.01.21.02.52.03.9 0 .28 0 .61.01.96v3.18c0 .42 0 .83-.01 1.22 0 .26 0 .52-.01.77 0 .25 0 .48-.01.7 0 .22 0 .43-.01.62v.27c0 .17-.01.32-.02.45-.01.26-.03.42-.04.47h-.32v4.09c.06-.09.11-.18.15-.29.14-.37.29-.73.43-1.09h3.31c.16.41.28.82.48 1.2.31.58.75.99 1.47.99h2.11c.12 0 .23.02.39.04-.18.97-.35 1.92-.53 2.89-.18.96-.35 1.94-.54 2.93.34-.38.67-.77 1-1.16.18-.21.35-.43.52-.65.15-.18.29-.36.44-.55.23-.3.46-.61.69-.91.08-.11.16-.21.23-.31.26-.36.52-.73.77-1.1.04-.05.08-.11.11-.16.28-.41.55-.82.81-1.24.01-.02.02-.03.03-.05.38-.6.74-1.2 1.1-1.82l.21-.36c.34-.6.67-1.22.99-1.84.02-.03.03-.07.05-.1V68.34c-.28-.55-.57-1.09-.87-1.63-.03-.05-.06-.1-.09-.16-.06-.1-.12-.21-.17-.31-.26-.46-.53-.92-.81-1.37-.05-.08-.1-.17-.15-.26-.31-.51-.64-1.01-.97-1.51-.11-.16-.22-.32-.32-.48-.26-.39-.53-.77-.8-1.15-.09-.13-.18-.26-.28-.39-.34-.46-.68-.91-1.03-1.36-.14-.17-.27-.35-.41-.52-.25-.32-.51-.63-.77-.94-.14-.17-.28-.33-.42-.5-.35-.41-.71-.81-1.08-1.21-.17-.19-.34-.37-.52-.55-.24-.26-.48-.51-.73-.76-.18-.19-.36-.37-.55-.56-.37-.36-.74-.72-1.12-1.08-.2-.19-.41-.37-.61-.56-.23-.21-.47-.42-.7-.63-.22-.19-.43-.38-.65-.57-.09-.08-.18-.15-.27-.22-.3-.25-.59-.5-.89-.74" class="cls-2"/><path d="M100.03 81.76c-1.2 1.18-2.47 2.3-3.79 3.36A77 77 0 0 1 92 88.3a72 72 0 0 0 4.24-3.18c1.32-1.07 2.59-2.18 3.79-3.36M104.39 76.7c-.31.44-.64.88-.98 1.31-.39.49-.79.96-1.19 1.43.41-.47.81-.94 1.19-1.43.34-.43.66-.86.98-1.31M108.71 60.44c-.16-.03-.31-.05-.47-.06-.15 0-.3 0-.44.02.15-.02.3-.03.44-.02.16 0 .32.03.47.06M90.63 102.06c-.04.2-.05.41-.03.62-.02-.21 0-.42.03-.62M90.6 102.68c0 .11.02.21.05.32-.02-.11-.04-.21-.05-.32M133.77 106.77l-.04.05zv-3.9799999999999995 3.9799999999999995M111.12 63.2c-.02-.17-.05-.35-.1-.53-.08-.32-.22-.62-.4-.89.18.27.31.57.4.89.05.18.08.36.1.53M110.98 66.43c-.59-.1-1.15.03-1.74-.1.39-.25.72-.51 1-.79-.27.28-.6.54-1 .79.59.13 1.15 0 1.74.1M110.82 74.64c-.42-.74-.81-1.5-1.14-2.3-.03-.07-.06-.15-.09-.23.03.08.06.16.09.23.34.79.72 1.56 1.14 2.3M120.45 85.25c-2.64-2.12-5.1-4.44-7.21-7.09 2.12 2.66 4.57 4.97 7.21 7.09M133.64 106.86h.03s.02-.02.04-.03c-.01.01-.02.03-.04.03zM110.69 102.25c0-.09-.02-.18-.04-.27a2.419 2.419 0 0 1 .04.27M108.22 104.9h.17zM93.27 104.9h.13c.28-.01.54-.08.78-.17-.24.1-.5.16-.78.17zM95.67 102.25c-.02-.19-.06-.38-.13-.57a2.3 2.3 0 0 0-.56-.89c.24.25.44.55.56.89.07.19.11.38.13.57M122.01 100.3c-.21.1-.41.23-.59.4-.09.08-.17.17-.25.27.08-.09.16-.18.25-.27.18-.16.38-.29.59-.4M89.5 111.49v.47zM95.54 110.31c-.01.08-.02.18-.03.29 0-.11.02-.21.03-.29M95.56 113.11s.01.06.02.08-.01-.05-.02-.08M76.42 109.18h-.01s-.02.03-.05.06l.05-.05h.01M139.57 109.14s.09.03.16.05c-.07-.02-.12-.05-.16-.05H76.86c-.13 0-.26.01-.38.03.13-.01.26-.03.38-.03zM137.41 110.33v2.86h1.12-1.12zM119.43 112.12c0 .36 0 .71.03 1.07-.02-.36-.03-.71-.03-1.07M107.45 111.76c0 .48 0 .96.02 1.44-.01-.48-.02-.96-.02-1.44M113.54 113.19c-.04-.11-.07-.39-.08-.74.02.35.05.64.08.74M101.52 110.31c-.03.21-.05.56-.06.94 0-.38.02-.73.06-.94M89.59 110.3c-.05.15-.08.64-.09 1.18 0-.54.04-1.03.09-1.18M145.06 130.84q.03-.15.12-.27a.55.55 0 0 0-.12.27M145.09 134.16c-.02-.17-.04-.29-.04-.4 0 .12.02.23.04.4M147.31 136.97c-.17.15-.33.29-.58.5.25-.21.42-.36.58-.5M135.35 133.66c0 .08 0 .16.01.23 0-.08-.01-.15-.01-.23M140.48 123.78s-.05.03-.11.06c.06-.03.09-.05.11-.06M108.91 131.78s.07-.08.11-.11c.13-.12.26-.24.39-.35-.13.11-.26.23-.39.35-.04.03-.07.07-.11.11M105.83 128.03c-.1-.49-.2-.98-.28-1.47.08.49.19.98.28 1.47M146.3 123.67c.23.09.46.14.73.1.05 0 .11.03.18.05-.07-.02-.13-.06-.18-.05-.27.04-.51-.01-.73-.1M107.35 131.98s.01.1.01.15c0-.05 0-.11-.01-.15M107.34 134.82c0 .05-.02.11-.03.18 0-.07.02-.13.03-.18M106.24 130.89c-.13-.1-.2-.22-.18-.39-.01.17.06.29.18.39.3.24.58.5.88.74.04.03.08.07.11.11-.03-.04-.07-.07-.11-.11-.3-.23-.58-.49-.88-.74M107.91 123.74c-.05.05-.11.1-.16.15l-.32.32.32-.32c.05-.05.11-.1.16-.15M109.83 130.99c-.14.1-.28.21-.41.33.13-.11.27-.22.41-.33a.658.658 0 0 1 0 0M72.14 121.67s-.07.08-.09.12c-.07.11-.14.22-.22.33.08-.1.15-.21.22-.33zM73.63 134.12a.65.65 0 0 1-.07-.35c0 .14.02.25.07.35M73.74 130.53s.06-.06.1-.09c.25-.19.49-.41.73-.61-.24.21-.48.42-.73.61-.04.03-.07.06-.1.09M73.65 130.64s.05-.07.08-.1c-.03.03-.05.07-.08.1M75.74 123.81c-.05 0-.1-.02-.14-.03.04 0 .09.02.14.03M147.05 124.79c-.24 1.47-.68 2.92-.58 4.44 0 .05 0 .09-.01.13.01-.04.01-.08.01-.13-.1-1.52.33-2.97.58-4.44M72.26 121.53l.1.07c-.02-.02-.06-.04-.1-.07M135.46 134.32c.03.07.06.14.1.21.3.53.56 1.08.86 1.62-.29-.54-.56-1.09-.86-1.62-.04-.07-.07-.14-.1-.21M80.73 117.22c0-.19 0-.39.01-.57.04 0 .19 0 .45-.01-.26 0-.41 0-.45.01 0 .18-.01.38-.01.57M81.65 116.63h-.46zM90.54 116.6h-2.82zM142.55 133.81c-.01-.95-.01-1.9 0-2.84 0-.05 0-.1-.01-.14 0 .04.01.09.01.14 0 .95-.01 1.9 0 2.84M71.17 122.79c-.44.37-.94.66-1.47.92-.08.04-.17.06-.27.07a.6.6 0 0 0 .27-.07c.53-.26 1.03-.55 1.47-.92M71.03 134.04s-.03.06-.04.1.03-.08.04-.1M136.6 136.73c0 .07.01.14.01.21 0-.07 0-.14-.01-.21M138.89 143.23c-.67.37-1.32.76-1.99 1.15l-.12.06q.075-.03.12-.06c.66-.38 1.32-.78 1.99-1.15M76.83 137.1c0-.37-.1-.62-.41-.84-.86-.61-1.69-1.26-2.54-1.89.85.62 1.68 1.27 2.54 1.88.31.22.42.46.41.84-.02 1.8 0 3.61-.02 5.41.02-1.8 0-3.61.02-5.41M76.88 142.89c.06.14.17.25.34.35.66.36 1.3.75 1.95 1.12.09.05.18.08.33.14v-.06c-.44-.25-.88-.5-1.32-.76s-.87-.52-1.3-.79" class="cls-3"/><path d="M82.48 98.48q.135.21.21.42c.04.15.07.3.07.47-.01 2.31 0 4.62 0 6.93v.52c.11.03.15.06.19.06h50.41c.1 0 .2-.01.29-.02h.03s.02-.02.04-.03l.02-.02.04-.05v-7.489999999999999c0-.26.06-.47.2-.68.68-1.02 1.35-2.04 2.02-3.07.07-.11.13-.23.21-.36-.15-.08-.29-.15-.42-.22-.04-.02-.09-.05-.13-.07a92.66 92.66 0 0 1-5.93-3.24c-3.22-1.92-6.32-4.04-9.25-6.4-2.64-2.12-5.1-4.44-7.21-7.09-.67-.84-1.29-1.7-1.86-2.6-.19-.3-.37-.6-.55-.91-.42-.74-.81-1.5-1.14-2.3-.03-.07-.06-.15-.09-.23s-.06-.18-.1-.29h2.6v-2.73h-1.11v-2.66c-.59-.1-1.15.03-1.74-.1.39-.25.72-.51 1-.79.4-.42.67-.86.8-1.34.09-.32.11-.65.08-1-.02-.17-.05-.35-.1-.53-.08-.32-.22-.62-.4-.89-.27-.41-.62-.74-1.03-.99-.14-.08-.28-.15-.43-.21s-.3-.11-.45-.14c-.16-.03-.31-.05-.47-.06-.15 0-.3 0-.44.02-.15.02-.29.06-.44.1-.87.28-1.64.99-1.97 1.89-.06.16-.1.32-.14.48-.05.24-.07.48-.05.73.01.24.05.49.13.73.12.4.3.74.54 1.05.24.3.53.57.86.8.1.07.19.13.3.2-.55 0-1.1.02-1.7.03v2.71h-1.09v2.7h2.84c-.06.14-.1.26-.14.36l-.06.15c-.02.05-.04.09-.06.14-.22.5-.45.99-.7 1.47-.5.96-1.08 1.88-1.7 2.76-.31.44-.64.88-.98 1.31-.39.49-.79.96-1.19 1.43-.7.81-1.44 1.59-2.2 2.33-1.2 1.18-2.47 2.3-3.79 3.36a81 81 0 0 1-4.24 3.18c-1.06.74-2.13 1.46-3.22 2.15a92 92 0 0 1-7.99 4.49c-.15.07-.29.15-.45.24.11.18.2.32.29.46.62.95 1.23 1.9 1.86 2.84m38.32 3.1c.04-.11.1-.22.16-.32s.13-.2.2-.3c.08-.09.16-.18.25-.27.18-.16.38-.29.59-.4.21-.1.44-.17.68-.22.16-.03.32-.04.47-.04.48 0 .96.11 1.36.35.14.08.27.17.38.28.12.11.22.22.32.34.28.37.45.8.49 1.26q.015.18 0 .36c0 .12-.02.24-.05.36s-.06.24-.11.36a2.41 2.41 0 0 1-1.95 1.54c-.15.02-.31.03-.47.02-.16 0-.31 0-.46-.03a2.4 2.4 0 0 1-1.9-1.54c-.09-.23-.13-.47-.15-.71-.02-.36.04-.72.17-1.05m-15-.04c.12-.3.31-.57.54-.79.35-.34.8-.58 1.33-.66.36-.06.7-.05 1.02 0 .48.09.91.32 1.25.64a2.42 2.42 0 0 1 .73 1.51c0 .09.01.18.01.27 0 .18-.02.35-.06.52-.06.25-.16.49-.29.71a2.415 2.415 0 0 1-1.95 1.14h-.17c-.36.02-.69-.03-.98-.13a2.401 2.401 0 0 1-1.54-1.67c0-.03-.02-.06-.02-.08-.04-.17-.06-.35-.06-.52 0-.34.06-.66.19-.96m-15.17.52c.02-.1.04-.2.07-.3.04-.13.09-.25.15-.37.18-.36.45-.68.8-.91.11-.08.24-.15.37-.21.17-.08.35-.14.53-.18.36-.08.72-.08 1.07-.02.52.1 1 .34 1.37.71.24.25.44.55.56.89a2.282 2.282 0 0 1 .06 1.4c-.05.18-.11.35-.2.51-.07.13-.15.25-.23.36-.05.07-.1.13-.16.19s-.12.13-.19.18c-.19.16-.41.3-.65.4s-.5.16-.78.17h-.2c-.16 0-.32 0-.48-.02a2.399 2.399 0 0 1-2.07-1.88c-.02-.11-.04-.21-.05-.32-.02-.21 0-.42.03-.62M139.73 109.19c-.07-.02-.12-.05-.16-.05H76.86c-.13 0-.26.01-.38.03h-.02s-.02.01-.02.02h-.01s-.02.03-.05.06v5.09h63.37v-5.13Zm-61.05 4h-1.07c-.03-.1-.06-.36-.07-.68 0-.13-.01-.27-.01-.42v-1.11c0-.27.03-.51.05-.66h1.1v2.88Zm6.01 0h-1.14v-2.89h1.12c.02.24.03.48.03.71v.72c0 .48-.01.96-.02 1.46m5.97-.02h-1.08c-.03-.08-.05-.25-.06-.47s-.02-.48-.03-.75v-.47c0-.55.04-1.04.09-1.19h1.07v2.88Zm5.98.01h-1.06s-.01-.05-.02-.08c0-.03-.01-.07-.02-.11-.02-.13-.03-.3-.04-.49 0-.19-.02-.41-.02-.64 0-.45 0-.92.03-1.27 0-.11.02-.21.03-.29h1.1zm5.98 0h-1.06c-.03-.08-.05-.26-.06-.49-.02-.23-.02-.53-.03-.83v-.62c0-.38.03-.73.06-.94h1.1v2.88Zm5.99-2.88v2.89h-1.14c-.01-.48-.02-.96-.02-1.44s0-.96.01-1.45zm6 2.88h-1.06c-.04-.11-.07-.39-.08-.74 0-.12-.01-.24-.01-.37v-.68c0-.23 0-.45.02-.64.01-.19.03-.36.05-.47h1.09v2.91Zm5.99 0h-1.13c-.02-.36-.03-.71-.03-1.07v-1.81h1.15v2.88Zm5.98 0h-1.13v-2.88h1.13zm5.98 0h-1.13v-2.87h1.13zm5.99 0h-1.13v-2.86c.09-.02.18-.04.27-.05.09 0 .18-.01.27-.01.1 0 .19 0 .29.01.1 0 .2.01.3.02v2.88Z" class="cls-1"/><path d="m165.29 58.08-6.85 4.06c5.5 8.96 8.68 19.51 8.68 30.79 0 12.15-3.68 23.44-9.98 32.82-.19.28-.38.55-.57.83-.1.15-.2.29-.3.44-2 2.79-2.65 4.01-5.72 6.97-.86.83-1.91 1.8-3.24 2.98-.16.15-.33.29-.58.5v-3.32h-1.64c-.02-.17-.04-.29-.04-.4V131c0-.06 0-.11.01-.16q.03-.15.12-.27c.03-.04.07-.08.12-.11.24-.19.46-.38.69-.58l.25-.22c.07-.06.13-.11.17-.18a.4.4 0 0 0 .05-.11c.01-.04.01-.08.01-.13-.1-1.52.33-2.97.58-4.44.05-.32.11-.63.16-.96-.07-.02-.13-.06-.18-.05-.27.04-.51-.01-.73-.1-.08-.03-.15-.07-.22-.11-.1-.05-.19-.11-.29-.17-.76-.47-1.45-1.01-1.9-1.88-.11.09-.2.14-.24.22-.34.58-.8 1.01-1.32 1.37-.15.1-.3.2-.46.29-.17.1-.35.2-.53.3-.06.03-.12.05-.19.06-.07 0-.14.01-.21.02-.15.01-.31 0-.46.02-.03 0-.05.03-.11.06.09.53.19 1.07.29 1.6l.21 1.08c.07.36.14.72.19 1.08.06.45.06.91.05 1.37 0 .08 0 .16.01.24.02.15.07.27.17.38.05.06.11.11.18.16.31.22.58.49.88.73.08.06.13.13.17.21.02.04.03.08.04.12 0 .04.01.09.01.14 0 .95-.01 1.9 0 2.84 0 .06 0 .12-.01.17-.02.07-.05.13-.09.19s-.1.12-.17.18c-.19.14-.38.28-.57.43-.7.52-1.4 1.05-2.11 1.57-.12.09-.2.17-.25.28-.05.1-.07.22-.07.37.01 1.85 0 3.7.01 5.55 0 .21-.05.37-.15.5-.06.07-.13.14-.24.2-.67.37-1.32.76-1.99 1.15l-.12.06c-.05.02-.1.04-.17.07v-7.56c0-.07 0-.14-.01-.21 0-.07-.02-.13-.03-.2-.03-.13-.08-.26-.15-.38-.29-.54-.56-1.09-.86-1.62-.04-.07-.07-.14-.1-.21s-.05-.14-.07-.21-.03-.15-.04-.22c0-.08-.01-.15-.01-.23v-16.96c-.14-.04-9.05-.07-19.63-.09H84.58c-.92 0-1.69 0-2.3.01h-1.07c-.26 0-.41 0-.45.01 0 .18-.01.38-.01.57v16.38c0 .24-.03.46-.1.67-.04.13-.09.25-.16.38-.27.48-.51.98-.77 1.46-.07.13-.12.26-.16.4-.03.14-.05.28-.05.43v7.57c-.15-.06-.24-.09-.33-.14-.65-.37-1.29-.76-1.95-1.12a.72.72 0 0 1-.34-.35.9.9 0 0 1-.07-.38c.02-1.8 0-3.61.02-5.41 0-.37-.1-.62-.41-.84-.86-.61-1.69-1.26-2.54-1.88a.73.73 0 0 1-.24-.26.65.65 0 0 1-.07-.35c.02-.92.01-1.84 0-2.75 0-.15.03-.27.09-.38.02-.04.05-.07.08-.11s.06-.07.1-.1c.25-.19.49-.41.73-.61.07-.06.14-.12.22-.18a.7.7 0 0 0 .14-.16c.05-.08.07-.17.07-.27-.06-.92.08-1.81.25-2.7l.21-1.07c.03-.18.07-.36.1-.53.05-.33.11-.66.17-1.01v-.08l-.13-.03c-.04 0-.08-.01-.11 0-.25.04-.47 0-.68-.07a3 3 0 0 1-.6-.32c-.36-.23-.7-.47-1.01-.74-.31-.28-.58-.6-.78-.99 0-.02-.03-.03-.05-.05s-.06-.04-.1-.07v.02s-.09.08-.12.12-.07.08-.09.12c-.07.11-.14.22-.22.33-.08.1-.16.2-.25.3-.13.14-.26.26-.4.38-.44.37-.94.66-1.47.92-.08.04-.17.06-.27.07-.1 0-.21 0-.32.01-.07 0-.15 0-.23.01.04.24.07.48.12.71.17.92.37 1.83.5 2.75.04.29.07.57.09.86s.02.58.02.87c0 .34.1.57.37.77.31.23.6.48.87.74.05.05.1.11.13.18.04.07.06.14.06.2v3.08c0 .02 0 .04-.02.07-.01.03-.03.06-.04.1h-1.62v3.17c-12.35-10.81-20.15-26.68-20.15-44.38 0-11.47 3.28-22.17 8.94-31.22l-6.6-3.91C45.32 68 41.71 79.96 41.71 92.77c0 34.53 26.26 62.93 59.91 66.31v-8.59c0-.14-.03-.27-.03-.41v-12.52a.7.7 0 0 1 .18-.51c.04-.04.09-.09.15-.13.75-.53 1.48-1.09 2.21-1.64.22-.17.43-.25.71-.24.34 0 .67.01 1.01 0h1.48c0-.07.02-.13.03-.18 0-.05.02-.1.02-.16v-2.52c0-.05 0-.11-.01-.15a.5.5 0 0 0-.12-.25c-.03-.04-.07-.07-.11-.11-.3-.23-.58-.49-.88-.74-.13-.1-.2-.22-.18-.39.02-.34.02-.67 0-1-.04-.5-.13-.99-.22-1.47-.1-.49-.2-.98-.28-1.47q-.075-.45-.15-.87c.06-.04.09-.07.11-.06.21.03.39-.01.55-.09s.3-.21.43-.36c.3-.33.62-.65.94-.96l.32-.32c.05-.05.11-.1.16-.15.06-.05.11-.11.17-.16.23.23.46.46.69.68.22.22.45.44.67.66.1.1.2.19.29.29.09.11.18.2.29.27.1.07.22.12.35.14q.135.015.27 0c.04 0 .08.03.16.05-.16.85-.3 1.71-.47 2.56-.04.18-.07.35-.1.53-.06.34-.1.69-.11 1.03v.58c.02.27-.06.46-.28.63-.14.1-.28.21-.41.33-.13.11-.26.23-.39.35-.04.03-.07.07-.11.11-.03.04-.06.09-.08.13-.01.03-.02.06-.02.09 0 .49-.01.98-.01 1.47v1.5c.08 0 .16.02.23.02s.14.01.2.01h2.2c.21 0 .38.04.55.17a130 130 0 0 0 2.35 1.75c.2.14.26.3.26.54v21.62c33.88-3.15 60.4-31.65 60.4-66.36 0-12.69-3.55-24.55-9.7-34.64" class="cls-1"/><path d="M143.01 52.05c-.08-.07-.17-.14-.25-.2.08.07.17.13.25.2M141.6 50.89c-.6-.48-1.2-.95-1.82-1.4.59.43 1.17.88 1.74 1.34.03.02.05.04.08.06M159.7 78.22c-.02-.07-.04-.14-.06-.22.02.07.04.14.06.22M141.36 120.99l-.05.05zM161.69 91.25v-.12zM159.1 76.24c-.03-.1-.07-.21-.1-.31.03.1.07.21.1.31M155.87 68.42s-.03-.06-.04-.09.03.06.04.09M160.13 79.84c-.01-.05-.03-.11-.04-.16.01.05.03.1.04.16M161.21 85.44c-.01-.09-.03-.18-.04-.26.01.09.03.18.04.26M155.82 117.11c.19-.36.37-.73.55-1.1-.18.37-.36.73-.55 1.09ZM159 75.93c-.11-.33-.23-.66-.34-.99.11.33.23.66.34.99M161.71 92.78c0-.51 0-1.02-.02-1.53.01.51.02 1.02.02 1.53M161.17 85.18c-.02-.16-.05-.33-.08-.49.02.16.05.33.08.49M141.6 50.89" class="cls-7"/><path d="M141.6 50.89s-.05-.04-.08-.06c.03.02.05.04.08.06M126.54 87.08c.24.16.48.33.73.49-.25-.16-.48-.33-.73-.49M138.09 48.3l.04.02zM128.49 43.15c.06.02.12.05.18.07-.06-.03-.12-.05-.18-.07M125.04 86.06q.75.525 1.5 1.02c-.5-.34-1.01-.68-1.5-1.02M119.82 40.41c.16.04.33.08.49.11-.16-.04-.33-.08-.49-.11M124.23 41.6l.39.12zM151.64 61.47h-.01zM151.64 61.47c-.09-.13-.18-.26-.28-.39.09.13.18.26.28.39M154.95 66.7c-.03-.05-.06-.1-.09-.16.03.05.06.1.09.16M154.78 119.04l-.21.36zM155.77 117.21l.05-.1zM142.77 51.85c-.09-.08-.18-.15-.27-.22.09.08.18.15.27.22M111.04 64.2c-.13.48-.4.93-.8 1.34.4-.42.67-.86.8-1.34M97.1 116.59h-3.41zM84.57 116.61c-.92 0-1.69 0-2.3.01.61 0 1.38 0 2.3-.01M73.73 130.53h.01zM141.6 106.89c.13 0 .25.02.38.03h-.11c-.09 0-.18-.02-.27-.02M140.86 126.52l-.21-1.08c-.1-.54-.19-1.08-.29-1.6.09.53.19 1.07.29 1.6zM141.7 134.77c.19-.14.38-.29.57-.43.08-.06.13-.11.17-.18-.04.06-.1.12-.17.18-.19.14-.38.28-.57.43M142.33 130.49c-.3-.24-.57-.51-.88-.73.31.22.58.49.88.73M79.7 136.1c.27-.48.5-.98.77-1.46-.27.48-.51.98-.77 1.46M79.5 143.95v-7.02c0-.15.01-.29.05-.43-.03.14-.05.28-.05.43zM146.41 129.48c-.04.07-.1.12-.17.18-.09.07-.17.14-.25.22l.25-.22c.07-.06.13-.11.17-.18M143.65 121.74c-.34.58-.8 1.01-1.32 1.37.52-.36.99-.79 1.32-1.37.04-.08.14-.13.24-.22-.11.09-.2.14-.24.22M141.14 123.75c.07 0 .13-.03.19-.06.18-.1.36-.2.53-.3-.17.1-.35.2-.53.3-.06.03-.12.05-.19.06M147.31 136.97c1.33-1.18 2.38-2.15 3.24-2.98 1.65-1.78 3.19-3.64 4.64-5.54a64 64 0 0 1-7.89 8.52M155.19 128.45c.36-.47.72-.95 1.08-1.43-.35.48-.71.96-1.08 1.43M69.98 129.77c-.27-.2-.37-.43-.37-.77 0-.29 0-.58-.02-.87.02.29.02.58.02.87 0 .34.1.57.37.77.31.23.6.48.87.74.05.05.1.11.13.18a.8.8 0 0 0-.13-.18c-.28-.26-.57-.52-.87-.74M74.57 129.82c.07-.06.14-.12.22-.18a.7.7 0 0 0 .14-.16c-.03.06-.08.11-.14.16-.07.06-.14.12-.22.18M71.06 132.43v1.54c0 .02 0 .04-.02.07.01-.03.02-.05.02-.07zM68.88 123.8c.04.24.07.48.12.71.17.92.37 1.83.51 2.75-.14-.92-.34-1.83-.51-2.75-.04-.23-.08-.47-.12-.71M106.86 72.32s-.04.09-.06.14c-.22.5-.45.99-.7 1.47.25-.48.49-.97.7-1.47.02-.05.04-.09.06-.14M105.85 65.38c.24.3.53.57.86.8-.33-.24-.63-.5-.86-.8M105.19 63.6c.01.24.05.49.13.73-.07-.24-.11-.49-.13-.73M105.31 66.4c.6 0 1.15-.02 1.7-.03-.55 0-1.1.02-1.7.03M82.69 98.9c.05.15.07.3.07.47-.01 2.31 0 4.62 0 6.93v-6.93c0-.17-.02-.32-.07-.47M107.06 71.82c-.06.14-.1.26-.14.36.04-.1.09-.22.14-.36M135.77 94.95s-.09-.05-.13-.07c.04.02.09.05.13.07M80.33 95.18c.11.18.2.32.29.46.62.95 1.23 1.9 1.86 2.84-.63-.94-1.24-1.89-1.86-2.84-.09-.14-.18-.28-.29-.46M133.97 98.6c-.14.21-.2.43-.2.68v3.51-3.51c0-.26.06-.47.2-.68.68-1.02 1.35-2.04 2.02-3.07.07-.11.13-.23.21-.36-.08.13-.14.25-.21.36-.67 1.02-1.34 2.05-2.02 3.07M82.94 106.88s-.08-.03-.19-.06c.11.04.15.06.19.06h50.41c.1 0 .2-.01.29-.02-.1 0-.19.02-.29.02zM76.47 109.16h-.02s-.02.01-.02.02c0 0 .02-.01.02-.02zM110.73 58.85l.03.02zM141.98 106.92v.14zh-.11zM161.57 96.57l.03-.55zM87.56 88.4c.7-.45 1.4-.9 2.1-1.36-.69.46-1.39.92-2.1 1.36M111.18 59.14l.01.01zM103.16 74.12c-.06.1-.11.19-.16.26.05-.08.1-.16.16-.26M161.7 93.45c0-.17.01-.35.01-.52 0 .17 0 .35-.01.52M161.65 95.17c0-.19.02-.38.02-.58 0 .19-.01.38-.02.58M161.67 94.59v-.19zM70.09 120.6c.05-.09.09-.18.13-.27.13-.34.27-.68.4-1-.13.33-.26.66-.4 1-.04.1-.08.19-.13.27M113.31 62.53c0 .05.01.1.02.15 0-.05-.01-.1-.02-.15M113.38 63.08v.23zM113.29 66.84c-.02-.15-.05-.25-.05-.35 0 .1.03.2.05.35M110.32 58.64c.14.07.28.13.41.21-.02 0-.03-.02-.04-.03-.12-.07-.24-.13-.37-.18M111.19 59.15c.2.14.38.3.55.47-.07-.07-.14-.14-.21-.2-.11-.09-.23-.18-.34-.27M111.83 59.7c.17.17.34.36.49.55-.12-.15-.24-.3-.37-.44-.04-.04-.08-.07-.12-.11M111.75 59.62s.06.06.09.08c-.03-.03-.06-.06-.09-.08M112.32 39.26" class="cls-7"/><path d="M110.69 58.82s.03.02.04.03c-.02 0-.03-.02-.04-.03M110.96 59c.07.05.15.09.22.14-.07-.05-.15-.09-.22-.14M110.77 58.87c.07.04.13.09.2.13-.07-.04-.13-.09-.2-.13M111.19 59.15c.12.09.23.17.34.27-.11-.09-.23-.18-.34-.27M161.69 93.93c0-.16 0-.32.01-.47 0 .16 0 .32-.01.47M161.68 94.4c0-.16 0-.32.01-.47 0 .16 0 .32-.01.47M161.62 95.68l.03-.51c0 .17-.02.34-.03.51M161.6 96.02c0-.11.01-.23.02-.34 0 .11-.01.23-.02.34M141.05 106.89h.55-.55M141.22 106.89h.38zM113.38 63.3v.26zM113.22 62.12c.04.14.07.27.09.41v-.04l-.09-.38M113.05 61.56c-.08-.22-.19-.43-.3-.64.11.21.21.42.3.64M112.32 60.25c.14.18.26.38.38.58-.05-.08-.09-.17-.14-.25-.07-.11-.15-.22-.23-.32M112.75 60.92s-.03-.06-.05-.09c.02.03.03.06.05.09" class="cls-7"/><path d="M112.32 60.25c.08.11.16.21.23.32-.07-.11-.15-.22-.23-.32M113.33 62.68c.02.12.03.24.04.36 0-.12-.03-.24-.04-.36M113.38 63.3v.25zM141.87 106.91h.11c-.13-.02-.25-.03-.38-.03.09 0 .18.01.27.02M105.62 102.5c0 .17.02.34.06.52 0 .03.02.06.03.08 0-.03-.02-.06-.03-.08-.04-.17-.06-.35-.06-.52M123.14 104.91c-.16 0-.31 0-.46-.03.14.02.3.03.46.03M125.22 101.01c-.09-.12-.2-.24-.32-.34-.12-.11-.25-.2-.38-.28.14.08.27.17.38.28.12.11.22.22.32.34M95.54 113c-.02-.13-.03-.3-.04-.49 0 .19.02.36.04.49M107.45 111.76c0-.48 0-.96.01-1.45 0 .49-.01.97-.01 1.45M125.44 110.31h1.13v2.88-2.88zM84.67 110.3c.02.24.03.48.03.71 0-.24-.02-.48-.03-.71M137.41 110.33c.09-.02.18-.04.27-.05-.09 0-.18.02-.27.05M108.77 124.25c-.22-.22-.45-.45-.69-.68-.06.06-.12.11-.17.16.06-.05.11-.11.17-.16.23.23.46.46.69.68M110.63 125.62s.08.03.16.05c-.07-.02-.12-.06-.16-.05M107.43 124.21c-.32.32-.64.63-.94.96-.14.15-.28.28-.43.36.16-.08.3-.21.43-.36.3-.33.62-.65.94-.96M106.83 134.99h-1.01zM104.1 135.23c-.73.56-1.46 1.11-2.21 1.64-.06.04-.11.08-.15.13.04-.04.09-.09.15-.13.75-.53 1.48-1.09 2.21-1.64M107.36 132.14v2.52c0 .05 0 .1-.02.16 0-.05.02-.1.02-.16zM109.03 134.98c-.07 0-.14-.02-.23-.02v-1.5 1.5c.08 0 .16.02.23.02M109.72 125.21c-.08-.11-.19-.2-.29-.29-.22-.22-.44-.44-.67-.66.23.22.45.44.67.66.1.1.2.19.29.29M111.43 134.99c.21 0 .38.04.55.17a130 130 0 0 0 2.35 1.75c.2.14.26.3.26.54 0-.24-.06-.4-.26-.54a130 130 0 0 1-2.35-1.75.84.84 0 0 0-.55-.17h-2.2c-.07 0-.13 0-.2-.01.07 0 .14.01.2.01zM59.94 60.95 59 60.4c-.29.43-.57.87-.84 1.31l.99.58z" class="cls-7"/><path d="M105.81 101.54c-.13.3-.19.62-.19.96 0 .17.02.34.06.52 0 .03.02.06.03.08.08.33.24.66.49.95.26.31.62.57 1.05.72.29.1.62.15.98.13h.17a2.395 2.395 0 0 0 2.3-2.37c0-.09 0-.18-.01-.27 0-.09-.02-.18-.04-.27-.11-.5-.35-.92-.69-1.24a2.58 2.58 0 0 0-2.27-.64c-.53.09-.99.33-1.33.66-.23.22-.41.49-.54.79M95.55 101.68a2.3 2.3 0 0 0-.56-.89c-.37-.37-.85-.62-1.37-.71-.35-.06-.71-.06-1.07.02a2.6 2.6 0 0 0-.9.39 2.4 2.4 0 0 0-.95 1.28c-.03.1-.05.2-.07.3-.04.2-.05.41-.03.62 0 .11.02.21.05.32.07.35.22.67.43.94a2.4 2.4 0 0 0 1.64.94c.15.02.31.03.48.02h.2c.28-.01.54-.07.78-.17s.46-.23.65-.4c.07-.06.13-.12.19-.18s.11-.12.16-.19c.09-.11.17-.23.23-.36.08-.16.15-.33.2-.51.07-.27.09-.55.07-.83-.02-.19-.06-.38-.13-.57M122.69 104.88c.14.02.3.03.46.03.17 0 .32 0 .47-.02.3-.04.56-.13.8-.24.58-.3.96-.81 1.15-1.29.04-.12.08-.24.11-.36s.04-.24.05-.36v-.36c-.04-.45-.21-.89-.49-1.26-.09-.12-.2-.24-.32-.34-.12-.11-.25-.2-.38-.28-.41-.24-.89-.36-1.36-.35-.16 0-.32.02-.47.04-.23.04-.46.11-.68.22-.21.1-.41.23-.59.4-.09.08-.17.17-.25.27-.08.09-.14.19-.2.3-.06.1-.11.21-.16.32-.13.33-.19.69-.17 1.05.01.24.06.48.15.71.25.67.89 1.39 1.9 1.54M77.53 110.97v1.11c0 .15 0 .29.01.42.02.33.04.59.07.68h1.07v-2.88h-1.1c-.02.15-.04.39-.05.66M89.59 110.3c-.05.15-.08.64-.09 1.18v.47c0 .27.01.53.02.75s.03.38.06.47h1.08v-2.88h-1.07ZM95.51 110.61c-.02.34-.03.82-.03 1.27 0 .23 0 .45.02.64s.02.36.04.49c0 .04.01.08.02.11 0 .03.01.06.02.08h1.06v-2.88h-1.1c-.01.08-.02.18-.03.29M101.46 111.25v.62c0 .3.01.59.03.83s.04.41.06.49h1.06v-2.88h-1.1c-.03.21-.05.56-.06.94M107.45 111.76c0 .48 0 .96.02 1.44h1.14v-2.89h-1.15c0 .49-.01.97-.01 1.45M119.43 111.04v1.08c0 .36 0 .71.03 1.07h1.13v-2.88h-1.15v.73M125.44 110.31h1.13v2.88h-1.13zM131.42 110.31h1.13v2.87h-1.13zM84.67 110.3h-1.12v2.89h1.14c0-.5.02-.98.02-1.46v-.72c0-.24-.02-.48-.03-.71M113.51 110.28c-.02.12-.04.28-.05.47s-.02.41-.02.64v.68c0 .13 0 .26.01.37.02.35.05.64.08.74h1.06v-2.91h-1.09ZM137.95 110.27c-.09 0-.18 0-.27.01-.09 0-.18.02-.27.05v2.86h1.13v-2.88c-.1 0-.2-.01-.3-.02-.1 0-.19-.01-.28-.01M101.6 150.44c.1.02.18.04.25.05 1.22.1 2.44.19 3.65.29.24.02.48.06.72.09h.83c0-.12-.02-.24-.02-.36v-9.049999999999999h2.1c0 .17.02.35.02.52v8.889999999999999h.83c.15-.03.3-.07.45-.08.75-.05 1.5-.08 2.24-.13.62-.05 1.24-.12 1.88-.18.01-.16.03-.28.03-.4v-12.610000000000001c0-.24-.06-.4-.26-.54a130 130 0 0 1-2.35-1.75.84.84 0 0 0-.55-.17h-2.2c-.07 0-.13 0-.2-.01-.07 0-.14-.02-.23-.02v-1.5c0-.49 0-.98.01-1.47 0-.03 0-.06.02-.09.02-.04.05-.09.08-.13s.07-.08.11-.11c.13-.12.26-.24.39-.35s.27-.22.41-.33c.22-.16.3-.36.28-.63q-.015-.27 0-.54v-.04c.01-.35.05-.69.11-1.03.03-.18.06-.35.1-.53.18-.85.32-1.7.47-2.56-.07-.02-.12-.06-.16-.05q-.15.03-.27 0a.9.9 0 0 1-.35-.14c-.1-.07-.2-.16-.29-.27-.08-.11-.19-.2-.29-.29-.22-.22-.44-.44-.67-.66-.22-.22-.45-.45-.69-.68-.06.06-.12.11-.17.16s-.11.1-.16.15l-.32.32c-.32.32-.64.63-.94.96-.14.15-.28.28-.43.36-.16.08-.34.12-.55.09-.02 0-.05.03-.11.06.05.28.1.58.15.87.08.49.19.98.28 1.47.1.49.18.98.22 1.47.03.33.03.66 0 1-.01.17.06.29.18.39.3.24.58.5.88.74.04.03.08.07.11.11.06.07.1.16.12.25 0 .05.01.1.01.15v2.52c0 .05 0 .1-.02.16 0 .05-.02.11-.03.18h-2.49c-.28 0-.5.07-.71.24-.73.56-1.46 1.11-2.21 1.64-.06.04-.11.08-.15.13a.5.5 0 0 0-.1.14.8.8 0 0 0-.08.37c.01 4.17 0 8.35 0 12.52 0 .13.02.27.03.41" class="cls-7"/><path d="M179.05 49.93c-.27-.44-.54-.88-.82-1.32l-1.09.64-1.47.87-4.02 2.38-7.19 4.26-6.86 4.06c-10.51-16.15-28.73-26.84-49.44-26.84S69.55 44.48 59 60.4l.94.55-.79 1.34-.99-.58c-5.66 9.05-8.94 19.75-8.94 31.22 0 17.7 7.8 33.58 20.15 44.38v-3.17h1.62s.03-.08.04-.1c.01-.03.02-.05.02-.07v-3.08a.36.36 0 0 0-.06-.2.8.8 0 0 0-.13-.18c-.28-.26-.56-.52-.87-.74-.27-.2-.37-.43-.37-.77 0-.29 0-.58-.02-.87s-.04-.58-.09-.86c-.14-.92-.34-1.83-.51-2.75-.04-.23-.08-.47-.12-.71.08 0 .15-.01.23-.01.11 0 .22 0 .32-.01a.6.6 0 0 0 .27-.07c.53-.26 1.03-.55 1.47-.92.14-.12.28-.24.4-.37.09-.1.17-.2.25-.3s.15-.21.22-.33l.09-.12c.03-.04.07-.08.1-.12l.02-.02.1.07c.02.02.04.03.05.05.2.39.47.71.78.99s.66.52 1.01.74c.2.12.39.24.6.32s.43.11.68.07h.11c.04 0 .09.02.14.03v.08c-.08.35-.14.68-.19 1.01-.03.18-.06.36-.09.53l-.21 1.07c-.17.89-.32 1.78-.25 2.7 0 .11-.02.2-.07.27a.7.7 0 0 1-.14.16c-.07.06-.14.12-.22.18-.24.21-.48.42-.73.61-.04.03-.07.06-.1.09s-.05.08-.08.11a.67.67 0 0 0-.09.38c.01.92.02 1.84 0 2.75 0 .14.02.25.07.35s.13.18.24.26c.85.62 1.68 1.27 2.54 1.89.31.22.42.46.41.84-.02 1.8 0 3.61-.02 5.41 0 .15.02.28.07.38.43.27.86.53 1.3.79s.88.51 1.32.76v-7.51c0-.15.01-.29.05-.43.03-.14.08-.27.16-.4.27-.48.5-.98.77-1.46.07-.12.12-.25.16-.38.07-.21.1-.43.1-.67V117.2c0-.19 0-.39.01-.57.04 0 .19 0 .45-.01h1.07c.61 0 1.38 0 2.3-.01h31.159999999999997c10.58.02 19.49.05 19.63.09v16.959999999999997c0 .08 0 .16.01.23 0 .08.02.15.04.22a1.7 1.7 0 0 0 .17.42c.3.53.56 1.08.86 1.62.07.12.12.25.15.38.02.07.03.13.03.2s.01.14.01.21v7.56c.07-.03.12-.05.17-.07q.075-.03.12-.06c.66-.38 1.32-.78 1.99-1.15a.8.8 0 0 0 .24-.2c.11-.13.15-.28.15-.5-.02-1.85 0-3.7-.01-5.55 0-.15.02-.26.07-.37.05-.1.13-.19.25-.28.71-.52 1.41-1.05 2.11-1.57.19-.14.38-.29.57-.43.08-.06.13-.11.17-.18.04-.06.07-.12.09-.19.01-.05.02-.1.01-.17-.01-.95-.01-1.9 0-2.84 0-.05 0-.1-.01-.14 0-.04-.02-.09-.04-.12a.55.55 0 0 0-.17-.21c-.3-.24-.57-.51-.88-.73a.768.768 0 0 1-.35-.55c-.01-.07-.01-.15-.01-.24.02-.46.02-.92-.05-1.37-.05-.36-.12-.72-.19-1.08l-.21-1.08c-.1-.54-.19-1.08-.29-1.6.06-.03.09-.05.11-.06.15 0 .31 0 .46-.02.07 0 .14-.01.21-.02.07 0 .13-.03.19-.06.18-.1.36-.2.53-.3.16-.09.31-.19.46-.29.52-.36.99-.79 1.32-1.37.04-.08.14-.13.24-.22.45.87 1.14 1.41 1.9 1.88.1.06.19.12.29.17.07.04.15.07.22.11.23.09.46.14.73.1.05 0 .11.03.18.05-.06.33-.11.65-.16.96-.24 1.47-.68 2.92-.58 4.44 0 .05 0 .09-.01.13a.4.4 0 0 1-.05.11c-.04.07-.1.12-.17.18-.09.07-.17.14-.25.22-.23.2-.46.4-.69.58-.05.04-.09.07-.12.11a.55.55 0 0 0-.12.27c0 .05-.01.11-.01.16.01.92 0 1.83 0 2.75 0 .12.02.23.04.4h1.64v3.32c.25-.21.41-.36.58-.5 2.95-2.65 5.56-5.5 7.89-8.52-1.45 1.9-3 3.76-4.64 5.54 3.07-2.97 3.72-4.18 5.72-6.97.1-.14.2-.29.3-.44.19-.27.38-.55.57-.83 6.3-9.38 9.98-20.67 9.98-32.82 0-11.29-3.17-21.83-8.68-30.79l6.85-4.06 7.18-4.25c6.75 11.25 10.64 24.42 10.64 38.49 0 41.36-33.53 74.89-74.89 74.89s-74.88-33.48-74.88-74.84c0-14.24 3.97-27.55 10.87-38.88l7.37 4.37 6.6 3.91c.28-.44.56-.88.84-1.31l-6.61-3.91-7.38-4.37-4.16-2.46-1.13-.67-1.02-.6c-.28.44-.55.88-.82 1.32-7.59 12.48-11.96 27.13-11.96 42.8 0 45.55 36.93 82.48 82.48 82.48s82.48-36.93 82.48-82.48c0-15.58-4.32-30.14-11.83-42.57m-102.7 64.37v-5.09l.05-.05h.01l.02-.02h.03c.13-.01.26-.03.38-.03h62.71c.04 0 .09.03.16.05v5.13H76.34Zm27.86-42.51v-2.7h1.09V66.4l1.7-.03c-.1-.06-.2-.13-.3-.2-.33-.24-.62-.5-.86-.8q-.36-.45-.54-1.05c-.07-.24-.11-.49-.13-.73-.01-.24 0-.49.05-.73.03-.16.08-.32.14-.48.33-.9 1.11-1.61 1.97-1.89.14-.05.29-.08.44-.1s.3-.03.44-.02c.16 0 .32.03.47.06.16.03.31.08.45.14a3.046 3.046 0 0 1 1.46 1.2c.18.27.31.57.4.89.05.18.08.36.1.53.04.35 0 .68-.08 1-.13.48-.4.93-.8 1.34-.27.28-.6.54-1 .79.59.13 1.15 0 1.74.1v2.66h1.11v2.73h-2.6c.04.11.07.2.1.29.03.08.06.16.09.23.34.79.72 1.56 1.14 2.3a27.5 27.5 0 0 0 2.41 3.51c2.12 2.66 4.57 4.97 7.21 7.09 2.94 2.36 6.03 4.48 9.25 6.4.97.57 1.94 1.13 2.93 1.67s1.99 1.06 3 1.57c.04.02.09.05.13.07.13.07.27.14.42.22-.08.13-.14.25-.21.36-.67 1.02-1.34 2.05-2.02 3.07-.14.21-.2.43-.2.68v7.489999999999999l-.04.05-.02.02s-.02.03-.04.03h-.03c-.1.01-.19.03-.29.03H82.88c-.04 0-.08-.03-.19-.06v-7.449999999999999c0-.17-.02-.32-.07-.47q-.06-.225-.21-.42c-.63-.94-1.24-1.89-1.86-2.84-.09-.14-.18-.28-.29-.46q.24-.12.45-.24c2.74-1.37 5.41-2.86 7.99-4.49 1.09-.69 2.16-1.41 3.22-2.15 1.44-1.01 2.86-2.06 4.24-3.18 1.32-1.06 2.59-2.18 3.79-3.36.76-.75 1.49-1.53 2.2-2.33.41-.47.81-.94 1.19-1.43.34-.43.66-.86.98-1.31.63-.89 1.2-1.8 1.7-2.76.25-.48.49-.97.7-1.47.02-.05.04-.09.06-.14l.06-.15c.04-.1.09-.22.14-.36h-2.84Zm54.44 3.13c.11.33.23.66.34.99.03.1.07.21.1.31l.07.2c.13.41.26.82.38 1.23.03.11.07.21.1.32.02.07.04.14.06.22q.21.735.39 1.47c.01.05.03.11.04.16 0 .03.01.05.02.08.14.56.27 1.12.38 1.68.01.05.03.11.04.16.02.12.04.24.07.36.08.4.16.8.23 1.2.02.11.04.22.06.32.02.09.03.17.04.26l.12.78c.02.16.05.33.08.49.01.09.03.18.04.26 0 .06.02.11.02.17.07.54.14 1.08.19 1.62 0 .05.01.1.02.15l.03.41c.03.37.07.74.09 1.11 0 .11.02.22.03.34 0 .11 0 .22.02.32.02.36.04.71.05 1.07 0 .16.01.32.02.49v.12c.01.51.02 1.02.02 1.53v.15c0 .17 0 .35-.01.52 0 .16 0 .32-.01.47 0 .16 0 .32-.01.47v.19c0 .19-.01.39-.02.58 0 .17-.02.34-.03.51 0 .11-.01.23-.02.34l-.03.55c0 .08-.01.15-.02.23l-.09 1.03c-.04.41-.08.82-.13 1.22l-.09.71c-.04.3-.08.6-.13.89-.03.21-.07.42-.1.63-.05.31-.1.62-.16.93-.03.14-.05.28-.08.42-.12.66-.26 1.31-.41 1.95-.03.12-.05.25-.08.37-.08.34-.16.68-.25 1.02-.04.14-.07.28-.11.41-.09.35-.19.7-.28 1.04-.01.05-.03.1-.04.15a49 49 0 0 1-1.14 3.5c-.03.07-.05.15-.08.22l-.42 1.11v.02c-.47 1.18-.98 2.34-1.52 3.47-.02.03-.03.07-.05.1-.18.37-.36.74-.55 1.1-.02.03-.03.06-.05.1-.32.62-.65 1.23-.99 1.84l-.21.36c-.36.62-.72 1.23-1.1 1.82-.01.02-.02.03-.03.05-.27.42-.54.83-.82 1.24-.04.05-.07.11-.11.16-.25.37-.51.74-.77 1.1-.08.11-.16.21-.23.31-.23.31-.45.61-.69.91-.14.19-.29.36-.44.55-.17.22-.34.44-.52.65-.33.4-.66.78-1 1.16.18-1 .36-1.97.54-2.93s.35-1.92.53-2.89c-.16-.02-.27-.04-.39-.04h-2.11c-.71 0-1.16-.41-1.47-.99-.2-.37-.32-.79-.48-1.2h-3.31c-.14.36-.28.73-.43 1.09-.09.22-.22.42-.39.58l-.05.05c-.09.08-.19.16-.3.23l-.04.02c-.11.06-.23.11-.35.14-.02 0-.04 0-.06.01-.13.03-.26.05-.39.05h-2.46c-.11-.35-.14-4.05-.05-4.87.45-.06.92-.02 1.39-.03h2.88s.03-.21.04-.47c0-.13.01-.28.02-.45v-.27c0-.19.01-.4.01-.62s0-.46.01-.7c0-.25 0-.5.01-.77 0-.4 0-.81.01-1.22v-3.1799999999999997c0-.35 0-.68-.01-.96 0-.38-.02-.69-.03-.9v-.14c-.13-.02-.25-.03-.38-.03h-5.75c-.02-.15-.05-.27-.05-.38v-6.61c0-.25.09-.44.22-.63 1.01-1.53 2.01-3.07 3.02-4.6l.26-.42c-.13-.07-.24-.14-.36-.2-.79-.37-1.59-.72-2.36-1.12a101 101 0 0 1-9.29-5.36c-.24-.16-.48-.33-.73-.49-.5-.34-1-.68-1.5-1.03l-.2-.14c-.44-.31-.87-.62-1.3-.94-.19-.14-.38-.29-.58-.44-.31-.24-.62-.47-.93-.72-.51-.41-1.02-.82-1.52-1.25a56 56 0 0 1-3.55-3.32q-.84-.87-1.62-1.8c-.52-.62-1.02-1.26-1.49-1.93-.31-.43-.59-.88-.95-1.41h1.38c.11-.38.13-6.72.03-7.28h-1.04c-.02-.15-.05-.25-.05-.35.01-.79 0-1.58.1-2.38.02-.18.04-.36.04-.54v-.53c0-.12-.03-.24-.04-.36 0-.05-.01-.1-.02-.15-.02-.14-.06-.28-.09-.41 0-.03-.01-.05-.02-.08q-.06-.225-.15-.45v-.03c-.09-.22-.2-.43-.31-.64-.02-.03-.03-.06-.05-.09-.11-.2-.24-.39-.38-.58-.15-.19-.31-.38-.49-.55-.03-.03-.06-.06-.09-.08-.17-.17-.36-.32-.55-.47h-.01c-.07-.06-.15-.1-.22-.15-.07-.04-.13-.09-.2-.13h-.01l-.03-.02c-.13-.08-.27-.15-.41-.21-.03-.01-.05-.03-.07-.04-.13-.06-.27-.11-.4-.16-.04-.01-.07-.03-.11-.04-.13-.04-.27-.08-.41-.11-.04-.01-.08-.02-.13-.04-.18-.04-.36-.07-.55-.09-3.25-.38-6.52 2.38-5.86 6.29.13.77.04 1.55.04 2.37h-1.06c-.1.39-.12 6.63-.03 7.24.22 0 .44.02.67.02s.47.02.74.03c-.06.1-.11.19-.16.26-.05.08-.09.15-.13.21-1.38 2.13-3.05 4.01-4.86 5.78a50 50 0 0 1-4.02 3.52c-.7.55-1.41 1.09-2.13 1.61s-1.45 1.03-2.2 1.53c-.69.46-1.39.92-2.1 1.36-.7.45-1.41.88-2.13 1.31-1.43.85-2.88 1.67-4.37 2.43-1.25.64-2.52 1.24-3.78 1.86-.15.07-.29.15-.47.24.1.17.19.32.28.45 1 1.52 1.99 3.04 2.99 4.56.12.18.21.36.21.59v6.74c0 .08-.01.15-.02.28-.5.05-1 .02-1.49.02h-4.5600000000000005l-.06.06c-.01.01-.03.02-.03.03 0 .18-.02.37-.02.55v8.9c0 .02 0 .04.02.07.01.03.03.06.04.11h4.3v4.9h-2.59c-.6 0-1.26-.45-1.49-1.02-.16-.38-.3-.76-.46-1.16h-3.3c-.13.33-.27.66-.4 1-.04.1-.08.19-.13.27-.09.17-.2.32-.33.44s-.27.22-.43.3c-.24.11-.51.17-.82.17h-2.35c.37 1.98.72 3.89 1.07 5.79-.03.01-.06.03-.09.04-4.44-5.24-7.8-11.1-9.96-17.63-3.57-10.8-3.75-21.68-.45-32.57 6.51-21.48 26.21-37.35 49.8-38.03.61-.02 1.21-.02 1.82-.02.26 0 .52 0 .78.01.3 0 .59.02.89.03.77.03 1.55.07 2.31.13h.02c.58.05 1.15.1 1.72.17.06 0 .13.01.19.02.55.06 1.11.14 1.66.22.07 0 .13.02.2.03.56.08 1.12.18 1.67.28.03 0 .05 0 .08.02.66.12 1.32.26 1.98.41.16.04.33.07.49.11.65.15 1.29.31 1.93.49h.02c.66.19 1.32.38 1.97.59l.39.12c1.31.43 2.61.9 3.88 1.43.06.02.12.05.18.07 1.31.54 2.59 1.14 3.84 1.78 1.92.99 3.78 2.09 5.57 3.3l.04.02c.56.38 1.11.76 1.66 1.16.62.45 1.22.92 1.82 1.4.3.24.6.49.89.74.09.07.18.15.27.22.08.07.17.13.25.2.14.12.27.24.41.36.24.21.47.42.7.63.2.19.41.37.61.56.38.35.75.71 1.12 1.08.19.18.37.37.55.56.25.25.49.5.73.76.11.12.23.24.34.36.06.06.12.13.17.2.36.4.72.8 1.08 1.21.14.16.28.33.42.5.26.31.52.62.77.94.09.11.17.21.26.31.05.07.1.14.15.2.35.45.7.9 1.03 1.36.09.13.18.26.28.39.27.38.54.76.8 1.15.06.09.13.18.19.27.05.07.09.14.13.21.33.5.65 1 .97 1.51.05.08.1.17.15.26.27.45.54.91.8 1.37.06.1.12.21.17.31a50.912 50.912 0 0 1 .96 1.79s.03.06.04.09l.02.04c.27.53.53 1.06.78 1.6.09.18.17.37.25.55.19.42.38.85.56 1.28.08.18.15.36.23.54.24.6.48 1.2.71 1.81.09.24.17.48.25.72m-50.3 98.74c-44.86 0-81.23-36.37-81.23-81.23 0-15.43 4.31-29.86 11.78-42.15l1.13.67c-7.42 12.12-11.71 26.37-11.71 41.62 0 44.07 35.73 79.8 79.79 79.8s79.79-35.73 79.79-79.8c0-15.06-4.17-29.14-11.42-41.15l1.47-.87c7.37 12.23 11.62 26.56 11.62 41.88 0 44.86-36.37 81.23-81.23 81.23M24.22 143.14h6.86V150h-6.86zM185.11 143.14h6.86V150h-6.86z" class="cls-6"/><path d="M43.65 159.3c-.91.97-1.02 1.4.2 4.07l.9 1.91c1.33 2.86.38 4.36-1.48 6.35l-.25.26c-2.95 3.15-5.64 3.03-9.17-.27l-.55-.52c-1.1-1.03-2.15-2.55-2.82-3.79l2.37-2.53c.3.74 1.38 2.32 2.72 3.58l.53.49c1.74 1.63 2.77 1.68 3.94.42l.19-.2c.95-1.01 1.16-1.64.02-4.03l-.87-1.85c-1.47-3.11-.62-4.46 1.42-6.64l.29-.31c2.6-2.78 5.27-2.67 8.46.32l.48.45c1.19 1.11 2.28 2.46 2.84 3.32l-2.43 2.6c-.28-.59-1.28-1.86-2.53-3.03l-.44-.41c-1.63-1.52-2.59-1.51-3.58-.46l-.25.26ZM57.25 182.98l-5.05-3.07-3.31 3.35-3.63-2.21 15.92-15.03 4.3 2.62-6.03 21.05-3.63-2.21zm-2.51-5.62 3.61 2.19 2.77-8.62zM74.32 173.33l3.32 1.09 2.88 14.22 3.94-11.98 3.84 1.26-6.6 20.06-3.35-1.1-2.87-14.25-3.95 12.01-3.81-1.25zM120.17 179.39l3.94-.76 3.32 17.3 7.52-1.45.66 3.44-11.46 2.2zM149.34 170.32l5.35 12.74c1.92 4.56 1.28 7.71-2.98 9.5l-1.89.79c-4.23 1.78-6.9.02-8.81-4.54l-5.36-12.74 3.7-1.56 5.21 12.4c1.17 2.78 2.55 3.74 4.42 2.95l.83-.35c1.89-.8 2.18-2.45 1.01-5.23l-5.21-12.4 3.73-1.57ZM154.61 166.98l3.36-2.19 11.52 17.69-3.36 2.19zM169.68 162.97c.89.98 1.31 1.13 4.07.14l1.98-.73c2.96-1.09 4.38-.01 6.2 2l.24.27c2.89 3.2 2.54 5.87-1.04 9.11l-.56.51c-1.12 1.01-2.72 1.93-4.01 2.49l-2.33-2.57c.76-.24 2.43-1.18 3.79-2.41l.54-.49c1.77-1.6 1.9-2.62.75-3.89l-.18-.2c-.93-1.03-1.54-1.29-4.02-.35l-1.92.71c-3.22 1.2-4.5.24-6.5-1.97l-.28-.31c-2.55-2.82-2.22-5.47 1.02-8.41l.49-.44c1.21-1.09 2.65-2.07 3.55-2.56l2.39 2.64c-.61.23-1.96 1.12-3.23 2.27l-.45.4c-1.66 1.5-1.73 2.45-.75 3.53l.24.27Z" class="cls-6"/></svg>