<svg xmlns="http://www.w3.org/2000/svg" width="201.663" height="257.559" viewBox="0 0 53.357 68.146"><defs><clipPath id="a" clipPathUnits="userSpaceOnUse"><path d="M0 0h595.276v765.354H0Z"/></clipPath><clipPath id="b" clipPathUnits="userSpaceOnUse"><path d="M0 0h595.276v765.354H0Z"/></clipPath><clipPath id="c" clipPathUnits="userSpaceOnUse"><path d="M0 0h595.276v765.354H0Z"/></clipPath><clipPath id="d" clipPathUnits="userSpaceOnUse"><path d="M0 0h595.276v765.354H0Z"/></clipPath><clipPath id="e" clipPathUnits="userSpaceOnUse"><path d="M0 0h595.276v765.354H0Z"/></clipPath></defs><path d="m0 0-.002.038v.017l-.132 1.661-.006.033-.001.018-.206 1.62-.004.051-.006.031-.296 1.612-.005.029-.001.011-.36 1.559-.016.057-.004.019-.449 1.568-.012.029-.005.015-.503 1.503-.017.045-.012.028-.588 1.478-.016.04-.013.02-.65 1.44-.016.036-.01.02-.731 1.424-.015.028-.008.016-.793 1.374-.019.032-.01.012-.886 1.375-.916 1.292-.018.028-.009.01-.976 1.242-.025.031-.013.016-1.07 1.217-1.08 1.14-.026.025-.012.016-1.131 1.08-.031.029-.02.018-1.194 1.037-.028.022-.012.009-1.247.978-.025.018-.013.007-1.324.938-1.344.866-.028.016-.012.009-1.377.79-.028.016-.013.006-.178.092.121.251.203.422.128.262.127.267 4.649 9.682.352.731.161.328.158.33.255.529.257.529-.451.372-.453.374-.283.236-.287.234-.596.491-1.439 1.19-.376.304-.043.032-.03.021-.019.015-.008.003-.385.265-.424.278-.388.23-.415.244-.034.015-.018.011-.447.228-.382.178-.453.212-.46.194-.032.01-.01.005-.422.154-.452.156-.407.133-.477.151-.045.015-.026.006-.325.08-.058.022-.046.012-.027.006-.421.107-.419.092-.491.112-.039.008-.017.001-.424.073-.917.151-.484.065-.432.049-.434.046-.503.055-.033.004h-.022l-.358.02-.503.04-.033.002h-.016l-.373.008-.489.027-.274.008v3.749h-1.363v1.552h-8.423v-1.552h-1.332v-3.747l-.376-.015-.368-.018-.493-.016-.034-.001-.017-.002-.375-.033-.504-.027-.036-.004-.017-.002-.848-.094-.491-.055-.488-.071-.424-.069-.426-.072-.488-.083-.051-.008-.029-.007-.39-.089-.507-.115-.429-.111-.501-.136-.439-.137-.475-.156-.396-.143-.447-.163-.039-.017-.021-.008-.461-.198-.384-.179-.462-.22-.411-.212-.037-.021-.019-.012-.393-.228-.396-.238-.033-.02-.017-.011-.387-.257-.026-.016-.008-.007-.027-.02-.009-.007-.72-.54-.03-.026-.017-.012-1.169-.988-.228-.201-.246-.22-.244-.221-.391-.349-.392-.352.2-.487.195-.485.124-.309.125-.303.48-1.185 3.945-9.759.12-.299.118-.288.176-.427-.83-.425-.035-.019-.019-.01-1.375-.792-.03-.017-.015-.013-1.373-.884-1.296-.918-.023-.02-.011-.007-1.249-.977-.026-.021-.008-.01-1.185-1.028-.029-.027-.016-.013-1.138-1.091-.028-.029-.013-.012-1.112-1.177-1.061-1.225-.986-1.242-.024-.034-.012-.016-.934-1.324-.858-1.325-.023-.037-.012-.022-.792-1.377-.014-.029-.008-.013-.732-1.427-.014-.03-.005-.012-.651-1.432-.018-.043-.011-.027-.597-1.533-.523-1.522-.011-.043-.008-.018-.445-1.602-.38-1.592-.007-.034-.003-.015-.289-1.591-.008-.048-.002-.027-.205-1.631-.005-.042-.003-.026-.123-1.708-.047-1.668v-.088l.051-1.72.12-1.659.004-.041.003-.021.205-1.625.006-.045.006-.029.289-1.606.011-.044.003-.025.388-1.632.436-1.552.014-.039.006-.022.52-1.525.013-.033.006-.017.575-1.462.017-.044.012-.027.649-1.438.011-.027.004-.009.012-.025.006-.009.725-1.412.017-.035.012-.019.784-1.364.025-.043.014-.02.886-1.354.898-1.272.015-.023.005-.007.018-.023.008-.01.989-1.258.019-.023.01-.01 1.063-1.224 1.071-1.13.034-.035.021-.02 1.177-1.113 1.224-1.059 1.242-.986.033-.025.017-.013 1.276-.904.036-.024.019-.011 1.369-.87 1.375-.803.041-.023.02-.01 1.455-.733 1.466-.672.031-.011.013-.006 1.138-.453.396-.149 1.528-.523.041-.012.021-.005 1.597-.446 1.582-.376.051-.01.027-.005 1.639-.286.808-.108.819-.108.053-.005.031-.003 1.653-.121.037-.002.02-.002 1.67-.048h.084l1.691.05.03.002h.012l1.657.121.051.006.025.002 1.615.216.04.008.027.004.117.021 1.49.258.043.008.019.005 1.618.386 1.559.439.039.011.017.007 1.531.523.03.011.016.005 1.21.476.269.102.049.022.026.011 1.478.683 1.403.708.027.013.005.003.034.018.014.008 1.405.823 1.321.842.037.025.021.014 1.295.916.028.022.012.011 1.278 1.015 1.223 1.063 1.13 1.071.036.033.022.021 1.104 1.169 1.033 1.177.019.022.004.007.023.028.01.011.978 1.259.017.02.005.012.93 1.318.858 1.312.024.041.015.025.793 1.376.016.031.004.013.727 1.415.019.037.008.021.67 1.494.595 1.475.016.048.01.027.523 1.57.444 1.535.014.059.006.022.361 1.581.007.039.007.022.288 1.597.006.047.003.029.209 1.641.004.032v.016l.132 1.655.003.047v.028l.036 1.721z" style="fill:#211f1f;fill-opacity:1;fill-rule:nonzero;stroke:none" transform="matrix(.66532 0 0 -.66532 49.222 36.637)"/><g clip-path="url(#a)" transform="matrix(.66532 0 0 -.66532 -109.834 480.612)"><path d="M0 0c16.611 0 30.166-13.56 30.166-30.168C30.166-46.79 16.611-60.346 0-60.347c-16.622 0-30.177 13.557-30.177 30.179C-30.177-13.56-16.622 0 0 0" style="fill:#fff;fill-opacity:1;fill-rule:nonzero;stroke:none" transform="translate(205.189 695.75)"/><path d="m0 0-6.362-2.599a30 30 0 0 1-3.42-12.928l4.274-5.098 5.546 9.629zm-2.902-28.463-.302-6.902a30.35 30.35 0 0 1 10.476-8.388l6.25 1.659-6.41 9.073zm32.956 40.505a30 30 0 0 1-9.651 1.587c-2.93 0-5.766-.422-8.449-1.206l-1.286-4.52 10.573-3.309 10.746 2.472Zm16.92-14.298L40.927.094l-.188-11.101 5.438-9.607 4.381 5.499.001.012a30 30 0 0 1-3.585 12.847m-15.029-31.74-6.851-8.617 6.602-1.953a30.3 30.3 0 0 1 10.036 6.663c.234.233.46.473.687.713l-.102 7.221z" style="fill:#008066;fill-opacity:1;fill-rule:nonzero;stroke:none" transform="translate(184.786 682.146)"/><path d="m0 0-.75-3.238h-.942l.033.752c.073.073.073.283.261.353-.294 0-.647.331-.718.508-.119-.177-.435-.508-.768-.508.19-.07.19-.28.261-.353v-.752H-4.6l.032 1.105c.072.083.393.576.546.65-.296 0-.976.293-1.085.468-.106-.175-.931-.468-1.224-.468.142-.074.541-.567.612-.65v-1.105h-2.447l.032.752c.084.073.084.283.261.353-.293 0-.647.331-.716.508-.109-.177-.437-.508-.753-.508.175-.07.175-.28.245-.353v-.752h-1.895l.035 1.681c.107.109.858 1.119 1.155 1.154-.544 0-2.485 1.084-2.732 1.66-.023-.045-.047-.08-.071-.13-.449-.586-2.235-1.53-2.742-1.53.291-.035 1.364-.999 1.518-1.08v-1.755h-1.838l.036.752c.07.073.07.283.248.353-.317 0-.649.331-.717.508-.107-.177-.437-.508-.754-.508.176-.07.176-.28.247-.353v-.752h-2.662v1.105c.07.083.402.576.543.65-.283 0-.966.293-1.084.468-.105-.175-.931-.468-1.213-.468.141-.074.532-.567.613-.65v-1.105l-1.66-.035.035.717c.071.107.106.316.248.353-.283 0-.613.331-.717.508a1.3 1.3 0 0 0-.178-.225c-.153-.14-.353-.283-.542-.283.141-.037.189-.246.26-.353v-.751h-1.26v2.904l-4.638 2.38 3.19-7.911H.685l3.847 8.016zm-22.682-4.933c-.211 0-.401.14-.401.363 0 .213.19.39.401.39s.4-.177.4-.39c0-.223-.188-.363-.4-.363m4.86 0c-.224 0-.399.14-.399.363 0 .213.175.39.399.39a.393.393 0 0 0 .391-.39c0-.223-.176-.363-.391-.363m5.217 0c-.224 0-.401.14-.401.363 0 .213.177.39.401.39.21 0 .386-.177.386-.39 0-.223-.176-.363-.386-.363m5.248 0h-.01c-.224 0-.365.14-.365.363 0 .213.141.39.365.39h.01a.4.4 0 0 0 .379-.39c0-.21-.164-.354-.379-.363m4.159 0c-.216 0-.401.14-.401.363a.4.4 0 0 0 .401.39c.21 0 .398-.177.398-.39 0-.223-.188-.363-.398-.363M-25.99 1.869c.471.436 1.731 1.392 3.308 2.192 1.225.611 2.637 1.129 4.025 1.258-.717-.623-3.544-2.377-4.025-3.801a1.1 1.1 0 0 1-.07-.375l.07-.025 2.624-1.189c.39.73 1.272 1.825 2.236 2.836 1.206 1.296 2.534 2.449 3.085 2.59-.176-.472.402-1.153.789-1.117-.753-.285-1.613-1.508-1.542-2.369h1.977c0 .496.215 1.368.908 1.331h.035c.719.071.967-.835.929-1.331h2.001c.072.861-.81 2.084-1.563 2.369.423-.036.999.645.822 1.117.531-.141 1.825-1.271 3.024-2.541C-6.379 1.789-5.46.67-5.073-.071l1.875.858.788.356c0 .468-.319.975-.788 1.481-1.039 1.129-2.768 2.225-3.31 2.695 1.132-.105 2.271-.458 3.31-.918C-1.281 3.564.308 2.377.862 1.869c.293 1.368 1.907 2.226 3.094 2.084C2.075 5.579-.48 6.472-3.198 6.909c-1.37.212-2.768.317-4.159.341-.234.013-.469.013-.693.013h-3.378a.9.9 0 0 1-.494.505v2.12h1.4v1.116h-1.366v1.545h-1.364v-1.545h-1.342V9.888h1.412v-2.12a.95.95 0 0 1-.543-.505h-3.376c-.248 0-.484 0-.721-.013-1.623-.024-3.27-.165-4.86-.47-2.437-.471-4.708-1.342-6.404-2.827 1.154.142 2.814-.716 3.096-2.084m13.385 5.605h.035a.8.8 0 0 0 .791-.788.8.8 0 0 0-.791-.79h-.035c-.424.012-.729.364-.729.79 0 .423.305.766.729.788" style="fill:#fdb927;fill-opacity:1;fill-rule:nonzero;stroke:none" transform="translate(218.207 704.796)"/><path d="M0 0h-1.591c-.034.247-.105.424-.246.576a.92.92 0 0 1-.609.211c-.298 0-.545-.104-.72-.328-.189-.249-.296-.611-.296-1.142 0-.365.035-.613.154-.801a.96.96 0 0 1 .317-.424c.142-.069.33-.141.545-.141.245 0 .469.072.609.211a.9.9 0 0 1 .246.649H.035c-.035-.33-.072-.576-.19-.788a2.2 2.2 0 0 0-.459-.648 2.1 2.1 0 0 0-.751-.505c-.296-.143-.648-.179-1.049-.179s-.752.036-1.084.179c-.318.103-.611.246-.823.469-.211.211-.401.46-.542.753-.175.353-.246.789-.246 1.26 0 .389.071.753.176 1.107.14.364.329.647.541.871.213.247.472.387.753.541.366.143.717.213 1.155.213.353 0 .716-.07 1.036-.178.33-.116.611-.259.8-.469.21-.213.388-.47.493-.754C-.07.494-.037.247 0 0" style="fill:#211f1f;fill-opacity:1;fill-rule:nonzero;stroke:none" transform="translate(200.645 678.845)"/></g><path d="M0 0h-3.956v5.108h1.648V1.33H0Z" style="fill:#211f1f;fill-opacity:1;fill-rule:nonzero;stroke:none" transform="matrix(.66532 0 0 -.66532 26.385 31.073)"/><g clip-path="url(#b)" transform="matrix(.66532 0 0 -.66532 -109.834 480.612)"><path d="M0 0v2.988h1.693V-.178c0-.176 0-.364.071-.47.038-.106.143-.178.249-.247a1 1 0 0 1 .47-.106c.248 0 .435.072.579.21.139.108.21.319.21.613v3.166h1.646V0c0-.402-.034-.683-.068-.895-.082-.223-.19-.4-.331-.577a1.27 1.27 0 0 0-.472-.436c-.209-.106-.41-.212-.67-.282a7 7 0 0 0-.86-.071c-.399 0-.682.036-.976.071-.246.07-.458.176-.682.282a1.3 1.3 0 0 0-.457.436 1.54 1.54 0 0 0-.331.681A3.6 3.6 0 0 0 0 0" style="fill:#211f1f;fill-opacity:1;fill-rule:nonzero;stroke:none" transform="translate(204.848 677.798)"/><path d="M0 0a1.17 1.17 0 0 1-.613.403c.437.282.647.646.647 1.082 0 .459-.177.826-.575 1.036-.284.19-.755.293-1.403.293h-2.518v-5.108h2.589c.401 0 .683 0 .825.037.189.034.33.104.507.175.141.072.293.179.365.259.14.143.246.284.317.461.069.187.105.362.105.576C.246-.457.141-.209 0 0m-2.837 1.661h.657c.177 0 .286-.01.343-.035a.6.6 0 0 0 .259-.141.7.7 0 0 0 .07-.293.43.43 0 0 0-.137-.318Q-1.806.767-2.18.768h-.657ZM-1.508-1c-.105-.103-.329-.14-.645-.14h-.684v.966h.684c.316 0 .54-.035.645-.106a.44.44 0 0 0 .176-.366A.44.44 0 0 0-1.508-1" style="fill:#211f1f;fill-opacity:1;fill-rule:nonzero;stroke:none" transform="translate(214.583 677.971)"/></g><path d="M0 0h-3.554v4.603h1.506V1.222H0Z" style="fill:#211f1f;fill-opacity:1;fill-rule:nonzero;stroke:none" transform="matrix(.66532 0 0 -.66532 19.585 46.012)"/><path d="M0 0h-1.553l-1.649-4.603h1.471l.178.577h1.519l.178-.577h1.505Zm-.778-3.061h-.482l.462 1.66.02-.058.485-1.602z" style="fill:#211f1f;fill-opacity:1;fill-rule:nonzero;stroke:none" transform="matrix(.66532 0 0 -.66532 21.935 42.95)"/><g clip-path="url(#c)" transform="matrix(.66532 0 0 -.66532 -109.834 480.612)"><path d="M0 0h-1.436c-.037.188-.152.294-.26.401a.72.72 0 0 1-.457.14c-.296 0-.508-.105-.648-.318-.187-.187-.294-.54-.294-.976 0-.473.107-.789.294-.966.14-.224.352-.33.648-.33.211 0 .389.071.529.178.151.116.259.223.296.363h-.684v1.002H.071v-2.543h-.967l-.081.46c-.105-.141-.212-.247-.318-.285a.8.8 0 0 0-.436-.211 2.2 2.2 0 0 0-.611-.081c-.389 0-.788.081-1.107.258-.363.178-.613.471-.837.824-.209.365-.281.79-.281 1.296 0 .399.033.752.177 1.082.104.247.257.495.471.718.21.212.433.354.682.472.365.14.683.211 1.084.211.422 0 .825-.071 1.142-.26.329-.176.575-.388.763-.717C-.141.541-.035.294 0 0" style="fill:#211f1f;fill-opacity:1;fill-rule:nonzero;stroke:none" transform="translate(204.094 656.13)"/><path d="M0 0v2.66h1.506V-.141c0-.223 0-.365.069-.435.037-.107.108-.178.223-.261.142-.069.248-.069.425-.069.224 0 .4.034.507.186.14.107.177.284.177.579V2.66h1.507V0c0-.364-.037-.613-.07-.837-.085-.176-.153-.353-.261-.492-.14-.143-.271-.295-.459-.403a2.4 2.4 0 0 0-.601-.246c-.257-.036-.504-.071-.8-.071-.317 0-.611.035-.824.071-.247.069-.469.142-.614.246-.174.108-.316.26-.469.403a1.3 1.3 0 0 0-.248.609C0-.576 0-.329 0 0" style="fill:#211f1f;fill-opacity:1;fill-rule:nonzero;stroke:none" transform="translate(204.72 655.166)"/></g><path d="M0 0h-1.47v4.603h1.4l1.59-2.448v2.448h1.472V0H1.554L0 2.402Z" style="fill:#211f1f;fill-opacity:1;fill-rule:nonzero;stroke:none" transform="matrix(.66532 0 0 -.66532 30.652 46.012)"/><path d="M0 0h-1.509l-1.658-4.603h1.47l.188.613H0l.14-.613h1.508Zm-.776-3.061h-.484l.484 1.636.022.061.46-1.697z" style="fill:#211f1f;fill-opacity:1;fill-rule:nonzero;stroke:none" transform="matrix(.66532 0 0 -.66532 35.039 42.95)"/><g clip-path="url(#d)" transform="matrix(.66532 0 0 -.66532 -109.834 480.612)"><path d="M0 0a4 4 0 0 1-.984.106C-4.069.054-5.947-3.475-4.191-3.592c1.433-.094 2.931 1.61 3.583 2.627Q-.302-.486 0 0m1.701 1.325C2.79.903 3.527.134 4.111-.839 4.826-.292 5.568.349 6.04 1.07q.16.246.211.557c.139.823-.401 1.588-.968 2.122a6.5 6.5 0 0 1-1.391.994l-.221-.323a6.5 6.5 0 0 0 1.345-.954c.464-.437.965-1.097.851-1.773C5.752 1.014 5.156.678 4.6.41c-.15 1.341-.902 1.936-1.97 2.41-.313-.494-.621-.995-.929-1.495m-6.17-5.48c-2.409.118-.996 6.103 4.436 5.827q.531-.028.987-.126.482.786.972 1.56l-.571.214c-1.173.436-1.844.642-2.805 1.549-1.394 1.313-.868 2.664-.105 3.301.036-.234.092-.507.17-.731C-.979 6.257.632 5.655 1.691 5.26l.608-.223q.354-.129.709-.288l.222.318c-.451.202-.919.378-1.403.558-.876.326-2.307.86-2.76 1.742-1.106 2.154 1.021 4.434 3.259 4.434a3.61 3.61 0 0 0 2.975-1.543l1.057 1.027.523-.621-2.792-2.005c-.415.572-1.46 2.033-2.219 2.119-.09.01-.185.01-.275.01-.894 0-1.522-.878-1.221-1.712.376-1.04 1.992-1.663 2.931-2.013.359-.134.738-.269 1.115-.417.819 1.005 1.698 1.91 2.676 2.654l.836-.077c-1.044-.794-1.975-1.771-2.84-2.856 1.288-.58 2.403-1.385 2.417-2.866.021-2.15-3.147-4.812-4.926-5.485C2.119-1.219 1.486-.613.724-.255a81 81 0 0 0-.479-.758c-.825-1.29-2.931-3.229-4.714-3.142" style="fill:#211f1f;fill-opacity:1;fill-rule:nonzero;stroke:none" transform="translate(187.37 662.86)"/><path d="m0 0-.223-.342c-.342-.072-.636.086-.818.45v3.359c.22.344 1.076 1.271 1.076 1.271l-.365.415-.491-.379c-.328.073-.669.599-.781 1.001l-.708.036c-.366-.462-.768-1.134-1.49-1.267-.084-.026-.171-.026-.27-.026.038.404-.035 1.477-1.304 1.209-.439-.426-.819-.953-.146-1.769.633-.784 1.086-1.492 1.086-1.492-1.343-.757-3.358-3.479-.636-4.371.598-.047.977.085 1.27.295.391.267.649.657 1.112.976.036-.379.524-1.797 1.684-1.233.439.378 1.039.708 1.307 1.646zm-2.652.328s-.366-.475-.818-.742a1.7 1.7 0 0 0-.33-.135c-.305-.111-.525-.051-.868.171-.743 1.122.196 2.246.598 2.429l.27-.317.366-.427.49.523s-.453.577-.856 1.077c-.219.282-.414.538-.525.672.196.011.378.046.525.109.318.123.525.329.635.599 0-.329.292-.476.513-.672z" style="fill:#211f1f;fill-opacity:1;fill-rule:nonzero;stroke:none" transform="translate(201.366 663.708)"/><path d="m0 0 1.306 1.416c.783.109 1.269-.306 1.269-2.124.782.829 2.015 2.076 2.015 2.076.268.23.819.303 1.051 0 .182-.294.367-.953 1.001-.66.659.306.513.33.513.33l.33-.44c-.33-.44-.698-1.039-1.063-1.233v-4.139c.108-.185.146-.292.294-.292.158 0 .328.328.328.328l.405-.476-1.101-1.161c-.304-.255-.56-.255-.781-.145-.233.073-.829.781-.829 1.38v4.175l-.513.819L2.65-1.747v-3.137c.194-.182.342-.182.487-.22.184-.036.341.366.341.366l.477-.182-1.196-1.564c-.257-.183-.781-.183-.927.109-.185.294-.488.599-.708.563-.185-.036-.563-.305-.636-.415l-.416.379s.83.964 1.016 1.038v4.261c-.112.256-.256.513-.711.147z" style="fill:#211f1f;fill-opacity:1;fill-rule:nonzero;stroke:none" transform="translate(201.474 668.068)"/><path d="M0 0v3.054l1.682.976V.036c.221-.074.404-.158.526-.074.145.074.254.33.254.33h.601c0-.45-.415-1.074-.634-1.294h-.747v-4.774c.221-.294.221-.451.404-.328.16.108.525.438.525.438l.452-.525c-.221-.365-1.16-1.185-1.381-1.345-.233-.18-.706-.291-.94-.143-.256.195-.22.903-.926.524-.49-.221-.49-.257-.49-.257l-.331.55s.674.721 1.005.866v4.849s-.257.073-.404-.037c-.11-.111-.307-.221-.27-.378h-.56c.121.378.267 1.182.634 1.524z" style="fill:#211f1f;fill-opacity:1;fill-rule:nonzero;stroke:none" transform="translate(210.193 669.557)"/><path d="M0 0c.343.295.855.855.939 1.111l-.304.513c-.182-.353-.257-.548-.672-.621-.365-.076-1.271.732-1.342.927-.256.181-.453.109-.563-.038-.048-.059-.257-.207-.563-.39-.598-.354-1.574-.806-2.562-.756-.267-.305-.304-.451-.231-.599.111-.147.377-.147.45-.415v-3.993c-.29-.218-.855-.671-.928-.817l.257-.257c.381.11.745.365.855.257.196-.184.636-.746.781-.928.343-.073.636-.073.866.036.076.036.271.207.512.404.392.292.893.634 1.163.634.413.048 1.685.232 1.831.195v.404C.27-4.261 0-4.066 0-4.066Zm-1.599-4.297c-.181-.036-.672-.293-.672-.293l-.234.147-.89.561V.295l.675.487c.008-.157.094-.305.215-.439.285-.294.725-.525.906-.611z" style="fill:#211f1f;fill-opacity:1;fill-rule:nonzero;stroke:none" transform="translate(218.885 667.627)"/><path d="M0 0v2.343s.195-.035.305.073c.222.194.109.415-.148.489h-2.051l1.857 2.783s-.147.378-.292.49c-.185-.147-.307-.295-.855-.49-.527-.206-1.122.416-1.271.6-.173.133-.219.123-.429-.063l-.06-.047c-.255-.416-.743-.672-1.451-.916-.782-.086-.979-.159-1.308-.307-.073-.292.366-.487.634-.632V2.308s-.268-.149-.561-.296c-.294-.195-.182-.451.112-.56h1.755l-1.904-2.979.525-.195c.915.78 1.845.414 2.258.046.016-.01.037-.023.051-.046.147-.221.414-.184.56-.074.257.598 1.759 1.124 2.468 1.27.182.035.219.11.219.293C.414-.039.266-.147 0 0m-2.884 4.359c.551-.111 1.271.133 1.735.561l-1.465-2.125h-1l-.038 2.235c.112-.392.403-.598.768-.671m1.321-4.738c-.391.266-.662.658-1.321.548A2.2 2.2 0 0 1-3.466 0c-1.078-.452-.675-.147-.675-.147l1.257 1.807.233.352h1.088z" style="fill:#211f1f;fill-opacity:1;fill-rule:nonzero;stroke:none" transform="translate(225.748 663.6)"/></g><path d="M0 0h-.54v2.224L-1.002 0h-.574l-.472 2.224V0h-.506v2.661h.786l.472-2.084.506 2.084H0Z" style="fill:#211f1f;fill-opacity:1;fill-rule:nonzero;stroke:none" transform="matrix(.66532 0 0 -.66532 39.124 46.012)"/><path d="M224.36 653.223h.579v.542h-.579z" style="fill:#211f1f;fill-opacity:1;fill-rule:nonzero;stroke:none" transform="matrix(.66532 0 0 -.66532 -109.834 480.612)"/><g clip-path="url(#e)" transform="matrix(.66532 0 0 -.66532 -109.834 480.612)"><path d="M0 0c0 .506-.107.577-.332.646.26.105.402.354.402.647 0 .212-.142.755-.825.755h-1.329V-.613h.527V.434h.579c.399 0 .436-.152.436-.506 0-.259 0-.4.036-.541h.611v.072C0-.472 0-.401 0 0m-.907.858h-.65v.719h.686c.329 0 .4-.214.4-.353 0-.261-.14-.366-.436-.366" style="fill:#211f1f;fill-opacity:1;fill-rule:nonzero;stroke:none" transform="translate(227.53 653.836)"/></g><path d="M228.023 653.223h.577v.542h-.577z" style="fill:#211f1f;fill-opacity:1;fill-rule:nonzero;stroke:none" transform="matrix(.66532 0 0 -.66532 -109.834 480.612)"/><path d="m0 0-3.158.064-1.038 2.984L-5.233.064-8.391 0l2.517-1.908-.915-3.024 2.593 1.804 2.593-1.804-.914 3.024z" style="fill:#fdb927;fill-opacity:1;fill-rule:nonzero;stroke:none" transform="matrix(.66532 0 0 -.66532 24.08 63.864)"/><path d="m0 0-3.158.064-1.038 2.984L-5.233.064-8.391 0l2.517-1.909-.915-3.023 2.593 1.804 2.593-1.804-.914 3.023z" style="fill:#fdb927;fill-opacity:1;fill-rule:nonzero;stroke:none" transform="matrix(.66532 0 0 -.66532 14.158 59.77)"/><path d="m0 0-3.159.064-1.037 2.984L-5.233.064-8.391 0l2.517-1.908-.915-3.024 2.593 1.804 2.593-1.804-.914 3.024z" style="fill:#fdb927;fill-opacity:1;fill-rule:nonzero;stroke:none" transform="matrix(.66532 0 0 -.66532 6.583 52.16)"/><path d="m0 0 3.158.064 1.038 2.984L5.233.064 8.391 0 5.874-1.908l.915-3.024-2.593 1.804-2.593-1.804.914 3.024Z" style="fill:#fdb927;fill-opacity:1;fill-rule:nonzero;stroke:none" transform="matrix(.66532 0 0 -.66532 29.276 63.864)"/><path d="m0 0 3.158.064 1.038 2.984L5.233.064 8.391 0 5.874-1.909l.915-3.023-2.593 1.804-2.593-1.804.914 3.023Z" style="fill:#fdb927;fill-opacity:1;fill-rule:nonzero;stroke:none" transform="matrix(.66532 0 0 -.66532 39.199 59.77)"/><path d="m0 0 3.159.064 1.037 2.984L5.233.064 8.391 0 5.874-1.908l.915-3.024-2.593 1.804-2.593-1.804.914 3.024Z" style="fill:#fdb927;fill-opacity:1;fill-rule:nonzero;stroke:none" transform="matrix(.66532 0 0 -.66532 46.774 52.16)"/></svg>